<?xml version="1.0" standalone="no"?>
<!DOCTYPE svg PUBLIC "-//W3C//DTD SVG 1.1//EN" "http://www.w3.org/Graphics/SVG/1.1/DTD/svg11.dtd" >
<svg xmlns="http://www.w3.org/2000/svg">
<metadata></metadata>
<defs>
<font id="pf_din_text_cond_pro_lightRg" horiz-adv-x="870" >
<font-face units-per-em="2048" ascent="1536" descent="-512" />
<missing-glyph horiz-adv-x="417" />
<glyph unicode=" "  horiz-adv-x="417" />
<glyph unicode="&#x09;" horiz-adv-x="417" />
<glyph unicode="&#xa0;" horiz-adv-x="417" />
<glyph unicode="!" horiz-adv-x="452" d="M158 0v145h139v-145h-139zM162 1425h127l-15 -1067h-98z" />
<glyph unicode="&#x22;" horiz-adv-x="509" d="M102 1040v385h101v-385h-101zM311 1040v385h99v-385h-99z" />
<glyph unicode="#" d="M18 453v90h172l58 348h-158v90h172q66 382 72 446h92l-72 -446h236q1 12 36 223.5t36 222.5h94l-74 -446h166v-90h-180l-58 -348h164v-90h-178q-1 -7 -72 -453h-94l72 453h-234l-73 -453h-93l74 453h-158zM283 543h235q1 14 27.5 172.5t29.5 175.5h-235z" />
<glyph unicode="$" d="M43 221l104 64q37 -73 100 -121t152 -55v563q-175 64 -253 148t-78 229q0 159 87.5 262.5t243.5 113.5v170h74v-170q121 -7 204 -62.5t120 -135.5l-107 -70q-67 134 -217 148v-523q185 -47 264.5 -141t79.5 -262q0 -174 -87.5 -277.5t-256.5 -113.5v-209h-74v209 q-128 7 -218 69t-138 164zM197 1049q1 -91 50 -144.5t152 -95.5v498q-96 -10 -149 -81t-53 -177zM473 109q109 10 161 81t52 187q0 62 -13.5 105.5t-43.5 74t-65 50t-91 40.5v-538z" />
<glyph unicode="%" horiz-adv-x="1269" d="M70 772v451q0 95 64.5 152t160.5 57t159.5 -57t63.5 -152v-451q0 -95 -64.5 -152t-158.5 -57q-96 0 -160.5 57t-64.5 152zM172 774q0 -54 33.5 -86.5t89.5 -32.5q53 0 86 32.5t33 86.5v447q0 51 -33.5 83.5t-85.5 32.5q-55 0 -89 -32.5t-34 -83.5v-447zM203 -35l755 1497 h97l-758 -1497h-94zM745 197v460q0 93 65.5 148t160.5 55q93 0 158 -55t65 -148v-460q0 -95 -64.5 -150t-158.5 -55q-95 0 -160.5 55t-65.5 150zM848 197q0 -52 33.5 -81.5t89.5 -29.5q53 0 86 29.5t33 81.5v458q0 51 -33 81t-86 30q-56 0 -89.5 -30t-33.5 -81v-458z" />
<glyph unicode="&#x26;" horiz-adv-x="1114" d="M117 336q0 129 64.5 236t195.5 208q-87 137 -111 190q-39 85 -39 165q0 131 80.5 218t224.5 87q187 0 287 -125q-59 -51 -92 -78q-43 46 -88.5 65t-108.5 19q-84 0 -131 -56.5t-47 -127.5q0 -49 30.5 -122t86.5 -162t108.5 -165t124.5 -177t107 -153q52 102 70 252 q38 -4 118 -8q-24 -200 -110 -354q43 -65 174 -248h-154q-13 20 -48.5 69.5t-53.5 77.5q-142 -159 -346 -159q-155 0 -248.5 95t-93.5 253zM242 344q0 -107 63.5 -174.5t169.5 -67.5q70 0 140.5 38.5t121.5 101.5q-187 281 -297 440q-198 -156 -198 -338z" />
<glyph unicode="'" horiz-adv-x="380" d="M139 1040v385h101v-385h-101z" />
<glyph unicode="(" horiz-adv-x="501" d="M104 621q0 236 84.5 458.5t223.5 397.5l63 -37q-111 -173 -175 -388t-64 -423q0 -218 65 -434.5t174 -391.5l-57 -41q-139 176 -226.5 399t-87.5 460z" />
<glyph unicode=")" horiz-adv-x="501" d="M68 1438l65 35q138 -175 221.5 -397.5t83.5 -459.5q0 -235 -86.5 -457t-222.5 -397q-27 16 -59 41q109 173 174 389.5t65 434.5q0 208 -64 422.5t-177 388.5z" />
<glyph unicode="*" horiz-adv-x="708" d="M55 1167q2 7 16.5 52t16.5 55l225 -96q0 17 -16 249h109l-19 -249q176 70 229 96q2 -11 17 -58t16 -49l-235 -65l159 -193l-90 -65l-131 215q-11 -16 -65 -105.5t-66 -111.5q-30 25 -90 65l158 195q-13 3 -116.5 32.5t-117.5 32.5z" />
<glyph unicode="+" d="M41 543v102h346v361h98v-361h344v-102h-344v-363h-98v363h-346z" />
<glyph unicode="," horiz-adv-x="387" d="M100 -219l54 215h-41v168h155v-164l-90 -219h-78z" />
<glyph unicode="-" horiz-adv-x="733" d="M104 481v115h535v-115h-535z" />
<glyph unicode="." horiz-adv-x="378" d="M113 0v166h155v-166h-155z" />
<glyph unicode="/" horiz-adv-x="702" d="M31 -78l508 1559h102l-508 -1559h-102z" />
<glyph unicode="0" d="M104 313v797q0 152 96.5 240t235.5 88q89 0 163.5 -37t121.5 -113t47 -178v-797q0 -151 -97 -238t-235 -87q-139 0 -235.5 86.5t-96.5 238.5zM229 317q0 -96 57 -152t150 -56q92 0 148.5 56t56.5 152v791q0 94 -56.5 150.5t-148.5 56.5q-93 0 -150 -56t-57 -151v-791z " />
<glyph unicode="1" d="M205 1141l2 137l201 147h129v-1425h-127v1288z" />
<glyph unicode="2" d="M76 0v121l477 751q32 51 50 114.5t18 115.5q0 91 -50 152t-153 61q-85 0 -139.5 -59t-69.5 -166l-129 20q19 150 108.5 238t233.5 88q159 0 248.5 -88.5t89.5 -241.5q0 -142 -98 -301l-437 -684h512v-121h-661z" />
<glyph unicode="3" d="M59 272l125 27q15 -91 61 -142t138 -51q219 0 219 289q0 148 -50 219.5t-159 71.5h-80v113h68q109 0 161 60.5t52 187.5q0 57 -10 103t-33 85t-64.5 60.5t-99.5 21.5q-91 0 -134.5 -53.5t-59.5 -143.5l-125 23q22 134 101.5 214.5t217.5 80.5q96 0 163.5 -29.5t104 -85 t52 -121t16.5 -151.5q0 -47 -7 -89t-24.5 -86.5t-52 -79t-84.5 -51.5q39 -9 69 -27t48.5 -44.5t31 -54.5t18 -66.5t7.5 -70.5t2 -76q0 -418 -354 -418q-124 0 -213 72t-105 212z" />
<glyph unicode="4" d="M53 227v125l400 1073h135l-404 -1077h396v414h127v-414h114v-121h-114v-227h-127v227h-527z" />
<glyph unicode="5" d="M98 276l127 25q27 -199 205 -199q41 0 72.5 10.5t53.5 27.5t38 45t25 57.5t14 71t6.5 78.5t1.5 87q0 65 -4.5 112.5t-17.5 92t-35 72.5t-59 44.5t-87 16.5q-58 0 -110 -30t-80 -78h-117v716h625v-118h-510l4 -461q90 86 221 86q74 0 128 -23t86.5 -60.5t52 -96.5t26 -121 t6.5 -144q0 -128 -15.5 -216t-53.5 -154t-105 -97.5t-168 -31.5q-287 0 -330 288z" />
<glyph unicode="6" d="M102 383q0 103 18 194t68 203l293 645h135l-290 -649q2 -2 4 -2q55 37 141 37q150 0 225.5 -109.5t75.5 -287.5q0 -202 -85.5 -314t-254.5 -112q-330 0 -330 395zM229 389q0 -141 47 -213t158 -72q209 0 209 293q0 69 -10 121t-33 94t-63.5 64t-98.5 22q-209 0 -209 -309 z" />
<glyph unicode="7" d="M100 1108v317h674v-118l-440 -1307h-133l440 1307h-422v-199h-119z" />
<glyph unicode="8" d="M92 393q0 273 170 348q-85 44 -120.5 117.5t-35.5 200.5q0 188 93.5 283.5t238.5 95.5q149 0 241.5 -94.5t92.5 -284.5q0 -228 -154 -318q85 -37 125.5 -121t40.5 -229q0 -107 -28 -187.5t-77.5 -126t-109.5 -67.5t-131 -22q-73 0 -133 21.5t-109 67.5t-76.5 126.5 t-27.5 189.5zM219 401q0 -154 59 -225.5t160 -71.5q110 0 162.5 73t52.5 224t-55.5 219t-159.5 68q-101 0 -160 -69.5t-59 -217.5zM231 1051q0 -128 54 -192t153 -64t152 65t53 197q0 260 -205 260q-207 0 -207 -266z" />
<glyph unicode="9" d="M98 1010q0 202 85.5 314t254.5 112q165 0 248.5 -100t83.5 -296q0 -101 -18.5 -192.5t-69.5 -204.5l-293 -645h-135l291 649q-2 2 -4 2q-55 -37 -142 -37q-101 0 -170 53.5t-100 141t-31 203.5zM227 1026q0 -69 10 -121t33 -94t63.5 -64t98.5 -22q117 0 163 81t46 228 q0 141 -47 213t-158 72q-209 0 -209 -293z" />
<glyph unicode=":" horiz-adv-x="380" d="M111 0v166h153v-166h-153zM111 616v168h153v-168h-153z" />
<glyph unicode=";" horiz-adv-x="380" d="M100 -219l52 215h-39v168h155v-164l-90 -219h-78zM113 616v166h155v-166h-155z" />
<glyph unicode="&#x3c;" d="M53 547v96l758 381v-111l-645 -317q22 -8 324.5 -158.5t322.5 -158.5v-111z" />
<glyph unicode="=" d="M41 365v106h788v-106h-788zM41 709v102h788v-102h-788z" />
<glyph unicode="&#x3e;" d="M55 168v111q16 7 318 157.5t325 159.5l-643 317v111l760 -381v-96z" />
<glyph unicode="?" horiz-adv-x="847" d="M72 1100q25 163 124.5 249.5t241.5 86.5q172 0 261 -97t89 -260q-1 -52 -9.5 -95t-27.5 -82t-35.5 -64.5t-47.5 -67.5q-12 -18 -46.5 -62t-53.5 -71.5t-37 -71.5t-19 -84v-133h-129v117q0 128 72 225q21 30 68.5 92.5t67.5 92.5t39.5 79.5t20.5 96.5q0 262 -221 262 q-95 0 -158 -69.5t-71 -164.5q-72 13 -129 21zM377 0v147h139v-147h-139z" />
<glyph unicode="@" horiz-adv-x="1585" d="M100 688q0 163 50.5 302t142.5 239t227 156.5t297 56.5q299 0 482.5 -182t183.5 -472q0 -133 -28 -232.5t-77 -155.5t-108.5 -82.5t-130.5 -26.5q-26 0 -61.5 10.5t-74 41t-49.5 73.5l-4 -2q-30 -52 -95.5 -80.5t-133.5 -28.5q-107 0 -169.5 62t-62.5 165q0 99 60 168.5 t178 69.5h199v107q0 133 -158 133q-50 0 -92.5 -22t-67.5 -60l-84 47q39 61 102 96t140 35q262 0 262 -229v-355q0 -62 31 -97.5t84 -35.5q231 0 231 399q0 130 -44.5 237t-120.5 176t-174.5 107t-209.5 38q-191 0 -332.5 -87t-213.5 -235t-72 -336q0 -308 168 -490 t459 -182q215 0 380 86l37 -94q-224 -88 -407 -88q-338 0 -541 203.5t-203 564.5zM588 537q0 -64 43.5 -100t118.5 -36q77 0 126.5 38.5t49.5 109.5v133h-174q-75 0 -119.5 -35.5t-44.5 -109.5z" />
<glyph unicode="A" horiz-adv-x="1001" d="M20 0l416 1425h129l416 -1425h-137l-96 342h-496l-96 -342h-136zM281 461h436l-125 440l-88 332h-8q-46 -188 -88 -332q-105 -366 -127 -440z" />
<glyph unicode="B" horiz-adv-x="1028" d="M133 0v1425h410q188 0 283.5 -97.5t95.5 -268.5q0 -70 -16 -125t-59.5 -104.5t-115.5 -81.5v-7q75 -19 124.5 -71.5t70 -119.5t20.5 -147q0 -195 -102 -299t-275 -104h-436zM264 127h287q139 0 200.5 78t61.5 209q0 123 -64 195.5t-194 72.5h-291v-555zM264 799h271 q127 0 191.5 68t64.5 188q0 118 -67 185t-198 67h-262v-508z" />
<glyph unicode="C" horiz-adv-x="948" d="M102 403v619q0 183 110.5 298.5t299.5 115.5q143 0 247.5 -72t139.5 -201l-127 -47q-20 91 -89 143t-171 52q-128 0 -203.5 -82t-75.5 -205v-625q0 -124 76 -206t203 -82q101 0 170 52t92 148l125 -45q-31 -133 -136.5 -205.5t-250.5 -72.5q-187 0 -298.5 114.5 t-111.5 300.5z" />
<glyph unicode="D" horiz-adv-x="1052" d="M131 0v1425h399q294 0 383 -225q22 -63 28.5 -157.5t6.5 -256.5v-235q0 -227 -33 -313q-26 -67 -68 -114.5t-97.5 -74t-116.5 -38t-135 -11.5h-367zM264 121h246q223 0 283 174q24 65 24 160v485q0 121 -22 188q-26 86 -99 131.5t-186 45.5h-246v-1184z" />
<glyph unicode="E" horiz-adv-x="919" d="M133 0v1425h741v-122h-610v-519h524v-118h-524v-539h610v-127h-741z" />
<glyph unicode="F" horiz-adv-x="897" d="M133 0v1425h741v-122h-608v-523h522v-118h-522v-662h-133z" />
<glyph unicode="G" horiz-adv-x="1019" d="M100 403v619q0 183 111.5 298.5t300.5 115.5q144 0 248 -72t139 -203q-1 -1 -63 -21t-64 -20q-22 90 -90.5 140.5t-169.5 50.5q-128 0 -204.5 -82.5t-76.5 -204.5v-629q0 -123 76.5 -206t204.5 -83q121 0 200 81t79 200v242h-242v119h375v-351q0 -184 -115 -297.5 t-297 -113.5q-190 0 -301 115t-111 302z" />
<glyph unicode="H" horiz-adv-x="1077" d="M133 0v1425h131v-641h545v641h135v-1425h-135v666h-545v-666h-131z" />
<glyph unicode="I" horiz-adv-x="421" d="M143 0v1425h133v-1425h-133z" />
<glyph unicode="J" horiz-adv-x="811" d="M10 104l94 89q84 -80 181 -80q115 0 183.5 60.5t68.5 197.5v1054h135v-1065q0 -95 -29.5 -168t-82.5 -117t-121 -65.5t-150 -21.5q-84 0 -158.5 30t-120.5 86z" />
<glyph unicode="K" horiz-adv-x="1042" d="M131 0v1425h133v-819h4q100 155 287.5 435.5t255.5 383.5h145q-153 -232 -368 -553l428 -872h-146l-364 750q-20 -27 -123 -180t-119 -175v-395h-133z" />
<glyph unicode="L" horiz-adv-x="894" d="M133 0v1425h131v-1298h596v-127h-727z" />
<glyph unicode="M" horiz-adv-x="1325" d="M133 0v1425h133q16 -40 64.5 -151t103.5 -236t66 -151l166 -398h4l170 402l231 534h131v-1425h-131v1102l-6 -2l-162 -389l-190 -432h-95q-17 41 -99.5 229.5t-90.5 206.5l-158 383l-8 -2v-1096h-129z" />
<glyph unicode="N" horiz-adv-x="1136" d="M131 0v1425h129q9 -16 186.5 -348t219.5 -405l202 -383l9 2v1134h131v-1425h-129l-410 762q-61 111 -201 377h-4v-1139h-133z" />
<glyph unicode="O" horiz-adv-x="1005" d="M90 424v600q0 80 25 152t73.5 131t130 94t185.5 35q191 0 300 -119.5t109 -292.5v-616q0 -188 -113 -304t-296 -116q-103 0 -183.5 34t-130 93.5t-75 138t-25.5 170.5zM221 422q0 -139 73.5 -226t211.5 -87q117 0 194.5 82t77.5 206v625q0 50 -15.5 99t-47 92.5 t-86.5 70.5t-125 27q-93 0 -159 -44t-95 -108t-29 -137v-600z" />
<glyph unicode="P" horiz-adv-x="978" d="M133 0v1425h402q197 0 302 -105t105 -312q0 -85 -22.5 -158t-68 -132.5t-124.5 -93.5t-184 -34h-277v-590h-133zM266 715h266q75 0 130 23t86.5 65t46 93t14.5 114q0 140 -70 216.5t-209 76.5h-264v-588z" />
<glyph unicode="Q" horiz-adv-x="1024" d="M104 424v600q0 80 25 152t73.5 131t129.5 94t184 35q129 0 224.5 -58t141.5 -150t46 -204v-616q0 -123 -56 -230l152 -121l-70 -88q-6 6 -76 61.5t-75 59.5q-108 -102 -287 -102q-103 0 -183 34t-129.5 93.5t-74.5 137.5t-25 171zM233 1022l3 -600q0 -139 73 -226 t211 -87q107 0 178 65l-172 137l74 84l164 -133q29 63 29 135v625q0 50 -16 99t-48 92.5t-87.5 70.5t-125.5 27q-93 0 -159 -44t-95 -108t-29 -137z" />
<glyph unicode="R" horiz-adv-x="1021" d="M133 0v1425h430q181 0 280 -101.5t99 -285.5q0 -142 -67 -241t-197 -138l283 -659h-146l-266 643l-285 -2v-641h-131zM264 756h275q131 0 200.5 73t69.5 209q0 132 -69 199.5t-201 67.5h-275v-549z" />
<glyph unicode="S" horiz-adv-x="964" d="M53 225l117 68q103 -180 311 -180q138 0 206.5 72t68.5 196q0 64 -18 110t-58 78.5t-84.5 53t-116.5 43.5q-214 65 -301.5 148.5t-87.5 240.5q0 170 107.5 276.5t291.5 106.5q147 0 238.5 -48.5t146.5 -138.5l-114 -77q-42 71 -108.5 105t-168.5 34q-123 0 -190.5 -72.5 t-67.5 -185.5q0 -39 10 -71t32.5 -57.5t47 -44.5t66 -38t76.5 -31.5t90 -30.5q188 -60 268 -148t80 -253q0 -182 -109.5 -288.5t-306.5 -106.5q-156 0 -263 63t-163 176z" />
<glyph unicode="T" horiz-adv-x="821" d="M6 1305v120h807v-120h-336v-1305h-131v1305h-340z" />
<glyph unicode="U" horiz-adv-x="1044" d="M113 399v1026h129v-1026q0 -122 79 -204t201 -82t200.5 76t78.5 208v1028h133v-1028q0 -188 -116.5 -298.5t-295.5 -110.5q-184 0 -296.5 113t-112.5 298z" />
<glyph unicode="V" horiz-adv-x="944" d="M27 1425h135q23 -88 91.5 -364t111.5 -440l102 -404h4q85 366 86 371l221 837h135l-381 -1425h-126q-254 950 -379 1425z" />
<glyph unicode="W" horiz-adv-x="1431" d="M35 1425h135l123 -641l94 -522h6l107 471l159 692h113l164 -704l102 -459h6l89 486l124 677h138l-289 -1425h-123l-160 688q-19 78 -52.5 235.5t-53.5 235.5h-6q-47 -202 -99 -444q-114 -494 -163 -715h-125q-240 1188 -289 1425z" />
<glyph unicode="X" horiz-adv-x="894" d="M12 0l365 735l-342 690h143l271 -569l266 569h145l-344 -690l367 -735h-146l-288 606l-291 -606h-146z" />
<glyph unicode="Y" horiz-adv-x="876" d="M14 1425h138q31 -76 89 -214t78 -187q22 -51 61 -150.5t52 -130.5l139 328l148 354h135l-356 -831v-594h-127v594z" />
<glyph unicode="Z" horiz-adv-x="829" d="M51 0v121l586 1184h-557v120h698v-114l-585 -1186h579v-125h-721z" />
<glyph unicode="[" horiz-adv-x="462" d="M139 -215v1645h289v-89h-172v-1470h172v-86h-289z" />
<glyph unicode="\" horiz-adv-x="530" d="M8 1468h101l407 -1529h-102z" />
<glyph unicode="]" horiz-adv-x="462" d="M59 -129h170v1470h-170v89h285v-1647h-285v88z" />
<glyph unicode="^" d="M45 702l348 719h94l347 -719h-109l-287 601q-8 -19 -141.5 -302.5t-140.5 -298.5h-111z" />
<glyph unicode="_" horiz-adv-x="1021" d="M0 -147h1022v-103h-1022v103z" />
<glyph unicode="`" horiz-adv-x="856" d="M348 1460l129 43l146 -332l-78 -32z" />
<glyph unicode="a" horiz-adv-x="856" d="M70 279q0 138 83.5 223.5t252.5 85.5h225v139q0 83 -51.5 129.5t-151.5 46.5q-156 0 -215 -100q-17 9 -53 33l-45 30q43 75 124.5 116.5t188.5 41.5q334 0 334 -299v-725h-131v84l-6 2q-73 -98 -260 -98q-142 0 -218.5 81t-76.5 210zM190 287q0 -82 54.5 -131.5 t156.5 -49.5q99 0 164.5 46t65.5 143v180h-230q-96 0 -153.5 -47t-57.5 -141z" />
<glyph unicode="b" horiz-adv-x="860" d="M94 0v1485h127v-604h4q92 141 250 141q60 0 107 -15.5t79.5 -40t55.5 -64.5t36.5 -80t21 -96t9.5 -103t2 -109q0 -64 -3 -115.5t-11 -108t-22 -99t-38 -82.5t-56 -65.5t-78.5 -40.5t-104.5 -15q-166 0 -248 129q-1 0 -2 -1t-2 -1v-115h-127zM219 460q0 -19 2 -60 t5.5 -63.5t11 -58.5t18 -56t27.5 -45.5t38.5 -38.5t51 -22.5t65.5 -9.5q55 0 95 20t63.5 53.5t37.5 86.5t18.5 108t4.5 130t-4 127.5t-17 106t-36.5 86t-64 53t-97.5 20.5q-56 0 -97.5 -24.5t-64 -61t-36 -90.5t-17.5 -99.5t-4 -101.5v-60z" />
<glyph unicode="c" horiz-adv-x="776" d="M66 520q0 89 12 163t39.5 138t70 108.5t106.5 69.5t146 25q107 0 183.5 -48t115.5 -134l-108 -64q-22 58 -72 91.5t-117 33.5q-62 0 -107.5 -21.5t-72 -55.5t-42 -86.5t-20.5 -103.5t-5 -118q0 -68 5 -122t20.5 -110t41.5 -94t71 -62t105 -24q67 0 117.5 33t73.5 86 q53 -30 108 -57q-37 -85 -115.5 -132.5t-185.5 -47.5q-89 0 -155 26.5t-106.5 71.5t-65.5 114.5t-34 145.5t-9 174z" />
<glyph unicode="d" horiz-adv-x="860" d="M72 500q0 72 4.5 129t16 120t35 109.5t58 85t89 58.5t124.5 20q145 0 234 -119h4v582h127v-1485h-127v115l-4 2q-82 -129 -248 -129q-80 0 -138 28.5t-91.5 73.5t-52.5 115.5t-25 137.5t-6 157zM201 502q0 -71 4.5 -124.5t18.5 -107t37.5 -87.5t63.5 -55.5t95 -21.5 q35 0 64.5 9.5t50.5 23t37.5 38.5t27 46.5t18 56t11.5 58t6 62.5t2 59v57v4q0 43 -1.5 77.5t-7 75t-14.5 71t-25 60.5t-38 49.5t-54.5 31.5t-72.5 12q-49 0 -86.5 -14.5t-61 -43.5t-39 -63.5t-23.5 -82.5t-10.5 -91t-2.5 -100z" />
<glyph unicode="e" horiz-adv-x="851" d="M76 512q0 512 354 512q178 0 263 -114.5t85 -309.5v-127h-575q0 -88 10.5 -152t36.5 -115.5t74.5 -77.5t119.5 -26q63 0 117 36.5t80 90.5l109 -55q-38 -87 -118.5 -136.5t-180.5 -49.5q-209 0 -292 124.5t-83 399.5zM207 578h442v4q0 76 -9 130.5t-32 99.5t-67 68 t-109 23q-63 0 -107.5 -24t-69 -70t-35.5 -101.5t-13 -129.5z" />
<glyph unicode="f" horiz-adv-x="501" d="M39 905v107h115v233q0 121 61 182.5t168 61.5h96v-119h-84q-64 0 -87 -37t-23 -102v-219h192v-107h-192v-905h-131v905h-115z" />
<glyph unicode="g" horiz-adv-x="888" d="M80 496q0 87 6.5 157t27 142t54 120t91.5 78.5t136 30.5q165 0 248 -131q2 2 4 2v115h127v-1033q0 -191 -90.5 -297t-269.5 -106q-96 0 -172.5 46t-114.5 130l106 62q25 -51 73 -85t112 -34q116 0 172.5 69.5t56.5 194.5v174h-4q-90 -141 -250 -141q-60 0 -107 15 t-79.5 40t-56 64.5t-37 79.5t-21 95t-10 102.5t-2.5 109.5zM211 506q0 -62 2.5 -106t10 -92.5t22 -81t38 -60t59 -40.5t83.5 -13q68 0 114 33t68 91.5t30.5 118t8.5 133.5q0 51 -2.5 91t-9 92t-21.5 89.5t-38 71.5t-60.5 52t-85.5 18q-57 0 -98 -21.5t-64 -55t-36.5 -88 t-17 -106.5t-3.5 -126z" />
<glyph unicode="h" horiz-adv-x="892" d="M102 0v1487h129v-596h5q41 66 109.5 99.5t148.5 33.5q134 0 214 -83.5t80 -225.5v-715h-129v672q0 107 -51 166t-153 59q-99 0 -162.5 -66.5t-63.5 -171.5v-659h-127z" />
<glyph unicode="i" horiz-adv-x="382" d="M125 1272v135h133v-135h-133zM127 0v1012h129v-1012h-129z" />
<glyph unicode="j" horiz-adv-x="403" d="M-20 -303h40q119 3 119 162v1153h131v-1180q0 -112 -59 -182t-172 -70h-59v117zM139 1272v133h133v-133h-133z" />
<glyph unicode="k" horiz-adv-x="874" d="M115 0v1485h127v-1018h2q42 55 209.5 280t197.5 265h148l-285 -381q14 -25 164.5 -297t183.5 -334h-141l-289 528q-21 -27 -100 -134t-90 -122v-272h-127z" />
<glyph unicode="l" horiz-adv-x="432" d="M121 219v1266h129v-1241q0 -69 24.5 -101t85.5 -32h37v-117h-43q-116 0 -175 50t-58 175z" />
<glyph unicode="m" horiz-adv-x="1449" d="M113 0v1008h125v-123h4q84 135 247 135q94 0 163 -40.5t102 -109.5h2q107 150 284 150q133 0 214 -84.5t81 -222.5v-713h-129v633q0 262 -205 262q-104 0 -159.5 -74t-55.5 -198v-623h-127v633q0 262 -208 262q-104 0 -158.5 -76t-54.5 -201v-618h-125z" />
<glyph unicode="n" horiz-adv-x="886" d="M98 0v1012h129v-125h6q42 67 109.5 102t146.5 35q134 0 215.5 -84.5t81.5 -224.5v-715h-129v672q0 105 -55.5 164t-157.5 59q-97 0 -157 -66t-60 -170v-659h-129z" />
<glyph unicode="o" horiz-adv-x="878" d="M82 500q0 223 39 325q38 96 121.5 147.5t201.5 51.5q191 0 281 -143q68 -96 68 -377q0 -82 -10 -175t-27 -143q-36 -104 -122.5 -152t-205.5 -48q-191 0 -274 139q-72 101 -72 375zM209 485q0 -213 49 -286q56 -97 178 -97q71 0 125 35.5t78 104.5q25 66 25 272 q0 190 -31 266q-24 62 -74.5 94.5t-118.5 32.5q-66 0 -117.5 -30t-78.5 -89q-35 -66 -35 -303z" />
<glyph unicode="p" horiz-adv-x="874" d="M92 -412v1422h127v-115l4 -2q83 131 248 131q58 0 105 -15t79.5 -39.5t56 -63.5t37.5 -80.5t22 -97t10.5 -105.5t2.5 -113q0 -71 -4.5 -128.5t-16.5 -120t-35.5 -109t-58.5 -84.5t-89 -58t-123 -20q-142 0 -234 119h-4v-521h-127zM219 508q0 -44 1 -74.5t5.5 -75 t12.5 -75.5t24 -65.5t38 -55t55.5 -35t76.5 -14.5q58 0 100 22.5t65.5 57t37 89.5t17 105t3.5 119q0 73 -4 125t-17 106.5t-36.5 88.5t-64 55.5t-97.5 21.5q-44 0 -79 -14t-57.5 -34t-38.5 -55t-24 -64.5t-12 -75.5t-5 -75.5t-1 -76.5z" />
<glyph unicode="q" horiz-adv-x="886" d="M82 496q0 88 6 156.5t26 141t54 120t92.5 78t138.5 30.5q166 0 248 -129q1 0 2 1t2 1v115h127v-1424h-127v545h-4q-90 -141 -250 -141q-83 0 -142 29t-92 73.5t-52 115.5t-24 135t-5 153zM215 506q0 -50 1.5 -85.5t6.5 -79.5t14 -74.5t25 -61.5t39 -49.5t56.5 -30.5 t76.5 -12q219 0 219 376v60.5t-2 61t-5.5 64t-11 58t-18 56t-27.5 46t-38.5 38.5t-51 22.5t-65.5 9.5q-68 0 -113 -30.5t-67.5 -89.5t-30.5 -123.5t-8 -155.5z" />
<glyph unicode="r" horiz-adv-x="612" d="M125 0v1012h127v-140h6q41 83 105 117.5t153 34.5q49 0 94 -18l-28 -138q-47 21 -97 21q-107 0 -170 -67.5t-63 -190.5v-631h-127z" />
<glyph unicode="s" horiz-adv-x="815" d="M55 186l107 60q70 -144 246 -144q95 0 151.5 45t56.5 134q0 44 -14 74t-47.5 50.5t-64 31.5t-87.5 26q-79 20 -133.5 41.5t-99.5 53.5t-66.5 78t-21.5 107q0 129 87 205t237 76q248 0 323 -186l-111 -56q-58 125 -215 125q-95 0 -144.5 -46t-49.5 -118q0 -29 12.5 -52.5 t30 -38.5t51 -29t60.5 -22.5t73 -20.5q13 -3 19 -5q152 -36 221 -100.5t69 -195.5q0 -134 -89.5 -213.5t-254.5 -79.5q-253 0 -346 200z" />
<glyph unicode="t" horiz-adv-x="499" d="M35 905v107h121v266h129v-266h155v-107h-155v-645q0 -73 25.5 -109t92.5 -36h56v-115h-84q-108 0 -163.5 60.5t-55.5 166.5v678h-121z" />
<glyph unicode="u" horiz-adv-x="901" d="M102 295v717h129v-674q0 -104 57 -165.5t156 -61.5q96 0 157 67.5t61 173.5v660h126v-1012h-126v123h-7q-41 -68 -109 -101.5t-147 -33.5q-135 0 -216 83.5t-81 223.5z" />
<glyph unicode="v" horiz-adv-x="786" d="M14 1012h140q17 -53 68 -234t69 -237q6 -21 51.5 -180t50.5 -175h6q11 36 49 176t50 179q18 56 66.5 235.5t66.5 235.5h139q-40 -116 -157 -510.5t-154 -501.5h-131q-37 107 -155.5 501.5t-158.5 510.5z" />
<glyph unicode="w" horiz-adv-x="1280" d="M16 1010h136l135 -529q17 -68 42 -172l25 -104h8l70 262q14 54 71.5 266t74.5 277h124q83 -300 142 -535q46 -184 71 -276h7l69 270q9 35 66.5 270.5t66.5 270.5h136l-277 -1010h-125l-141 510q-37 150 -78 285h-2l-82 -303l-135 -492h-127z" />
<glyph unicode="x" horiz-adv-x="780" d="M27 0l290 520l-276 492h145l205 -400l203 400h145l-278 -494l293 -518h-144l-219 420l-221 -420h-143z" />
<glyph unicode="y" horiz-adv-x="768" d="M6 1010h137q24 -80 69 -225.5t62 -200.5q12 -40 56 -191.5t57 -191.5h4q27 98 125 428t113 381h133l-375 -1225q-61 -201 -242 -201h-47v111h41q56 0 89.5 38t54.5 115l49 164q-58 173 -165.5 506.5t-160.5 491.5z" />
<glyph unicode="z" horiz-adv-x="739" d="M55 0v113l486 784h-453v113h598v-109l-485 -782h481v-119h-627z" />
<glyph unicode="{" horiz-adv-x="481" d="M45 563v82q141 29 141 285v262q0 106 46.5 170.5t129.5 64.5h95v-88h-56q-100 0 -100 -184v-266q0 -113 -42 -186t-89 -95v-4q51 -17 91 -94t40 -197v-260q0 -33 4.5 -62.5t14.5 -58t31 -45t50 -16.5h56v-86h-95q-79 0 -127.5 58.5t-48.5 156.5v283q0 128 -31 197 t-110 83z" />
<glyph unicode="|" horiz-adv-x="391" d="M147 -332v1798h105v-1798h-105z" />
<glyph unicode="}" horiz-adv-x="481" d="M41 -129h57q55 0 78 54t23 128v281q0 112 40 183t89 89v4q-46 19 -87.5 92.5t-41.5 186.5v266q0 184 -101 184h-57v84h86q86 0 135 -57t49 -156v-280q0 -257 142 -285v-82q-79 -14 -110.5 -83t-31.5 -197v-283q0 -100 -51 -157.5t-131 -57.5h-88v86z" />
<glyph unicode="~" d="M49 504q88 141 223 141q52 0 114.5 -26t120.5 -52t99 -26q39 0 67 21t68 73l82 -57q-93 -154 -219 -154q-50 0 -164.5 54t-169.5 54q-42 0 -71.5 -19.5t-69.5 -66.5z" />
<glyph unicode="&#xa1;" horiz-adv-x="452" d="M158 1135v147h139v-147h-139zM162 -141q0 20 5 453.5t9 609.5h98q13 -978 15 -1063h-127z" />
<glyph unicode="&#xa2;" d="M98 520q0 458 314 500v205h77v-201q100 -4 172.5 -52t108.5 -130q-40 -26 -106 -64q-22 53 -68 87t-107 38v-797q58 4 103.5 37t66.5 82q55 -30 111 -57q-37 -82 -110 -129t-171 -51v-221h-77v225q-75 8 -131 38.5t-90.5 76t-55.5 112t-29 138.5t-8 163zM225 518 q0 -77 7 -137t26 -119.5t58 -97.5t96 -51v784q-57 -12 -95.5 -47t-57.5 -89.5t-26.5 -111.5t-7.5 -131z" />
<glyph unicode="&#xa3;" d="M61 0v106q152 237 152 476q0 7 -1 21.5t-1 21.5h-150v104h134q-10 50 -49.5 177.5t-39.5 197.5q0 143 89 237.5t243 94.5q132 0 228 -63t137 -193l-119 -45q-38 98 -97.5 139t-146.5 41q-81 0 -138.5 -56.5t-57.5 -156.5q0 -62 36.5 -185t47.5 -188h262v-104h-252 q0 -153 -29 -271.5t-96 -236.5h569v-117h-721z" />
<glyph unicode="&#xa4;" horiz-adv-x="1095" d="M111 299l131 127q-78 96 -78 231q0 121 78 234l-129 129l77 78l132 -129q110 78 233 78q119 0 231 -76l127 127q1 0 39.5 -39t38.5 -41l-127 -127q80 -116 80 -234q0 -123 -78 -233l127 -125q0 -2 -38.5 -41t-39.5 -39l-127 127q-110 -80 -233 -80q-125 0 -236 82 l-131 -129q0 1 -38.5 40t-38.5 40zM281 657q0 -113 80.5 -193.5t191.5 -80.5q116 0 196 79.5t80 194.5q0 116 -79.5 195.5t-194.5 79.5q-113 0 -193.5 -80.5t-80.5 -194.5z" />
<glyph unicode="&#xa5;" d="M39 1425h129q26 -71 131.5 -342.5t132.5 -343.5h6q23 63 128.5 336t131.5 350h133l-290 -731h245v-86h-276l-12 -41v-121h288v-86h-288v-360h-123v360h-281v86h281v119q0 13 -10 43h-271v86h238z" />
<glyph unicode="&#xa6;" horiz-adv-x="391" d="M147 -332v852h103v-852h-103zM147 614v852h103v-852h-103z" />
<glyph unicode="&#xa7;" horiz-adv-x="897" d="M100 -29q11 11 35 37.5t39 40.5q107 -96 250 -96q109 0 172 48.5t63 139.5q0 76 -63 133.5t-195 116.5q-160 71 -228.5 139t-68.5 181q0 67 35.5 128t96.5 105q-95 86 -95 201q0 129 90 211t230 82q183 0 311 -113l-76 -88q-105 92 -237 92q-88 0 -141.5 -50t-53.5 -124 q0 -61 42 -102t134 -90q25 -13 72.5 -36.5t76 -38.5t69.5 -39.5t65.5 -48.5t48.5 -56t35.5 -71t11.5 -85q0 -141 -121 -238q84 -97 84 -205q0 -135 -97.5 -218t-262.5 -83q-88 0 -175 35t-147 92zM223 719q0 -46 28.5 -86t77 -70.5t96 -53.5t102.5 -47t79 -38q44 26 70 69.5 t26 90.5v4q0 36 -13 65t-32.5 49t-57.5 43t-71.5 38.5t-92.5 43t-103 50.5q-48 -23 -78.5 -65t-30.5 -93z" />
<glyph unicode="&#xa8;" horiz-adv-x="860" d="M193 1219v139h133v-139h-133zM537 1219v139h129v-139h-129z" />
<glyph unicode="&#xa9;" horiz-adv-x="1531" d="M106 698q0 205 81.5 368.5t233.5 257t349 93.5q196 0 348 -93.5t234 -257t82 -368.5q0 -203 -82 -365t-234 -255.5t-348 -93.5q-199 0 -351 93.5t-232.5 255t-80.5 365.5zM207 698q0 -174 69.5 -316t199 -225t294.5 -83q168 0 297.5 83t197.5 224.5t68 316.5 q0 177 -69 319t-198.5 225t-295.5 83q-169 0 -298.5 -84t-197 -226t-67.5 -317zM512 514v348q0 115 70.5 188.5t191.5 73.5q90 0 156.5 -47.5t87.5 -132.5l-92 -37q-14 55 -54 88t-98 33q-76 0 -119 -47.5t-43 -114.5v-356q0 -69 43 -117.5t119 -48.5q57 0 97.5 33.5 t52.5 89.5l96 -35q-21 -85 -89 -133.5t-157 -48.5q-121 0 -191.5 72.5t-70.5 191.5z" />
<glyph unicode="&#xaa;" horiz-adv-x="589" d="M41 760q0 88 53 146.5t162 58.5h170v79q0 107 -135 107q-91 0 -139 -70l-84 49q31 55 90 86t135 31q114 0 176.5 -46t62.5 -157v-473h-106v66q-65 -74 -178 -74q-101 0 -154 54.5t-53 142.5zM143 764q0 -51 33 -79t98 -28t108.5 29t43.5 88v100h-147q-63 0 -99.5 -27 t-36.5 -83z" />
<glyph unicode="&#xab;" horiz-adv-x="839" d="M96 469l234 373h127l-232 -373l232 -375h-127zM399 469l236 373h125l-230 -373l230 -375h-127z" />
<glyph unicode="&#xac;" d="M41 543v102h788l-2 -465h-100v363h-686z" />
<glyph unicode="&#xad;" horiz-adv-x="733" d="M104 481v115h535v-115h-535z" />
<glyph unicode="&#xae;" horiz-adv-x="1064" d="M125 1006q0 191 112.5 315.5t294.5 124.5q181 0 292.5 -124.5t111.5 -315.5q0 -190 -112 -313.5t-292 -123.5q-182 0 -294.5 123.5t-112.5 313.5zM197 1008q0 -165 92 -270t243 -105q153 0 243.5 106t90.5 269q0 161 -92 268.5t-242 107.5q-153 0 -244 -106.5t-91 -269.5 zM385 743v521h152q77 0 121 -37.5t44 -112.5q0 -48 -23 -85.5t-67 -55.5q38 -81 103 -230h-80l-94 222h-84v-222h-72zM457 1026h82q43 0 67.5 22t24.5 66q0 47 -28 65.5t-83 18.5h-63v-172z" />
<glyph unicode="&#xaf;" horiz-adv-x="856" d="M207 1204v121h489v-121h-489z" />
<glyph unicode="&#xb0;" horiz-adv-x="671" d="M109 1202q0 96 67.5 163t163.5 67t163.5 -67t67.5 -163q0 -97 -67 -164t-164 -67t-164 67t-67 164zM193 1202q0 -62 43.5 -105.5t103.5 -43.5q61 0 103 43t42 106q0 62 -42 105t-103 43q-60 0 -103.5 -43.5t-43.5 -104.5z" />
<glyph unicode="&#xb1;" d="M49 20v103h780v-103h-780zM49 565v101h340v350h98v-350h342v-101h-342v-350h-98v350h-340z" />
<glyph unicode="&#xb2;" horiz-adv-x="552" d="M47 760v86l307 436q43 56 43 129q0 49 -29 81t-89 32q-51 0 -85 -35t-40 -98l-105 14q9 97 72 155t160 58q107 0 166 -54.5t59 -150.5t-62 -182l-270 -375h324v-96h-451z" />
<glyph unicode="&#xb3;" horiz-adv-x="552" d="M47 940l105 12q10 -114 116 -114q129 0 129 168q0 70 -31 108.5t-94 38.5h-61v90h57q123 0 123 137q0 140 -119 140q-48 0 -80.5 -30.5t-41.5 -84.5l-103 16q12 85 73 139t154 54q116 0 170 -61.5t54 -161.5q0 -141 -90 -189q30 -16 50 -37t29 -49.5t12 -54.5t3 -64 q0 -115 -57.5 -182t-178.5 -67q-94 0 -151.5 47.5t-67.5 144.5z" />
<glyph unicode="&#xb4;" horiz-adv-x="856" d="M348 1171l148 332l127 -43l-197 -321z" />
<glyph unicode="&#xb6;" horiz-adv-x="958" d="M74 1071q0 55 9 106t33.5 104.5t62.5 92t101.5 63.5t145.5 25h455v-108h-93v-1520h-108v1520h-158v-1520h-106v864q-159 7 -250.5 113t-91.5 260z" />
<glyph unicode="&#xb7;" horiz-adv-x="378" d="M113 467v168h153v-168h-153z" />
<glyph unicode="&#xb8;" horiz-adv-x="874" d="M260 -381l25 64q58 -27 133 -27q40 0 69 22t29 62q0 41 -34 65.5t-87 24.5h-14l-35 29l55 182q50 -4 72 -4l-43 -139q95 -4 137.5 -52.5t42.5 -105.5q0 -58 -45 -105t-135 -47q-104 0 -170 31z" />
<glyph unicode="&#xb9;" horiz-adv-x="460" d="M90 1415v107l137 92h99v-854h-103v741z" />
<glyph unicode="&#xba;" horiz-adv-x="606" d="M51 901q0 152 39 219q34 62 85 94.5t132 32.5q150 0 213 -112q35 -63 35 -228q0 -148 -31 -219q-28 -63 -87.5 -95t-135.5 -32q-160 0 -217 117q-33 65 -33 223zM156 891q0 -110 26 -164q37 -72 121 -72q89 0 127 78q21 43 21 176q0 101 -19 160q-28 82 -127 82 q-78 0 -115 -55q-34 -46 -34 -205z" />
<glyph unicode="&#xbb;" horiz-adv-x="839" d="M96 94l230 375l-230 373h127l236 -373l-236 -375h-127zM401 94l232 375l-232 373h125l236 -373l-236 -375h-125z" />
<glyph unicode="&#xbc;" horiz-adv-x="1269" d="M109 1227v106l137 92h98v-854h-102v742zM152 -35l755 1497h97l-758 -1497h-94zM647 131v88l258 635h111l-258 -629h225v242h104v-242h74v-94h-74v-131h-104v131h-336z" />
<glyph unicode="&#xbd;" horiz-adv-x="1269" d="M92 1227v106l137 92h99v-854h-103v742zM133 -35l756 1497h96l-758 -1497h-94zM717 0v86l307 436q43 59 43 131q0 48 -29.5 80.5t-89.5 32.5q-51 0 -85 -36t-40 -99l-104 16q9 96 72 153.5t159 57.5q107 0 166.5 -54.5t59.5 -150.5q0 -93 -62 -182l-270 -375h323v-96h-450 z" />
<glyph unicode="&#xbe;" horiz-adv-x="1269" d="M55 756l105 12q10 -115 116 -115q130 0 130 168q0 70 -31 109t-94 39h-62v90h57q123 0 123 137q0 139 -118 139q-48 0 -81 -30.5t-42 -83.5l-103 16q12 85 73.5 139t154.5 54q116 0 169.5 -61.5t53.5 -162.5q0 -140 -90 -188q30 -16 50 -37t29 -49.5t12 -54.5t3 -64 q0 -115 -57.5 -182.5t-178.5 -67.5q-94 0 -151.5 48t-67.5 145zM231 -35l756 1497h96l-757 -1497h-95zM700 131v88l258 635h111l-258 -629h225v242h105v-242h73v-94h-73v-131h-105v131h-336z" />
<glyph unicode="&#xbf;" horiz-adv-x="847" d="M117 -82q1 85 27.5 148t80.5 143q15 22 53 72.5t58 80.5t38.5 75t18.5 85v133h129v-118q0 -115 -65 -215q-23 -36 -87 -121.5t-91 -140.5t-27 -111q0 -38 5.5 -71.5t20.5 -68.5t39 -60t64.5 -40.5t93.5 -15.5q97 0 161 71.5t69 165.5l131 -18q-24 -165 -125 -253.5 t-244 -88.5q-168 0 -259 95t-91 253zM389 856v148h139v-148h-139z" />
<glyph unicode="&#xc0;" horiz-adv-x="1001" d="M20 0l416 1425h129l416 -1425h-137l-96 342h-496l-96 -342h-136zM178 1706l96 100l289 -235l-59 -66zM281 461h436l-125 440l-88 332h-8q-46 -188 -88 -332q-105 -366 -127 -440z" />
<glyph unicode="&#xc1;" horiz-adv-x="1001" d="M20 0l416 1425h129l416 -1425h-137l-96 342h-496l-96 -342h-136zM281 461h436l-125 440l-88 332h-8q-46 -188 -88 -332q-105 -366 -127 -440zM442 1552l285 230l90 -99l-319 -194z" />
<glyph unicode="&#xc2;" horiz-adv-x="1001" d="M20 0l416 1425h129l416 -1425h-137l-96 342h-496l-96 -342h-136zM193 1554l270 234h86l258 -232l-51 -55l-256 164l-256 -164zM281 461h436l-125 440l-88 332h-8q-46 -188 -88 -332q-105 -366 -127 -440z" />
<glyph unicode="&#xc3;" horiz-adv-x="1001" d="M20 0l416 1425h129l416 -1425h-137l-96 342h-496l-96 -342h-136zM184 1591q35 67 84.5 107.5t102.5 40.5q44 0 126.5 -42t120.5 -42q56 0 113 84l74 -45q-72 -150 -182 -150q-45 0 -129 41t-119 41q-57 0 -117 -76zM281 461h436l-125 440l-88 332h-8q-46 -188 -88 -332 q-105 -366 -127 -440z" />
<glyph unicode="&#xc4;" horiz-adv-x="1001" d="M20 0l416 1425h129l416 -1425h-137l-96 342h-496l-96 -342h-136zM262 1532v137h133v-137h-133zM281 461h436l-125 440l-88 332h-8q-46 -188 -88 -332q-105 -366 -127 -440zM600 1532v137h131v-137h-131z" />
<glyph unicode="&#xc5;" horiz-adv-x="1001" d="M20 0l416 1425h129l416 -1425h-137l-96 342h-496l-96 -342h-136zM281 461h436l-125 440l-88 332h-8q-46 -188 -88 -332q-105 -366 -127 -440zM322 1645q0 72 51.5 124t124.5 52q69 0 119.5 -52t50.5 -124q0 -69 -50.5 -119.5t-119.5 -50.5q-73 0 -124.5 50.5t-51.5 119.5 zM391 1645q0 -40 31.5 -69.5t75.5 -29.5q41 0 71.5 29.5t30.5 69.5q0 44 -30 74t-72 30q-45 0 -76 -30t-31 -74z" />
<glyph unicode="&#xc6;" horiz-adv-x="1611" d="M10 0q121 237 731 1425h805v-122h-608v-519h524v-118h-524v-541h608v-125h-739v389h-459l-201 -389h-137zM408 508h399v772l-8 2q-262 -516 -391 -774z" />
<glyph unicode="&#xc7;" horiz-adv-x="948" d="M102 403v619q0 183 110.5 298.5t299.5 115.5q143 0 247.5 -72t139.5 -201l-127 -47q-20 91 -89 143t-171 52q-128 0 -203.5 -82t-75.5 -205v-625q0 -124 76 -206t203 -82q101 0 170 52t92 148l125 -45q-30 -127 -127.5 -198.5t-234.5 -77.5l-27 -92q95 -4 137.5 -52.5 t42.5 -105.5q0 -58 -45 -105t-135 -47q-104 0 -170 31l25 64q58 -27 133 -27q40 0 69 22t29 62q0 41 -34 65.5t-87 24.5h-14l-35 29l39 131q-168 13 -265.5 125.5t-97.5 287.5z" />
<glyph unicode="&#xc8;" horiz-adv-x="919" d="M133 0v1425h741v-122h-610v-519h524v-118h-524v-539h610v-127h-741zM203 1706l96 100l289 -235l-60 -66z" />
<glyph unicode="&#xc9;" horiz-adv-x="919" d="M133 0v1425h741v-122h-610v-519h524v-118h-524v-539h610v-127h-741zM362 1552l285 230l90 -99l-319 -194z" />
<glyph unicode="&#xca;" horiz-adv-x="919" d="M133 0v1425h741v-122h-610v-519h524v-118h-524v-539h610v-127h-741zM193 1554l270 234h86l258 -232l-51 -55l-256 164l-256 -164z" />
<glyph unicode="&#xcb;" horiz-adv-x="919" d="M133 0v1425h741v-122h-610v-519h524v-118h-524v-539h610v-127h-741zM268 1567v139h133v-139h-133zM612 1567v139h129v-139h-129z" />
<glyph unicode="&#xcc;" horiz-adv-x="421" d="M-102 1706l96 100l289 -235l-60 -66zM143 0v1425h133v-1425h-133z" />
<glyph unicode="&#xcd;" horiz-adv-x="421" d="M143 0v1425h133v-1425h-133zM154 1552l284 230l90 -99l-319 -194z" />
<glyph unicode="&#xce;" horiz-adv-x="421" d="M-102 1554l270 234h86l258 -232l-51 -55l-256 164l-256 -164zM143 0v1425h133v-1425h-133z" />
<glyph unicode="&#xcf;" horiz-adv-x="421" d="M-29 1567v139h133v-139h-133zM143 0v1425h133v-1425h-133zM315 1567v139h129v-139h-129z" />
<glyph unicode="&#xd0;" horiz-adv-x="1052" d="M14 690v101h117v634h399q294 0 383 -225q22 -63 28.5 -157.5t6.5 -256.5v-235q0 -227 -33 -313q-26 -67 -68 -114.5t-97.5 -74t-116.5 -38t-135 -11.5h-367v690h-117zM264 121h246q223 0 283 174q24 65 24 160v485q0 121 -22 188q-26 86 -99 131.5t-186 45.5h-246v-514 h268v-101h-268v-569z" />
<glyph unicode="&#xd1;" horiz-adv-x="1136" d="M131 0v1425h129q9 -16 186.5 -348t219.5 -405l202 -383l9 2v1134h131v-1425h-129l-410 762q-61 111 -201 377h-4v-1139h-133zM256 1577q35 67 84 107t102 40q44 0 127 -42t121 -42q56 0 113 84l74 -45q-72 -149 -183 -149q-44 0 -128.5 41t-119.5 41q-56 0 -116 -76z" />
<glyph unicode="&#xd2;" horiz-adv-x="1005" d="M90 424v600q0 80 25 152t73.5 131t130 94t185.5 35q191 0 300 -119.5t109 -292.5v-616q0 -188 -113 -304t-296 -116q-103 0 -183.5 34t-130 93.5t-75 138t-25.5 170.5zM221 422q0 -139 73.5 -226t211.5 -87q117 0 194.5 82t77.5 206v625q0 50 -15.5 99t-47 92.5 t-86.5 70.5t-125 27q-93 0 -159 -44t-95 -108t-29 -137v-600zM227 1706l97 100l288 -235l-59 -66z" />
<glyph unicode="&#xd3;" horiz-adv-x="1005" d="M90 424v600q0 80 25 152t73.5 131t130 94t185.5 35q191 0 300 -119.5t109 -292.5v-616q0 -188 -113 -304t-296 -116q-103 0 -183.5 34t-130 93.5t-75 138t-25.5 170.5zM221 422q0 -139 73.5 -226t211.5 -87q117 0 194.5 82t77.5 206v625q0 50 -15.5 99t-47 92.5 t-86.5 70.5t-125 27q-93 0 -159 -44t-95 -108t-29 -137v-600zM418 1552l284 230l91 -99l-320 -194z" />
<glyph unicode="&#xd4;" horiz-adv-x="1005" d="M90 424v600q0 80 25 152t73.5 131t130 94t185.5 35q191 0 300 -119.5t109 -292.5v-616q0 -188 -113 -304t-296 -116q-103 0 -183.5 34t-130 93.5t-75 138t-25.5 170.5zM193 1554l270 234h86l258 -232l-51 -55l-256 164l-256 -164zM221 422q0 -139 73.5 -226t211.5 -87 q117 0 194.5 82t77.5 206v625q0 50 -15.5 99t-47 92.5t-86.5 70.5t-125 27q-93 0 -159 -44t-95 -108t-29 -137v-600z" />
<glyph unicode="&#xd5;" horiz-adv-x="1005" d="M90 424v600q0 80 25 152t73.5 131t130 94t185.5 35q191 0 300 -119.5t109 -292.5v-616q0 -188 -113 -304t-296 -116q-103 0 -183.5 34t-130 93.5t-75 138t-25.5 170.5zM188 1591q35 67 84.5 107.5t102.5 40.5q44 0 127 -42t121 -42q55 0 112 84l74 -45 q-72 -150 -182 -150q-45 0 -129 41t-119 41q-57 0 -117 -76zM221 422q0 -139 73.5 -226t211.5 -87q117 0 194.5 82t77.5 206v625q0 50 -15.5 99t-47 92.5t-86.5 70.5t-125 27q-93 0 -159 -44t-95 -108t-29 -137v-600z" />
<glyph unicode="&#xd6;" horiz-adv-x="1005" d="M90 424v600q0 80 25 152t73.5 131t130 94t185.5 35q191 0 300 -119.5t109 -292.5v-616q0 -188 -113 -304t-296 -116q-103 0 -183.5 34t-130 93.5t-75 138t-25.5 170.5zM221 422q0 -139 73.5 -226t211.5 -87q117 0 194.5 82t77.5 206v625q0 50 -15.5 99t-47 92.5 t-86.5 70.5t-125 27q-93 0 -159 -44t-95 -108t-29 -137v-600zM258 1532v137h133v-137h-133zM596 1532v137h131v-137h-131z" />
<glyph unicode="&#xd7;" horiz-adv-x="944" d="M109 276l305 306l-293 292l69 72l293 -293l301 303l72 -71l-303 -303l297 -295l-72 -72l-295 295l-305 -303z" />
<glyph unicode="&#xd8;" horiz-adv-x="1005" d="M80 29l76 135q-66 109 -66 260v600q0 80 25 152t73.5 131t130 94t185.5 35q177 0 287 -107l61 109l66 -39l-74 -133q69 -107 69 -242v-616q0 -188 -113 -304t-296 -116q-192 0 -301 112l-62 -110q-47 28 -61 39zM221 422q0 -62 15 -111q67 123 232 425.5t255 465.5 q-77 109 -219 109q-93 0 -159 -44t-95 -108t-29 -137v-600zM270 225q76 -116 236 -116q117 0 194.5 82t77.5 206v625q0 50 -14 96q-94 -172 -268.5 -486.5t-225.5 -406.5z" />
<glyph unicode="&#xd9;" horiz-adv-x="1044" d="M113 399v1026h129v-1026q0 -122 79 -204t201 -82t200.5 76t78.5 208v1028h133v-1028q0 -188 -116.5 -298.5t-295.5 -110.5q-184 0 -296.5 113t-112.5 298zM254 1706l96 100l289 -235l-59 -66z" />
<glyph unicode="&#xda;" horiz-adv-x="1044" d="M113 399v1026h129v-1026q0 -122 79 -204t201 -82t200.5 76t78.5 208v1028h133v-1028q0 -188 -116.5 -298.5t-295.5 -110.5q-184 0 -296.5 113t-112.5 298zM395 1552l285 230l90 -99l-319 -194z" />
<glyph unicode="&#xdb;" horiz-adv-x="1044" d="M113 399v1026h129v-1026q0 -122 79 -204t201 -82t200.5 76t78.5 208v1028h133v-1028q0 -188 -116.5 -298.5t-295.5 -110.5q-184 0 -296.5 113t-112.5 298zM217 1554l270 234h86l258 -232l-51 -55l-256 164l-256 -164z" />
<glyph unicode="&#xdc;" horiz-adv-x="1044" d="M113 399v1026h129v-1026q0 -122 79 -204t201 -82t200.5 76t78.5 208v1028h133v-1028q0 -188 -116.5 -298.5t-295.5 -110.5q-184 0 -296.5 113t-112.5 298zM293 1532v137h133v-137h-133zM631 1532v137h131v-137h-131z" />
<glyph unicode="&#xdd;" horiz-adv-x="876" d="M14 1425h138q31 -76 89 -214t78 -187q22 -51 61 -150.5t52 -130.5l139 328l148 354h135l-356 -831v-594h-127v594zM328 1552l284 230l90 -99l-319 -194z" />
<glyph unicode="&#xde;" horiz-adv-x="978" d="M133 0v1466h133l-4 -317h270q196 0 302 -105.5t106 -312.5q0 -85 -22.5 -158t-68.5 -132.5t-125.5 -93.5t-184.5 -34h-277l4 -313h-133zM262 436h268q75 0 130 23t86.5 65t46 94t14.5 115q0 138 -70 214.5t-209 76.5h-266v-588z" />
<glyph unicode="&#xdf;" horiz-adv-x="901" d="M109 0v1100q0 182 84 284.5t251 102.5q156 0 240 -92t84 -244q0 -226 -143 -287v-2q58 -22 95.5 -61t54.5 -95.5t22.5 -109t5.5 -129.5q0 -79 -6.5 -141t-27 -127t-54.5 -108.5t-93 -71t-139 -27.5h-63v104h43q42 0 75.5 12t55 30.5t37 49.5t23.5 59t12 70t5 71t1 73 q0 52 -3 91t-11 80t-24.5 70t-40.5 52.5t-61 35t-86 11.5v110h19q48 0 83.5 20t54.5 54t27.5 71.5t8.5 80.5q0 105 -50.5 170t-150.5 65q-50 0 -87.5 -16.5t-59 -42t-34.5 -63t-17 -72t-4 -76.5v-1102h-127z" />
<glyph unicode="&#xe0;" horiz-adv-x="856" d="M70 279q0 138 83.5 223.5t252.5 85.5h225v139q0 83 -51.5 129.5t-151.5 46.5q-156 0 -215 -100q-17 9 -53 33l-45 30q43 75 124.5 116.5t188.5 41.5q334 0 334 -299v-725h-131v84l-6 2q-73 -98 -260 -98q-142 0 -218.5 81t-76.5 210zM190 287q0 -82 54.5 -131.5 t156.5 -49.5q99 0 164.5 46t65.5 143v180h-230q-96 0 -153.5 -47t-57.5 -141zM246 1460l129 43l145 -332l-78 -32z" />
<glyph unicode="&#xe1;" horiz-adv-x="856" d="M70 279q0 138 83.5 223.5t252.5 85.5h225v139q0 83 -51.5 129.5t-151.5 46.5q-156 0 -215 -100q-17 9 -53 33l-45 30q43 75 124.5 116.5t188.5 41.5q334 0 334 -299v-725h-131v84l-6 2q-73 -98 -260 -98q-142 0 -218.5 81t-76.5 210zM190 287q0 -82 54.5 -131.5 t156.5 -49.5q99 0 164.5 46t65.5 143v180h-230q-96 0 -153.5 -47t-57.5 -141zM414 1171l147 332l127 -43l-196 -321z" />
<glyph unicode="&#xe2;" horiz-adv-x="856" d="M70 279q0 138 83.5 223.5t252.5 85.5h225v139q0 83 -51.5 129.5t-151.5 46.5q-156 0 -215 -100q-17 9 -53 33l-45 30q43 75 124.5 116.5t188.5 41.5q334 0 334 -299v-725h-131v84l-6 2q-73 -98 -260 -98q-142 0 -218.5 81t-76.5 210zM129 1186l270 274h86l258 -270 l-59 -55l-248 200l-248 -202zM190 287q0 -82 54.5 -131.5t156.5 -49.5q99 0 164.5 46t65.5 143v180h-230q-96 0 -153.5 -47t-57.5 -141z" />
<glyph unicode="&#xe3;" horiz-adv-x="856" d="M70 279q0 138 83.5 223.5t252.5 85.5h225v139q0 83 -51.5 129.5t-151.5 46.5q-156 0 -215 -100q-17 9 -53 33l-45 30q43 75 124.5 116.5t188.5 41.5q334 0 334 -299v-725h-131v84l-6 2q-73 -98 -260 -98q-142 0 -218.5 81t-76.5 210zM133 1243q35 67 84.5 107.5 t101.5 40.5q44 0 127 -42t121 -42q56 0 113 84l74 -45q-72 -150 -183 -150q-45 0 -128 41t-119 41q-57 0 -117 -76zM190 287q0 -82 54.5 -131.5t156.5 -49.5q99 0 164.5 46t65.5 143v180h-230q-96 0 -153.5 -47t-57.5 -141z" />
<glyph unicode="&#xe4;" horiz-adv-x="856" d="M70 279q0 138 83.5 223.5t252.5 85.5h225v139q0 83 -51.5 129.5t-151.5 46.5q-156 0 -215 -100q-17 9 -53 33l-45 30q43 75 124.5 116.5t188.5 41.5q334 0 334 -299v-725h-131v84l-6 2q-73 -98 -260 -98q-142 0 -218.5 81t-76.5 210zM190 287q0 -82 54.5 -131.5 t156.5 -49.5q99 0 164.5 46t65.5 143v180h-230q-96 0 -153.5 -47t-57.5 -141zM199 1219v139h133v-139h-133zM543 1219v139h129v-139h-129z" />
<glyph unicode="&#xe5;" horiz-adv-x="856" d="M70 279q0 138 83.5 223.5t252.5 85.5h225v139q0 83 -51.5 129.5t-151.5 46.5q-156 0 -215 -100q-17 9 -53 33l-45 30q43 75 124.5 116.5t188.5 41.5q334 0 334 -299v-725h-131v84l-6 2q-73 -98 -260 -98q-142 0 -218.5 81t-76.5 210zM190 287q0 -82 54.5 -131.5 t156.5 -49.5q99 0 164.5 46t65.5 143v180h-230q-96 0 -153.5 -47t-57.5 -141zM266 1300q0 72 51.5 124.5t124.5 52.5q69 0 119.5 -52.5t50.5 -124.5q0 -69 -50.5 -119.5t-119.5 -50.5q-73 0 -124.5 50.5t-51.5 119.5zM336 1300q0 -40 31 -69t75 -29q41 0 72 29t31 69 q0 44 -30.5 74.5t-72.5 30.5q-44 0 -75 -30.5t-31 -74.5z" />
<glyph unicode="&#xe6;" horiz-adv-x="1413" d="M68 276q0 146 88 229t256 83h219v139q0 84 -51.5 130t-153.5 46q-155 0 -213 -100q-36 22 -98 65q45 75 127 115.5t182 40.5q225 0 299 -137q82 137 266 137q73 0 131.5 -20.5t98.5 -57.5t67 -90t39 -116t12 -138v-127h-573q0 -51 3.5 -93.5t12.5 -87t26.5 -78t43 -60.5 t65 -41.5t89.5 -14.5q63 0 114.5 32t81.5 85l103 -57q-40 -85 -117 -128.5t-176 -43.5q-234 0 -314 166q-130 -166 -334 -166q-140 0 -217 80t-77 208zM190 285q0 -82 54 -130.5t157 -48.5q106 0 168 55t62 150v164h-230q-92 0 -151.5 -44.5t-59.5 -145.5zM768 582h442 q0 70 -11.5 126.5t-36 101t-68 69t-103.5 24.5q-50 0 -88.5 -16.5t-63 -44.5t-40.5 -69.5t-23 -87.5t-8 -103z" />
<glyph unicode="&#xe7;" horiz-adv-x="776" d="M66 520q0 89 12 163t39.5 138t70 108.5t106.5 69.5t146 25q107 0 183.5 -48t115.5 -134l-108 -64q-22 58 -72 91.5t-117 33.5q-62 0 -107.5 -21.5t-72 -55.5t-42 -86.5t-20.5 -103.5t-5 -118q0 -68 5 -122t20.5 -110t41.5 -94t71 -62t105 -24q67 0 117.5 33t73.5 86 q53 -30 108 -57q-35 -82 -107.5 -129t-172.5 -51l-27 -90q95 -4 137.5 -52.5t42.5 -105.5q0 -58 -45 -105t-135 -47q-104 0 -170 31l25 64q58 -27 133 -27q40 0 69 22t29 62q0 41 -34 65.5t-87 24.5h-14l-35 29l39 133q-76 7 -132.5 36.5t-92 75t-57 112.5t-29.5 139t-8 165 z" />
<glyph unicode="&#xe8;" horiz-adv-x="851" d="M76 512q0 512 354 512q178 0 263 -114.5t85 -309.5v-127h-575q0 -88 10.5 -152t36.5 -115.5t74.5 -77.5t119.5 -26q63 0 117 36.5t80 90.5l109 -55q-38 -87 -118.5 -136.5t-180.5 -49.5q-209 0 -292 124.5t-83 399.5zM207 578h442v4q0 76 -9 130.5t-32 99.5t-67 68 t-109 23q-63 0 -107.5 -24t-69 -70t-35.5 -101.5t-13 -129.5zM240 1460l129 43l145 -332l-78 -32z" />
<glyph unicode="&#xe9;" horiz-adv-x="851" d="M76 512q0 512 354 512q178 0 263 -114.5t85 -309.5v-127h-575q0 -88 10.5 -152t36.5 -115.5t74.5 -77.5t119.5 -26q63 0 117 36.5t80 90.5l109 -55q-38 -87 -118.5 -136.5t-180.5 -49.5q-209 0 -292 124.5t-83 399.5zM207 578h442v4q0 76 -9 130.5t-32 99.5t-67 68 t-109 23q-63 0 -107.5 -24t-69 -70t-35.5 -101.5t-13 -129.5zM358 1171l148 332l127 -43l-197 -321z" />
<glyph unicode="&#xea;" horiz-adv-x="851" d="M76 512q0 512 354 512q178 0 263 -114.5t85 -309.5v-127h-575q0 -88 10.5 -152t36.5 -115.5t74.5 -77.5t119.5 -26q63 0 117 36.5t80 90.5l109 -55q-38 -87 -118.5 -136.5t-180.5 -49.5q-209 0 -292 124.5t-83 399.5zM131 1186l270 274h86l258 -270l-59 -55l-248 200 l-248 -202zM207 578h442v4q0 76 -9 130.5t-32 99.5t-67 68t-109 23q-63 0 -107.5 -24t-69 -70t-35.5 -101.5t-13 -129.5z" />
<glyph unicode="&#xeb;" horiz-adv-x="851" d="M76 512q0 512 354 512q178 0 263 -114.5t85 -309.5v-127h-575q0 -88 10.5 -152t36.5 -115.5t74.5 -77.5t119.5 -26q63 0 117 36.5t80 90.5l109 -55q-38 -87 -118.5 -136.5t-180.5 -49.5q-209 0 -292 124.5t-83 399.5zM195 1219v139h133v-139h-133zM207 578h442v4 q0 76 -9 130.5t-32 99.5t-67 68t-109 23q-63 0 -107.5 -24t-69 -70t-35.5 -101.5t-13 -129.5zM539 1219v139h129v-139h-129z" />
<glyph unicode="&#xec;" horiz-adv-x="382" d="M-41 1460l129 43l145 -332l-77 -32zM127 0v1012h129v-1012h-129z" />
<glyph unicode="&#xed;" horiz-adv-x="382" d="M127 0v1012h129v-1012h-129zM131 1171l148 332l127 -43l-197 -321z" />
<glyph unicode="&#xee;" horiz-adv-x="532" d="M-41 1186l270 274h86l258 -270l-59 -55l-248 200l-248 -202zM199 0v1012h129v-1012h-129z" />
<glyph unicode="&#xef;" horiz-adv-x="411" d="M-31 1219v139h133v-139h-133zM141 0v1012h129v-1012h-129zM313 1219v139h129v-139h-129z" />
<glyph unicode="&#xf0;" horiz-adv-x="886" d="M74 461q0 196 41 299q36 95 117 150t192 55q66 0 135 -32t107 -97h6q-4 239 -66 338l-143 -103l-43 59l145 107q-80 106 -272 135l18 115q78 -10 137 -28t100 -44.5t64 -47.5t52 -54l139 100l47 -59l-143 -105q13 -24 23.5 -51.5t18.5 -50.5t14.5 -57.5t10.5 -54.5 t8 -61.5t5.5 -58.5t3.5 -65.5t2.5 -63t2 -70t1.5 -67.5q-1 -199 -15 -302t-47 -175q-83 -184 -317 -184q-130 0 -209 57q-72 54 -103.5 156.5t-31.5 259.5zM201 467q0 -138 21 -214.5t73 -115.5q51 -39 131 -39q143 0 195 121q41 89 41 270q0 163 -39 246q-55 115 -193 115 q-127 0 -182 -102q-44 -81 -47 -281z" />
<glyph unicode="&#xf1;" horiz-adv-x="886" d="M98 0v1012h129v-125h6q42 67 109.5 102t146.5 35q134 0 215.5 -84.5t81.5 -224.5v-715h-129v672q0 105 -55.5 164t-157.5 59q-97 0 -157 -66t-60 -170v-659h-129zM111 1243q35 67 84.5 107.5t101.5 40.5q44 0 127 -42t121 -42q55 0 112 84l74 -45q-72 -150 -182 -150 q-45 0 -129 41t-119 41q-57 0 -117 -76z" />
<glyph unicode="&#xf2;" horiz-adv-x="878" d="M82 500q0 223 39 325q38 96 121.5 147.5t201.5 51.5q191 0 281 -143q68 -96 68 -377q0 -82 -10 -175t-27 -143q-36 -104 -122.5 -152t-205.5 -48q-191 0 -274 139q-72 101 -72 375zM209 485q0 -213 49 -286q56 -97 178 -97q71 0 125 35.5t78 104.5q25 66 25 272 q0 190 -31 266q-24 62 -74.5 94.5t-118.5 32.5q-66 0 -117.5 -30t-78.5 -89q-35 -66 -35 -303zM221 1460l129 43l146 -332l-78 -32z" />
<glyph unicode="&#xf3;" horiz-adv-x="878" d="M82 500q0 223 39 325q38 96 121.5 147.5t201.5 51.5q191 0 281 -143q68 -96 68 -377q0 -82 -10 -175t-27 -143q-36 -104 -122.5 -152t-205.5 -48q-191 0 -274 139q-72 101 -72 375zM209 485q0 -213 49 -286q56 -97 178 -97q71 0 125 35.5t78 104.5q25 66 25 272 q0 190 -31 266q-24 62 -74.5 94.5t-118.5 32.5q-66 0 -117.5 -30t-78.5 -89q-35 -66 -35 -303zM362 1171l148 332l127 -43l-197 -321z" />
<glyph unicode="&#xf4;" horiz-adv-x="878" d="M82 500q0 223 39 325q38 96 121.5 147.5t201.5 51.5q191 0 281 -143q68 -96 68 -377q0 -82 -10 -175t-27 -143q-36 -104 -122.5 -152t-205.5 -48q-191 0 -274 139q-72 101 -72 375zM131 1186l270 274h86l258 -270l-59 -55l-248 200l-248 -202zM209 485q0 -213 49 -286 q56 -97 178 -97q71 0 125 35.5t78 104.5q25 66 25 272q0 190 -31 266q-24 62 -74.5 94.5t-118.5 32.5q-66 0 -117.5 -30t-78.5 -89q-35 -66 -35 -303z" />
<glyph unicode="&#xf5;" horiz-adv-x="878" d="M82 500q0 223 39 325q38 96 121.5 147.5t201.5 51.5q191 0 281 -143q68 -96 68 -377q0 -82 -10 -175t-27 -143q-36 -104 -122.5 -152t-205.5 -48q-191 0 -274 139q-72 101 -72 375zM129 1243q35 67 84.5 107.5t101.5 40.5q44 0 127 -42t121 -42q56 0 113 84l74 -45 q-72 -150 -183 -150q-45 0 -129 41t-119 41q-56 0 -116 -76zM209 485q0 -213 49 -286q56 -97 178 -97q71 0 125 35.5t78 104.5q25 66 25 272q0 190 -31 266q-24 62 -74.5 94.5t-118.5 32.5q-66 0 -117.5 -30t-78.5 -89q-35 -66 -35 -303z" />
<glyph unicode="&#xf6;" horiz-adv-x="878" d="M82 500q0 223 39 325q38 96 121.5 147.5t201.5 51.5q191 0 281 -143q68 -96 68 -377q0 -82 -10 -175t-27 -143q-36 -104 -122.5 -152t-205.5 -48q-191 0 -274 139q-72 101 -72 375zM199 1219v139h133v-139h-133zM209 485q0 -213 49 -286q56 -97 178 -97q71 0 125 35.5 t78 104.5q25 66 25 272q0 190 -31 266q-24 62 -74.5 94.5t-118.5 32.5q-66 0 -117.5 -30t-78.5 -89q-35 -66 -35 -303zM543 1219v139h129v-139h-129z" />
<glyph unicode="&#xf7;" d="M41 543v102h793v-102h-793zM346 256q0 39 27.5 66.5t66.5 27.5q38 0 66.5 -27.5t28.5 -66.5t-28 -66.5t-67 -27.5q-40 0 -67 27t-27 67zM346 930q0 38 28 65t66 27q37 0 66 -27t29 -65t-28.5 -66t-66.5 -28q-39 0 -66.5 27.5t-27.5 66.5z" />
<glyph unicode="&#xf8;" horiz-adv-x="878" d="M82 43l63 94q-63 102 -63 363q0 223 39 325q38 96 121.5 147.5t201.5 51.5q146 0 236 -90l61 90l66 -45l-76 -111q62 -102 62 -364q0 -82 -10 -175t-27 -143q-36 -104 -122.5 -152t-205.5 -48q-149 0 -235 86l-50 -74zM209 485q0 -144 20 -223l379 563q-60 82 -168 82 q-66 0 -117.5 -30t-78.5 -89q-35 -66 -35 -303zM268 182q55 -80 168 -80q71 0 125 35.5t78 104.5q25 66 25 272q0 141 -19 225z" />
<glyph unicode="&#xf9;" horiz-adv-x="901" d="M102 295v717h129v-674q0 -104 57 -165.5t156 -61.5q96 0 157 67.5t61 173.5v660h126v-1012h-126v123h-7q-41 -68 -109 -101.5t-147 -33.5q-135 0 -216 83.5t-81 223.5zM244 1460l129 43l145 -332l-78 -32z" />
<glyph unicode="&#xfa;" horiz-adv-x="901" d="M102 295v717h129v-674q0 -104 57 -165.5t156 -61.5q96 0 157 67.5t61 173.5v660h126v-1012h-126v123h-7q-41 -68 -109 -101.5t-147 -33.5q-135 0 -216 83.5t-81 223.5zM373 1171l147 332l127 -43l-196 -321z" />
<glyph unicode="&#xfb;" horiz-adv-x="901" d="M102 295v717h129v-674q0 -104 57 -165.5t156 -61.5q96 0 157 67.5t61 173.5v660h126v-1012h-126v123h-7q-41 -68 -109 -101.5t-147 -33.5q-135 0 -216 83.5t-81 223.5zM137 1186l271 274h86l258 -270l-60 -55l-248 200l-247 -202z" />
<glyph unicode="&#xfc;" horiz-adv-x="901" d="M102 295v717h129v-674q0 -104 57 -165.5t156 -61.5q96 0 157 67.5t61 173.5v660h126v-1012h-126v123h-7q-41 -68 -109 -101.5t-147 -33.5q-135 0 -216 83.5t-81 223.5zM199 1219v139h133v-139h-133zM543 1219v139h129v-139h-129z" />
<glyph unicode="&#xfd;" horiz-adv-x="768" d="M6 1010h137q24 -80 69 -225.5t62 -200.5q12 -40 56 -191.5t57 -191.5h4q27 98 125 428t113 381h133l-375 -1225q-61 -201 -242 -201h-47v111h41q56 0 89.5 38t54.5 115l49 164q-58 173 -165.5 506.5t-160.5 491.5zM330 1171l147 332l127 -43l-196 -321z" />
<glyph unicode="&#xfe;" horiz-adv-x="874" d="M92 -412v1844h127v-537l4 -2q83 131 248 131q58 0 105 -15t79.5 -39.5t56 -63.5t37.5 -80.5t22 -97t10.5 -105.5t2.5 -113q0 -71 -4.5 -128.5t-16.5 -120t-35.5 -109t-58.5 -84.5t-89 -58t-123 -20q-142 0 -234 119h-4v-521h-127zM219 508q0 -44 1 -74.5t5.5 -75 t12.5 -75.5t24 -65.5t38 -55t55.5 -35t76.5 -14.5q58 0 100 22.5t65.5 57t37 89.5t17 105t3.5 119q0 73 -4 125t-17 106.5t-36.5 88.5t-64 55.5t-97.5 21.5q-44 0 -79 -14t-57.5 -34t-38.5 -55t-24 -64.5t-12 -75.5t-5 -75.5t-1 -76.5z" />
<glyph unicode="&#xff;" horiz-adv-x="768" d="M6 1010h137q24 -80 69 -225.5t62 -200.5q12 -40 56 -191.5t57 -191.5h4q27 98 125 428t113 381h133l-375 -1225q-61 -201 -242 -201h-47v111h41q56 0 89.5 38t54.5 115l49 164q-58 173 -165.5 506.5t-160.5 491.5zM158 1219v139h133v-139h-133zM502 1219v139h129v-139 h-129z" />
<glyph unicode="&#x100;" horiz-adv-x="1001" d="M20 0l416 1425h129l416 -1425h-137l-96 342h-496l-96 -342h-136zM256 1559v118h489v-118h-489zM281 461h436l-125 440l-88 332h-8q-46 -188 -88 -332q-105 -366 -127 -440z" />
<glyph unicode="&#x101;" horiz-adv-x="856" d="M70 279q0 138 83.5 223.5t252.5 85.5h225v139q0 83 -51.5 129.5t-151.5 46.5q-156 0 -215 -100q-17 9 -53 33l-45 30q43 75 124.5 116.5t188.5 41.5q334 0 334 -299v-725h-131v84l-6 2q-73 -98 -260 -98q-142 0 -218.5 81t-76.5 210zM190 287q0 -82 54.5 -131.5 t156.5 -49.5q99 0 164.5 46t65.5 143v180h-230q-96 0 -153.5 -47t-57.5 -141zM207 1204v121h489v-121h-489z" />
<glyph unicode="&#x102;" horiz-adv-x="1001" d="M20 0l416 1425h129l416 -1425h-137l-96 342h-496l-96 -342h-136zM233 1765h111q6 -55 51 -98t107 -43q67 0 111 42t49 99h108q-4 -33 -14.5 -65t-31.5 -65t-50 -57.5t-73.5 -40t-98.5 -15.5q-68 0 -121 23t-83 60t-46.5 77.5t-18.5 82.5zM281 461h436l-125 440l-88 332 h-8q-46 -188 -88 -332q-105 -366 -127 -440z" />
<glyph unicode="&#x103;" horiz-adv-x="856" d="M70 279q0 138 83.5 223.5t252.5 85.5h225v139q0 83 -51.5 129.5t-151.5 46.5q-156 0 -215 -100q-17 9 -53 33l-45 30q43 75 124.5 116.5t188.5 41.5q334 0 334 -299v-725h-131v84l-6 2q-73 -98 -260 -98q-142 0 -218.5 81t-76.5 210zM182 1407h109q6 -55 51.5 -98 t106.5 -43q65 0 110.5 42.5t50.5 98.5h107q-5 -43 -21 -82.5t-45.5 -77.5t-81.5 -61t-120 -23q-67 0 -119.5 23t-83 60.5t-46.5 78t-18 82.5zM190 287q0 -82 54.5 -131.5t156.5 -49.5q99 0 164.5 46t65.5 143v180h-230q-96 0 -153.5 -47t-57.5 -141z" />
<glyph unicode="&#x104;" horiz-adv-x="1001" d="M20 0l416 1425h129l416 -1425h-41q-68 -96 -68 -166q0 -48 27 -73t74 -25q51 0 112 31l35 -82q-82 -47 -172 -47q-80 0 -131 51t-51 123q0 91 76 190l-94 340h-496l-96 -342h-136zM281 461h436l-125 440l-88 332h-8q-46 -188 -88 -332q-105 -366 -127 -440z" />
<glyph unicode="&#x105;" horiz-adv-x="856" d="M70 279q0 138 83.5 223.5t252.5 85.5h225v139q0 83 -51.5 129.5t-151.5 46.5q-156 0 -215 -100q-17 9 -53 33l-45 30q43 75 124.5 116.5t188.5 41.5q334 0 334 -299v-725h-35q-68 -96 -68 -164q0 -48 27 -73t74 -25q51 0 112 31l35 -82q-82 -47 -172 -47q-80 0 -131 51 t-51 123q0 91 78 190v80l-6 2q-73 -98 -260 -98q-142 0 -218.5 81t-76.5 210zM190 287q0 -82 54.5 -131.5t156.5 -49.5q99 0 164.5 46t65.5 143v180h-230q-96 0 -153.5 -47t-57.5 -141z" />
<glyph unicode="&#x106;" horiz-adv-x="948" d="M102 403v619q0 183 110.5 298.5t299.5 115.5q143 0 247.5 -72t139.5 -201l-127 -47q-20 91 -89 143t-171 52q-128 0 -203.5 -82t-75.5 -205v-625q0 -124 76 -206t203 -82q101 0 170 52t92 148l125 -45q-31 -133 -136.5 -205.5t-250.5 -72.5q-187 0 -298.5 114.5 t-111.5 300.5zM408 1552l284 230l90 -99l-319 -194z" />
<glyph unicode="&#x107;" horiz-adv-x="776" d="M66 520q0 89 12 163t39.5 138t70 108.5t106.5 69.5t146 25q107 0 183.5 -48t115.5 -134l-108 -64q-22 58 -72 91.5t-117 33.5q-62 0 -107.5 -21.5t-72 -55.5t-42 -86.5t-20.5 -103.5t-5 -118q0 -68 5 -122t20.5 -110t41.5 -94t71 -62t105 -24q67 0 117.5 33t73.5 86 q53 -30 108 -57q-37 -85 -115.5 -132.5t-185.5 -47.5q-89 0 -155 26.5t-106.5 71.5t-65.5 114.5t-34 145.5t-9 174zM348 1171l148 332l127 -43l-197 -321z" />
<glyph unicode="&#x108;" horiz-adv-x="948" d="M102 403v619q0 183 110.5 298.5t299.5 115.5q143 0 247.5 -72t139.5 -201l-127 -47q-20 91 -89 143t-171 52q-128 0 -203.5 -82t-75.5 -205v-625q0 -124 76 -206t203 -82q101 0 170 52t92 148l125 -45q-31 -133 -136.5 -205.5t-250.5 -72.5q-187 0 -298.5 114.5 t-111.5 300.5zM197 1554l270 234h86l258 -232l-51 -55l-256 164l-256 -164z" />
<glyph unicode="&#x109;" horiz-adv-x="776" d="M66 520q0 89 12 163t39.5 138t70 108.5t106.5 69.5t146 25q107 0 183.5 -48t115.5 -134l-108 -64q-22 58 -72 91.5t-117 33.5q-62 0 -107.5 -21.5t-72 -55.5t-42 -86.5t-20.5 -103.5t-5 -118q0 -68 5 -122t20.5 -110t41.5 -94t71 -62t105 -24q67 0 117.5 33t73.5 86 q53 -30 108 -57q-37 -85 -115.5 -132.5t-185.5 -47.5q-89 0 -155 26.5t-106.5 71.5t-65.5 114.5t-34 145.5t-9 174zM125 1186l270 274h86l258 -270l-59 -55l-248 200l-248 -202z" />
<glyph unicode="&#x10a;" horiz-adv-x="948" d="M102 403v619q0 183 110.5 298.5t299.5 115.5q143 0 247.5 -72t139.5 -201l-127 -47q-20 91 -89 143t-171 52q-128 0 -203.5 -82t-75.5 -205v-625q0 -124 76 -206t203 -82q101 0 170 52t92 148l125 -45q-31 -133 -136.5 -205.5t-250.5 -72.5q-187 0 -298.5 114.5 t-111.5 300.5zM444 1567v139h131v-139h-131z" />
<glyph unicode="&#x10b;" horiz-adv-x="776" d="M66 520q0 89 12 163t39.5 138t70 108.5t106.5 69.5t146 25q107 0 183.5 -48t115.5 -134l-108 -64q-22 58 -72 91.5t-117 33.5q-62 0 -107.5 -21.5t-72 -55.5t-42 -86.5t-20.5 -103.5t-5 -118q0 -68 5 -122t20.5 -110t41.5 -94t71 -62t105 -24q67 0 117.5 33t73.5 86 q53 -30 108 -57q-37 -85 -115.5 -132.5t-185.5 -47.5q-89 0 -155 26.5t-106.5 71.5t-65.5 114.5t-34 145.5t-9 174zM356 1223v139h131v-139h-131z" />
<glyph unicode="&#x10c;" horiz-adv-x="948" d="M102 403v619q0 183 110.5 298.5t299.5 115.5q143 0 247.5 -72t139.5 -201l-127 -47q-20 91 -89 143t-171 52q-128 0 -203.5 -82t-75.5 -205v-625q0 -124 76 -206t203 -82q101 0 170 52t92 148l125 -45q-31 -133 -136.5 -205.5t-250.5 -72.5q-187 0 -298.5 114.5 t-111.5 300.5zM211 1739l49 53l258 -166l254 164l53 -53l-258 -234h-86z" />
<glyph unicode="&#x10d;" horiz-adv-x="776" d="M66 520q0 89 12 163t39.5 138t70 108.5t106.5 69.5t146 25q107 0 183.5 -48t115.5 -134l-108 -64q-22 58 -72 91.5t-117 33.5q-62 0 -107.5 -21.5t-72 -55.5t-42 -86.5t-20.5 -103.5t-5 -118q0 -68 5 -122t20.5 -110t41.5 -94t71 -62t105 -24q67 0 117.5 33t73.5 86 q53 -30 108 -57q-37 -85 -115.5 -132.5t-185.5 -47.5q-89 0 -155 26.5t-106.5 71.5t-65.5 114.5t-34 145.5t-9 174zM123 1415l59 51l250 -200l248 200l57 -55l-256 -274h-86z" />
<glyph unicode="&#x10e;" horiz-adv-x="1052" d="M131 0v1425h399q294 0 383 -225q22 -63 28.5 -157.5t6.5 -256.5v-235q0 -227 -33 -313q-26 -67 -68 -114.5t-97.5 -74t-116.5 -38t-135 -11.5h-367zM184 1739l49 53l259 -166l253 164l54 -53l-258 -234h-86zM264 121h246q223 0 283 174q24 65 24 160v485q0 121 -22 188 q-26 86 -99 131.5t-186 45.5h-246v-1184z" />
<glyph unicode="&#x10f;" horiz-adv-x="993" d="M72 500q0 72 4.5 129t16 120t35 109.5t58 85t89 58.5t124.5 20q145 0 234 -119h4v582h127v-1485h-127v115l-4 2q-82 -129 -248 -129q-80 0 -138 28.5t-91.5 73.5t-52.5 115.5t-25 137.5t-6 157zM201 502q0 -71 4.5 -124.5t18.5 -107t37.5 -87.5t63.5 -55.5t95 -21.5 q35 0 64.5 9.5t50.5 23t37.5 38.5t27 46.5t18 56t11.5 58t6 62.5t2 59v57v4q0 43 -1.5 77.5t-7 75t-14.5 71t-25 60.5t-38 49.5t-54.5 31.5t-72.5 12q-49 0 -86.5 -14.5t-61 -43.5t-39 -63.5t-23.5 -82.5t-10.5 -91t-2.5 -100zM850 1118l55 180h-45v168h156v-166l-90 -182 h-76z" />
<glyph unicode="&#x110;" horiz-adv-x="1052" d="M23 696v101h108v628h399q294 0 383 -225q22 -63 28.5 -157.5t6.5 -256.5v-235q0 -227 -33 -313q-26 -67 -68 -114.5t-97.5 -74t-116.5 -38t-135 -11.5h-367v696h-108zM264 121h246q223 0 283 174q24 65 24 160v485q0 121 -22 188q-26 86 -99 131.5t-186 45.5h-246v-508 h209v-101h-209v-575z" />
<glyph unicode="&#x111;" horiz-adv-x="860" d="M72 500q0 72 4.5 129t16 120t35 109.5t58 85t89 58.5t124.5 20q145 0 234 -119h4v268h-295v95h295v219h127v-219h102v-95h-102v-1171h-127v115l-4 2q-82 -129 -248 -129q-80 0 -138 28.5t-91.5 73.5t-52.5 115.5t-25 137.5t-6 157zM201 502q0 -71 4.5 -124.5t18.5 -107 t37.5 -87.5t63.5 -55.5t95 -21.5q35 0 64.5 9.5t50.5 23t37.5 38.5t27 46.5t18 56t11.5 58t6 62.5t2 59v57v4q0 43 -1.5 77.5t-7 75t-14.5 71t-25 60.5t-38 49.5t-54.5 31.5t-72.5 12q-49 0 -86.5 -14.5t-61 -43.5t-39 -63.5t-23.5 -82.5t-10.5 -91t-2.5 -100z" />
<glyph unicode="&#x112;" horiz-adv-x="919" d="M133 0v1425h741v-122h-610v-519h524v-118h-524v-539h610v-127h-741zM250 1559v118h489v-118h-489z" />
<glyph unicode="&#x113;" horiz-adv-x="851" d="M76 512q0 512 354 512q178 0 263 -114.5t85 -309.5v-127h-575q0 -88 10.5 -152t36.5 -115.5t74.5 -77.5t119.5 -26q63 0 117 36.5t80 90.5l109 -55q-38 -87 -118.5 -136.5t-180.5 -49.5q-209 0 -292 124.5t-83 399.5zM207 578h442v4q0 76 -9 130.5t-32 99.5t-67 68 t-109 23q-63 0 -107.5 -24t-69 -70t-35.5 -101.5t-13 -129.5zM207 1204v121h489v-121h-489z" />
<glyph unicode="&#x114;" horiz-adv-x="919" d="M133 0v1425h741v-122h-610v-519h524v-118h-524v-539h610v-127h-741zM227 1765h111q6 -55 51 -98t107 -43q67 0 110.5 42t48.5 99h109q-4 -33 -14.5 -65t-31.5 -65t-50 -57.5t-73.5 -40t-98.5 -15.5q-68 0 -121 23t-83 60t-46.5 77.5t-18.5 82.5z" />
<glyph unicode="&#x115;" horiz-adv-x="851" d="M76 512q0 512 354 512q178 0 263 -114.5t85 -309.5v-127h-575q0 -88 10.5 -152t36.5 -115.5t74.5 -77.5t119.5 -26q63 0 117 36.5t80 90.5l109 -55q-38 -87 -118.5 -136.5t-180.5 -49.5q-209 0 -292 124.5t-83 399.5zM170 1407h109q6 -55 51 -98t106 -43q65 0 111 42.5 t51 98.5h107q-5 -43 -21 -82.5t-46 -77.5t-82 -61t-120 -23q-67 0 -119.5 23t-82.5 60.5t-46 78t-18 82.5zM207 578h442v4q0 76 -9 130.5t-32 99.5t-67 68t-109 23q-63 0 -107.5 -24t-69 -70t-35.5 -101.5t-13 -129.5z" />
<glyph unicode="&#x116;" horiz-adv-x="919" d="M133 0v1425h741v-122h-610v-519h524v-118h-524v-539h610v-127h-741zM440 1567v139h131v-139h-131z" />
<glyph unicode="&#x117;" horiz-adv-x="851" d="M76 512q0 512 354 512q178 0 263 -114.5t85 -309.5v-127h-575q0 -88 10.5 -152t36.5 -115.5t74.5 -77.5t119.5 -26q63 0 117 36.5t80 90.5l109 -55q-38 -87 -118.5 -136.5t-180.5 -49.5q-209 0 -292 124.5t-83 399.5zM207 578h442v4q0 76 -9 130.5t-32 99.5t-67 68 t-109 23q-63 0 -107.5 -24t-69 -70t-35.5 -101.5t-13 -129.5zM360 1219v139h132v-139h-132z" />
<glyph unicode="&#x118;" horiz-adv-x="919" d="M133 0v1425h741v-122h-610v-519h524v-118h-524v-539h610v-127q-71 -96 -71 -166q0 -48 27 -73t73 -25q54 0 115 31l33 -82q-78 -47 -170 -47q-81 0 -133 51t-52 123q0 89 76 188h-639z" />
<glyph unicode="&#x119;" horiz-adv-x="851" d="M76 512q0 512 354 512q178 0 263 -114.5t85 -309.5v-127h-575q0 -88 10.5 -152t36.5 -115.5t74.5 -77.5t119.5 -26q63 0 117 36.5t80 90.5l109 -55q-24 -55 -68 -96q-39 -70 -39 -121q0 -48 26.5 -73t73.5 -25q54 0 113 30l35 -82q-82 -47 -172 -47q-80 0 -131 51 t-51 123q0 37 10 66q-47 -12 -96 -12q-209 0 -292 124.5t-83 399.5zM207 578h442v4q0 76 -9 130.5t-32 99.5t-67 68t-109 23q-63 0 -107.5 -24t-69 -70t-35.5 -101.5t-13 -129.5z" />
<glyph unicode="&#x11a;" horiz-adv-x="919" d="M133 0v1425h741v-122h-610v-519h524v-118h-524v-539h610v-127h-741zM176 1739l49 53l258 -166l254 164l54 -53l-259 -234h-86z" />
<glyph unicode="&#x11b;" horiz-adv-x="851" d="M76 512q0 512 354 512q178 0 263 -114.5t85 -309.5v-127h-575q0 -88 10.5 -152t36.5 -115.5t74.5 -77.5t119.5 -26q63 0 117 36.5t80 90.5l109 -55q-38 -87 -118.5 -136.5t-180.5 -49.5q-209 0 -292 124.5t-83 399.5zM129 1411l59 51l250 -200l248 200l57 -55l-256 -274 h-86zM207 578h442v4q0 76 -9 130.5t-32 99.5t-67 68t-109 23q-63 0 -107.5 -24t-69 -70t-35.5 -101.5t-13 -129.5z" />
<glyph unicode="&#x11c;" horiz-adv-x="1019" d="M100 403v619q0 183 111.5 298.5t300.5 115.5q144 0 248 -72t139 -203q-1 -1 -63 -21t-64 -20q-22 90 -90.5 140.5t-169.5 50.5q-128 0 -204.5 -82.5t-76.5 -204.5v-629q0 -123 76.5 -206t204.5 -83q121 0 200 81t79 200v242h-242v119h375v-351q0 -184 -115 -297.5 t-297 -113.5q-190 0 -301 115t-111 302zM193 1554l270 234h86l258 -232l-51 -55l-256 164l-256 -164z" />
<glyph unicode="&#x11d;" horiz-adv-x="888" d="M80 496q0 87 6.5 157t27 142t54 120t91.5 78.5t136 30.5q165 0 248 -131q2 2 4 2v115h127v-1033q0 -191 -90.5 -297t-269.5 -106q-96 0 -172.5 46t-114.5 130l106 62q25 -51 73 -85t112 -34q116 0 172.5 69.5t56.5 194.5v174h-4q-90 -141 -250 -141q-60 0 -107 15 t-79.5 40t-56 64.5t-37 79.5t-21 95t-10 102.5t-2.5 109.5zM145 1186l271 274h86l258 -270l-60 -55l-247 200l-248 -202zM211 506q0 -62 2.5 -106t10 -92.5t22 -81t38 -60t59 -40.5t83.5 -13q68 0 114 33t68 91.5t30.5 118t8.5 133.5q0 51 -2.5 91t-9 92t-21.5 89.5 t-38 71.5t-60.5 52t-85.5 18q-57 0 -98 -21.5t-64 -55t-36.5 -88t-17 -106.5t-3.5 -126z" />
<glyph unicode="&#x11e;" horiz-adv-x="1019" d="M100 403v619q0 183 111.5 298.5t300.5 115.5q144 0 248 -72t139 -203q-1 -1 -63 -21t-64 -20q-22 90 -90.5 140.5t-169.5 50.5q-128 0 -204.5 -82.5t-76.5 -204.5v-629q0 -123 76.5 -206t204.5 -83q121 0 200 81t79 200v242h-242v119h375v-351q0 -184 -115 -297.5 t-297 -113.5q-190 0 -301 115t-111 302zM227 1765h111q6 -55 51 -98t107 -43q67 0 110.5 42t48.5 99h109q-4 -33 -14.5 -65t-31.5 -65t-50 -57.5t-73.5 -40t-98.5 -15.5q-68 0 -121 23t-83 60t-46.5 77.5t-18.5 82.5z" />
<glyph unicode="&#x11f;" horiz-adv-x="888" d="M80 496q0 87 6.5 157t27 142t54 120t91.5 78.5t136 30.5q165 0 248 -131q2 2 4 2v115h127v-1033q0 -191 -90.5 -297t-269.5 -106q-96 0 -172.5 46t-114.5 130l106 62q25 -51 73 -85t112 -34q116 0 172.5 69.5t56.5 194.5v174h-4q-90 -141 -250 -141q-60 0 -107 15 t-79.5 40t-56 64.5t-37 79.5t-21 95t-10 102.5t-2.5 109.5zM176 1407h109q6 -55 51 -98t106 -43q65 0 111 42.5t51 98.5h107q-5 -43 -21 -82.5t-46 -77.5t-82 -61t-120 -23q-67 0 -119.5 23t-82.5 60.5t-46 78t-18 82.5zM211 506q0 -62 2.5 -106t10 -92.5t22 -81t38 -60 t59 -40.5t83.5 -13q68 0 114 33t68 91.5t30.5 118t8.5 133.5q0 51 -2.5 91t-9 92t-21.5 89.5t-38 71.5t-60.5 52t-85.5 18q-57 0 -98 -21.5t-64 -55t-36.5 -88t-17 -106.5t-3.5 -126z" />
<glyph unicode="&#x120;" horiz-adv-x="1019" d="M100 403v619q0 183 111.5 298.5t300.5 115.5q144 0 248 -72t139 -203q-1 -1 -63 -21t-64 -20q-22 90 -90.5 140.5t-169.5 50.5q-128 0 -204.5 -82.5t-76.5 -204.5v-629q0 -123 76.5 -206t204.5 -83q121 0 200 81t79 200v242h-242v119h375v-351q0 -184 -115 -297.5 t-297 -113.5q-190 0 -301 115t-111 302zM442 1567v139h131v-139h-131z" />
<glyph unicode="&#x121;" horiz-adv-x="888" d="M80 496q0 87 6.5 157t27 142t54 120t91.5 78.5t136 30.5q165 0 248 -131q2 2 4 2v115h127v-1033q0 -191 -90.5 -297t-269.5 -106q-96 0 -172.5 46t-114.5 130l106 62q25 -51 73 -85t112 -34q116 0 172.5 69.5t56.5 194.5v174h-4q-90 -141 -250 -141q-60 0 -107 15 t-79.5 40t-56 64.5t-37 79.5t-21 95t-10 102.5t-2.5 109.5zM211 506q0 -62 2.5 -106t10 -92.5t22 -81t38 -60t59 -40.5t83.5 -13q68 0 114 33t68 91.5t30.5 118t8.5 133.5q0 51 -2.5 91t-9 92t-21.5 89.5t-38 71.5t-60.5 52t-85.5 18q-57 0 -98 -21.5t-64 -55t-36.5 -88 t-17 -106.5t-3.5 -126zM346 1219v139h131v-139h-131z" />
<glyph unicode="&#x122;" horiz-adv-x="1019" d="M100 403v619q0 183 111.5 298.5t300.5 115.5q144 0 248 -72t139 -203q-1 -1 -63 -21t-64 -20q-22 90 -90.5 140.5t-169.5 50.5q-128 0 -204.5 -82.5t-76.5 -204.5v-629q0 -123 76.5 -206t204.5 -83q121 0 200 81t79 200v242h-242v119h375v-351q0 -184 -115 -297.5 t-297 -113.5q-190 0 -301 115t-111 302zM432 -483l55 180h-45v168h156v-166l-90 -182h-76z" />
<glyph unicode="&#x123;" horiz-adv-x="888" d="M80 496q0 87 6.5 157t27 142t54 120t91.5 78.5t136 30.5q165 0 248 -131q2 2 4 2v115h127v-1033q0 -191 -90.5 -297t-269.5 -106q-96 0 -172.5 46t-114.5 130l106 62q25 -51 73 -85t112 -34q116 0 172.5 69.5t56.5 194.5v174h-4q-90 -141 -250 -141q-60 0 -107 15 t-79.5 40t-56 64.5t-37 79.5t-21 95t-10 102.5t-2.5 109.5zM211 506q0 -62 2.5 -106t10 -92.5t22 -81t38 -60t59 -40.5t83.5 -13q68 0 114 33t68 91.5t30.5 118t8.5 133.5q0 51 -2.5 91t-9 92t-21.5 89.5t-38 71.5t-60.5 52t-85.5 18q-57 0 -98 -21.5t-64 -55t-36.5 -88 t-17 -106.5t-3.5 -126zM346 1176v167q12 24 38.5 73.5t39.5 74.5h76q-8 -26 -21.5 -77t-19.5 -71h41v-167h-154z" />
<glyph unicode="&#x124;" horiz-adv-x="1077" d="M133 0v1425h131v-641h545v641h135v-1425h-135v666h-545v-666h-131zM217 1554l270 234h86l258 -232l-51 -55l-256 164l-256 -164z" />
<glyph unicode="&#x125;" horiz-adv-x="892" d="M-137 1554l270 234h86l258 -232l-51 -55l-256 164l-256 -164zM102 0v1487h129v-596h5q41 66 109.5 99.5t148.5 33.5q134 0 214 -83.5t80 -225.5v-715h-129v672q0 107 -51 166t-153 59q-99 0 -162.5 -66.5t-63.5 -171.5v-659h-127z" />
<glyph unicode="&#x126;" horiz-adv-x="1077" d="M33 1122v97h100v206h131v-206h545v206h135v-206h100v-97h-100v-1122h-135v666h-545v-666h-131v1122h-100zM264 784h545v338h-545v-338z" />
<glyph unicode="&#x127;" horiz-adv-x="892" d="M0 1194v98h102v195h129v-195h385v-98h-385v-303h5q41 66 109.5 99.5t148.5 33.5q134 0 214 -83.5t80 -225.5v-715h-129v672q0 107 -51 166t-153 59q-99 0 -162.5 -66.5t-63.5 -171.5v-659h-127v1194h-102z" />
<glyph unicode="&#x128;" horiz-adv-x="421" d="M-94 1591q35 67 84.5 107.5t101.5 40.5q44 0 127 -42t121 -42q56 0 113 84l73 -45q-72 -150 -182 -150q-44 0 -128 41t-120 41q-56 0 -116 -76zM143 0v1425h133v-1425h-133z" />
<glyph unicode="&#x129;" horiz-adv-x="538" d="M-41 1243q35 67 84.5 107.5t101.5 40.5q44 0 127 -42t121 -42q56 0 113 84l74 -45q-72 -150 -183 -150q-45 0 -128 41t-119 41q-57 0 -117 -76zM207 0v1012h129v-1012h-129z" />
<glyph unicode="&#x12a;" horiz-adv-x="421" d="M-31 1559v118h490v-118h-490zM143 0v1425h133v-1425h-133z" />
<glyph unicode="&#x12b;" horiz-adv-x="407" d="M-41 1204v121h490v-121h-490zM139 0v1012h129v-1012h-129z" />
<glyph unicode="&#x12c;" horiz-adv-x="454" d="M-41 1776h111q6 -56 50.5 -99t106.5 -43q67 0 111 42.5t49 99.5h109q-5 -43 -21.5 -83t-46.5 -77.5t-82 -60.5t-119 -23q-68 0 -120.5 23t-83 60.5t-46.5 78t-18 82.5zM156 0v1425h133v-1425h-133z" />
<glyph unicode="&#x12d;" horiz-adv-x="452" d="M-41 1419h109q6 -55 51 -98t106 -43q65 0 111 42.5t51 98.5h107q-5 -43 -21 -82.5t-46 -77.5t-82 -60.5t-120 -22.5q-67 0 -119.5 23t-82.5 60t-46 77.5t-18 82.5zM168 0v1012h129v-1012h-129z" />
<glyph unicode="&#x12e;" horiz-adv-x="421" d="M82 -188q0 89 76 188h-15v1425h133v-1425h-20q-68 -96 -68 -166q0 -48 27 -73t74 -25q51 0 112 31l35 -82q-82 -47 -172 -47q-80 0 -131 51t-51 123z" />
<glyph unicode="&#x12f;" horiz-adv-x="382" d="M70 -186q0 87 73 186h-16v1012h129v-1012h-12q-68 -96 -68 -164q0 -48 26.5 -73t73.5 -25q52 0 113 31l35 -82q-82 -47 -172 -47q-80 0 -131 51t-51 123zM125 1272v135h133v-135h-133z" />
<glyph unicode="&#x130;" horiz-adv-x="421" d="M143 0v1425h133v-1425h-133zM145 1567v139h131v-139h-131z" />
<glyph unicode="&#x131;" horiz-adv-x="382" d="M127 0v1012h129v-1012h-129z" />
<glyph unicode="&#x132;" horiz-adv-x="1171" d="M143 0v1425h133v-1425h-133zM367 104l94 89q84 -80 180 -80q115 0 183.5 60.5t68.5 197.5v1054h135v-1065q0 -95 -29.5 -168t-82.5 -117t-121 -65.5t-150 -21.5q-84 0 -158 30t-120 86z" />
<glyph unicode="&#x133;" horiz-adv-x="759" d="M125 1272v135h133v-135h-133zM127 0v1012h129v-1012h-129zM354 -303h41q119 3 119 162v1153h131v-1180q0 -112 -59 -182t-172 -70h-60v117zM514 1272v133h133v-133h-133z" />
<glyph unicode="&#x134;" horiz-adv-x="811" d="M10 106l94 89q84 -80 181 -80q115 0 183.5 60.5t68.5 197.5v1054h135v-1065q0 -95 -29.5 -168t-82.5 -117t-121 -65.5t-150 -21.5q-84 0 -158.5 30t-120.5 86zM295 1559l270 233h86l258 -231l-51 -56l-256 164l-256 -164z" />
<glyph unicode="&#x135;" horiz-adv-x="532" d="M-41 1186l272 274h86l256 -270l-57 -55l-248 200l-250 -202zM45 -303h41q119 3 119 162v1153h131v-1180q0 -112 -59.5 -182t-172.5 -70h-59v117z" />
<glyph unicode="&#x136;" horiz-adv-x="1042" d="M131 0v1425h133v-819h4q100 155 287.5 435.5t255.5 383.5h145q-153 -232 -368 -553l428 -872h-146l-364 750q-20 -27 -123 -180t-119 -175v-395h-133zM451 -442l55 180h-45v168h155v-166l-90 -182h-75z" />
<glyph unicode="&#x137;" horiz-adv-x="874" d="M115 0v1485h127v-1018h2q42 55 209.5 280t197.5 265h148l-285 -381q14 -25 164.5 -297t183.5 -334h-141l-289 528q-21 -27 -100 -134t-90 -122v-272h-127zM389 -483l55 180h-45v168h156v-166l-90 -182h-76z" />
<glyph unicode="&#x138;" horiz-adv-x="866" d="M115 0v1012h127v-545h2q42 55 209.5 280t197.5 265h148l-285 -381l344 -631h-141l-285 528q-18 -23 -95 -128.5t-95 -129.5v-270h-127z" />
<glyph unicode="&#x139;" horiz-adv-x="894" d="M133 0v1425h131v-1298h596v-127h-727zM150 1552l284 230l90 -99l-319 -194z" />
<glyph unicode="&#x13a;" horiz-adv-x="432" d="M121 219v1266h129v-1241q0 -69 24.5 -101t85.5 -32h37v-117h-43q-116 0 -175 50t-58 175zM125 1573l285 229l90 -98l-320 -195z" />
<glyph unicode="&#x13b;" horiz-adv-x="894" d="M133 0v1425h131v-1298h596v-127h-727zM389 -483l55 180h-45v168h156v-166l-90 -182h-76z" />
<glyph unicode="&#x13c;" horiz-adv-x="432" d="M121 219v1266h129v-1241q0 -69 24.5 -101t85.5 -32h37v-117h-43q-116 0 -175 50t-58 175zM143 -467l56 180h-45v168h155v-166l-90 -182h-76z" />
<glyph unicode="&#x13d;" horiz-adv-x="894" d="M133 0v1425h131v-1298h596v-127h-727zM543 1061l55 180h-45v168h156v-166l-91 -182h-75z" />
<glyph unicode="&#x13e;" horiz-adv-x="520" d="M121 219v1266h129v-1241q0 -69 24.5 -101t85.5 -32h37v-117h-43q-116 0 -175 50t-58 175zM344 1120l55 180h-45v168h156v-165l-90 -183h-76z" />
<glyph unicode="&#x13f;" horiz-adv-x="894" d="M133 0v1425h131v-1298h596v-127h-727zM565 633v139h131v-139h-131z" />
<glyph unicode="&#x140;" horiz-adv-x="507" d="M121 219v1266h129v-1241q0 -69 24.5 -101t85.5 -32h37v-117h-43q-116 0 -175 50t-58 175zM367 688v139h131v-139h-131z" />
<glyph unicode="&#x141;" horiz-adv-x="915" d="M0 530l156 88v807h131v-731l262 152l45 -82l-307 -178v-459h596v-127h-727v510l-109 -61z" />
<glyph unicode="&#x142;" horiz-adv-x="483" d="M4 608l158 92v785h129v-711l145 86l45 -84l-190 -110v-422q0 -69 24.5 -101t85.5 -32h37v-117h-43q-116 0 -175 50t-58 175v373l-111 -64z" />
<glyph unicode="&#x143;" horiz-adv-x="1136" d="M131 0v1425h129q9 -16 186.5 -348t219.5 -405l202 -383l9 2v1134h131v-1425h-129l-410 762q-61 111 -201 377h-4v-1139h-133zM477 1550l283 230q68 -72 90 -99l-320 -192z" />
<glyph unicode="&#x144;" horiz-adv-x="886" d="M98 0v1012h129v-125h6q42 67 109.5 102t146.5 35q134 0 215.5 -84.5t81.5 -224.5v-715h-129v672q0 105 -55.5 164t-157.5 59q-97 0 -157 -66t-60 -170v-659h-129zM328 1171l147 332l127 -43l-196 -321z" />
<glyph unicode="&#x145;" horiz-adv-x="1136" d="M131 0v1425h129q9 -16 186.5 -348t219.5 -405l202 -383l9 2v1134h131v-1425h-129l-410 762q-61 111 -201 377h-4v-1139h-133zM471 -442l55 180h-45v168h156v-166l-90 -182h-76z" />
<glyph unicode="&#x146;" horiz-adv-x="886" d="M98 0v1012h129v-125h6q42 67 109.5 102t146.5 35q134 0 215.5 -84.5t81.5 -224.5v-715h-129v672q0 105 -55.5 164t-157.5 59q-97 0 -157 -66t-60 -170v-659h-129zM358 -483l56 180h-45v168h155v-166l-90 -182h-76z" />
<glyph unicode="&#x147;" horiz-adv-x="1136" d="M131 0v1425h129q9 -16 186.5 -348t219.5 -405l202 -383l9 2v1134h131v-1425h-129l-410 762q-61 111 -201 377h-4v-1139h-133zM272 1739l50 53l258 -166l254 164l53 -53l-258 -234h-86z" />
<glyph unicode="&#x148;" horiz-adv-x="886" d="M98 0v1012h129v-125h6q42 67 109.5 102t146.5 35q134 0 215.5 -84.5t81.5 -224.5v-715h-129v672q0 105 -55.5 164t-157.5 59q-97 0 -157 -66t-60 -170v-659h-129zM102 1411l60 51l250 -200l247 200l58 -55l-256 -274h-86z" />
<glyph unicode="&#x149;" horiz-adv-x="935" d="M0 1006l55 180h-45v168h156v-166l-90 -182h-76zM147 0v1012h129v-125h7q42 67 109.5 102t146.5 35q134 0 215.5 -84.5t81.5 -224.5v-715h-129v672q0 105 -55.5 164t-157.5 59q-97 0 -157.5 -66t-60.5 -170v-659h-129z" />
<glyph unicode="&#x14a;" horiz-adv-x="1142" d="M131 0v1425h127q54 -99 210.5 -390t215.5 -400l184 -348h9v1138h129v-1556q0 -107 -50.5 -157t-134.5 -50q-70 0 -141 35l33 92q52 -20 86 -20q80 0 80 100v135l-422 774q-15 31 -94.5 178.5t-96.5 176.5h-4v-1133h-131z" />
<glyph unicode="&#x14b;" horiz-adv-x="886" d="M98 0v1012h129v-125h6q41 67 112 102t149 35q138 0 215 -83t77 -226v-844q0 -109 -49.5 -160t-134.5 -51q-72 0 -143 35l33 92q56 -18 86 -18q79 0 79 102v801q0 223 -208 223q-98 0 -160 -67.5t-62 -172.5v-655h-129z" />
<glyph unicode="&#x14c;" horiz-adv-x="1005" d="M90 424v600q0 80 25 152t73.5 131t130 94t185.5 35q191 0 300 -119.5t109 -292.5v-616q0 -188 -113 -304t-296 -116q-103 0 -183.5 34t-130 93.5t-75 138t-25.5 170.5zM221 422q0 -139 73.5 -226t211.5 -87q117 0 194.5 82t77.5 206v625q0 50 -15.5 99t-47 92.5 t-86.5 70.5t-125 27q-93 0 -159 -44t-95 -108t-29 -137v-600zM254 1559v118h489v-118h-489z" />
<glyph unicode="&#x14d;" horiz-adv-x="878" d="M82 500q0 223 39 325q38 96 121.5 147.5t201.5 51.5q191 0 281 -143q68 -96 68 -377q0 -82 -10 -175t-27 -143q-36 -104 -122.5 -152t-205.5 -48q-191 0 -274 139q-72 101 -72 375zM199 1204v121h489v-121h-489zM209 485q0 -213 49 -286q56 -97 178 -97q71 0 125 35.5 t78 104.5q25 66 25 272q0 190 -31 266q-24 62 -74.5 94.5t-118.5 32.5q-66 0 -117.5 -30t-78.5 -89q-35 -66 -35 -303z" />
<glyph unicode="&#x14e;" horiz-adv-x="1005" d="M90 424v600q0 80 25 152t73.5 131t130 94t185.5 35q191 0 300 -119.5t109 -292.5v-616q0 -188 -113 -304t-296 -116q-103 0 -183.5 34t-130 93.5t-75 138t-25.5 170.5zM221 422q0 -139 73.5 -226t211.5 -87q117 0 194.5 82t77.5 206v625q0 50 -15.5 99t-47 92.5 t-86.5 70.5t-125 27q-93 0 -159 -44t-95 -108t-29 -137v-600zM238 1765h110q6 -55 51 -98t107 -43q67 0 111 42t49 99h108q-4 -33 -14.5 -65t-31.5 -65t-50 -57.5t-73.5 -40t-98.5 -15.5q-68 0 -120.5 23t-83 60t-46.5 77.5t-18 82.5z" />
<glyph unicode="&#x14f;" horiz-adv-x="878" d="M82 500q0 223 39 325q38 96 121.5 147.5t201.5 51.5q191 0 281 -143q68 -96 68 -377q0 -82 -10 -175t-27 -143q-36 -104 -122.5 -152t-205.5 -48q-191 0 -274 139q-72 101 -72 375zM170 1407h109q6 -55 51 -98t106 -43q65 0 111 42.5t51 98.5h107q-5 -43 -21 -82.5 t-46 -77.5t-82 -61t-120 -23q-67 0 -119.5 23t-82.5 60.5t-46 78t-18 82.5zM209 485q0 -213 49 -286q56 -97 178 -97q71 0 125 35.5t78 104.5q25 66 25 272q0 190 -31 266q-24 62 -74.5 94.5t-118.5 32.5q-66 0 -117.5 -30t-78.5 -89q-35 -66 -35 -303z" />
<glyph unicode="&#x150;" horiz-adv-x="1005" d="M90 424v600q0 80 25 152t73.5 131t130 94t185.5 35q191 0 300 -119.5t109 -292.5v-616q0 -188 -113 -304t-296 -116q-103 0 -183.5 34t-130 93.5t-75 138t-25.5 170.5zM221 422q0 -139 73.5 -226t211.5 -87q117 0 194.5 82t77.5 206v625q0 50 -15.5 99t-47 92.5 t-86.5 70.5t-125 27q-93 0 -159 -44t-95 -108t-29 -137v-600zM240 1554l282 228l92 -99l-321 -192zM541 1554l282 228l90 -99l-321 -192z" />
<glyph unicode="&#x151;" horiz-adv-x="878" d="M82 500q0 223 39 325q38 96 121.5 147.5t201.5 51.5q191 0 281 -143q68 -96 68 -377q0 -82 -10 -175t-27 -143q-36 -104 -122.5 -152t-205.5 -48q-191 0 -274 139q-72 101 -72 375zM209 485q0 -213 49 -286q56 -97 178 -97q71 0 125 35.5t78 104.5q25 66 25 272 q0 190 -31 266q-24 62 -74.5 94.5t-118.5 32.5q-66 0 -117.5 -30t-78.5 -89q-35 -66 -35 -303zM270 1171l146 332l127 -43l-197 -321zM498 1171l147 332l125 -43l-197 -321z" />
<glyph unicode="&#x152;" horiz-adv-x="1439" d="M90 442v559q0 85 22 159t68.5 137.5t128.5 100.5t191 38q14 0 116 -11h738v-122h-609v-521h523v-116h-523v-541h609v-125h-731q-55 -12 -123 -12q-410 0 -410 454zM219 442q0 -333 283 -333q62 0 112 20v1163q-49 19 -112 19q-65 0 -115.5 -20t-81.5 -51.5t-51 -75.5 t-27.5 -88t-7.5 -93v-541z" />
<glyph unicode="&#x153;" horiz-adv-x="1443" d="M82 500q0 235 37 323q38 96 122 147.5t201 51.5q143 0 232 -82q41 -38 61 -90q79 172 287 172q90 0 157.5 -31.5t108 -89t60.5 -133t20 -170.5v-125h-573q0 -90 10.5 -153.5t36 -115.5t74 -78t120.5 -26q63 0 117 36.5t80 90.5l106 -55q-38 -87 -118 -135.5t-181 -48.5 q-122 0 -197 41t-114 127q-22 -39 -47 -64q-86 -104 -256 -104q-224 0 -301 176q-43 102 -43 336zM207 485q0 -180 33 -260q52 -125 194 -125q70 0 124.5 37.5t80.5 108.5q25 74 25 266t-31 268q-24 62 -75 94.5t-120 32.5q-66 0 -117.5 -30t-78.5 -89q-35 -71 -35 -303z M797 575h444v3q0 62 -10 115.5t-33 103t-68 78t-108 28.5q-51 0 -89.5 -16.5t-63 -45t-40.5 -71t-23 -89.5t-9 -106z" />
<glyph unicode="&#x154;" horiz-adv-x="1021" d="M133 0v1425h430q181 0 280 -101.5t99 -285.5q0 -142 -67 -241t-197 -138l283 -659h-146l-266 643l-285 -2v-641h-131zM264 756h275q131 0 200.5 73t69.5 209q0 132 -69 199.5t-201 67.5h-275v-549zM352 1552l285 230l90 -99l-319 -194z" />
<glyph unicode="&#x155;" horiz-adv-x="612" d="M125 0v1012h127v-140h6q41 83 105 117.5t153 34.5q49 0 94 -18l-28 -138q-47 21 -97 21q-107 0 -170 -67.5t-63 -190.5v-631h-127zM254 1171l147 332l127 -43l-196 -321z" />
<glyph unicode="&#x156;" horiz-adv-x="1021" d="M133 0v1425h430q181 0 280 -101.5t99 -285.5q0 -142 -67 -241t-197 -138l283 -659h-146l-266 643l-285 -2v-641h-131zM264 756h275q131 0 200.5 73t69.5 209q0 132 -69 199.5t-201 67.5h-275v-549zM420 -442l55 180h-45v168h156v-166l-90 -182h-76z" />
<glyph unicode="&#x157;" horiz-adv-x="612" d="M98 -483l56 180h-45v168h155v-166l-90 -182h-76zM125 0v1012h127v-140h6q41 83 105 117.5t153 34.5q49 0 94 -18l-28 -138q-47 21 -97 21q-107 0 -170 -67.5t-63 -190.5v-631h-127z" />
<glyph unicode="&#x158;" horiz-adv-x="1021" d="M133 0v1425h430q181 0 280 -101.5t99 -285.5q0 -142 -67 -241t-197 -138l283 -659h-146l-266 643l-285 -2v-641h-131zM172 1739l49 53l258 -166l254 164l53 -53l-258 -234h-86zM264 756h275q131 0 200.5 73t69.5 209q0 132 -69 199.5t-201 67.5h-275v-549z" />
<glyph unicode="&#x159;" horiz-adv-x="612" d="M-12 1411l59 51l250 -200l248 200l57 -55l-256 -274h-86zM125 0v1012h127v-140h6q41 83 105 117.5t153 34.5q49 0 94 -18l-28 -138q-47 21 -97 21q-107 0 -170 -67.5t-63 -190.5v-631h-127z" />
<glyph unicode="&#x15a;" horiz-adv-x="964" d="M53 225l117 68q103 -180 311 -180q138 0 206.5 72t68.5 196q0 64 -18 110t-58 78.5t-84.5 53t-116.5 43.5q-214 65 -301.5 148.5t-87.5 240.5q0 170 107.5 276.5t291.5 106.5q147 0 238.5 -48.5t146.5 -138.5l-114 -77q-42 71 -108.5 105t-168.5 34q-123 0 -190.5 -72.5 t-67.5 -185.5q0 -39 10 -71t32.5 -57.5t47 -44.5t66 -38t76.5 -31.5t90 -30.5q188 -60 268 -148t80 -253q0 -182 -109.5 -288.5t-306.5 -106.5q-156 0 -263 63t-163 176zM383 1552l285 230l90 -99l-320 -194z" />
<glyph unicode="&#x15b;" horiz-adv-x="815" d="M55 186l107 60q70 -144 246 -144q95 0 151.5 45t56.5 134q0 44 -14 74t-47.5 50.5t-64 31.5t-87.5 26q-79 20 -133.5 41.5t-99.5 53.5t-66.5 78t-21.5 107q0 129 87 205t237 76q248 0 323 -186l-111 -56q-58 125 -215 125q-95 0 -144.5 -46t-49.5 -118q0 -29 12.5 -52.5 t30 -38.5t51 -29t60.5 -22.5t73 -20.5q13 -3 19 -5q152 -36 221 -100.5t69 -195.5q0 -134 -89.5 -213.5t-254.5 -79.5q-253 0 -346 200zM317 1171l148 332l127 -43l-197 -321z" />
<glyph unicode="&#x15c;" horiz-adv-x="964" d="M53 225l117 68q103 -180 311 -180q138 0 206.5 72t68.5 196q0 64 -18 110t-58 78.5t-84.5 53t-116.5 43.5q-214 65 -301.5 148.5t-87.5 240.5q0 170 107.5 276.5t291.5 106.5q147 0 238.5 -48.5t146.5 -138.5l-114 -77q-42 71 -108.5 105t-168.5 34q-123 0 -190.5 -72.5 t-67.5 -185.5q0 -39 10 -71t32.5 -57.5t47 -44.5t66 -38t76.5 -31.5t90 -30.5q188 -60 268 -148t80 -253q0 -182 -109.5 -288.5t-306.5 -106.5q-156 0 -263 63t-163 176zM176 1554l270 234h86l259 -232l-52 -55l-256 164l-256 -164z" />
<glyph unicode="&#x15d;" horiz-adv-x="815" d="M55 186l107 60q70 -144 246 -144q95 0 151.5 45t56.5 134q0 44 -14 74t-47.5 50.5t-64 31.5t-87.5 26q-79 20 -133.5 41.5t-99.5 53.5t-66.5 78t-21.5 107q0 129 87 205t237 76q248 0 323 -186l-111 -56q-58 125 -215 125q-95 0 -144.5 -46t-49.5 -118q0 -29 12.5 -52.5 t30 -38.5t51 -29t60.5 -22.5t73 -20.5q13 -3 19 -5q152 -36 221 -100.5t69 -195.5q0 -134 -89.5 -213.5t-254.5 -79.5q-253 0 -346 200zM102 1186l271 274h86l258 -270l-60 -55l-247 200l-248 -202z" />
<glyph unicode="&#x15e;" horiz-adv-x="964" d="M53 225l117 68q103 -180 311 -180q138 0 206.5 72t68.5 196q0 64 -18 110t-58 78.5t-84.5 53t-116.5 43.5q-214 65 -301.5 148.5t-87.5 240.5q0 170 107.5 276.5t291.5 106.5q147 0 238.5 -48.5t146.5 -138.5l-114 -77q-42 71 -108.5 105t-168.5 34q-123 0 -190.5 -72.5 t-67.5 -185.5q0 -39 10 -71t32.5 -57.5t47 -44.5t66 -38t76.5 -31.5t90 -30.5q188 -60 268 -148t80 -253q0 -174 -100 -279t-281 -114q-19 -59 -27 -90q95 -4 138 -52.5t43 -105.5q0 -58 -45.5 -105t-135.5 -47q-104 0 -170 31l25 64q58 -27 133 -27q40 0 69 22t29 62 q0 41 -33.5 65.5t-86.5 24.5h-15l-35 29q18 65 39 129q-278 14 -389 237z" />
<glyph unicode="&#x15f;" horiz-adv-x="815" d="M55 186l107 60q70 -144 246 -144q95 0 151.5 45t56.5 134q0 44 -14 74t-47.5 50.5t-64 31.5t-87.5 26q-79 20 -133.5 41.5t-99.5 53.5t-66.5 78t-21.5 107q0 129 87 205t237 76q248 0 323 -186l-111 -56q-58 125 -215 125q-95 0 -144.5 -46t-49.5 -118q0 -29 12.5 -52.5 t30 -38.5t51 -29t60.5 -22.5t73 -20.5q13 -3 19 -5q152 -36 221 -100.5t69 -195.5q0 -124 -77 -202.5t-222 -88.5l-26 -90q95 -4 137.5 -52.5t42.5 -105.5q0 -58 -45 -105t-135 -47q-104 0 -170 31l24 64q58 -27 134 -27q40 0 69 22t29 62q0 41 -34 65.5t-87 24.5h-14 l-35 29l37 127q-232 12 -318 200z" />
<glyph unicode="&#x160;" horiz-adv-x="964" d="M53 225l117 68q103 -180 311 -180q138 0 206.5 72t68.5 196q0 64 -18 110t-58 78.5t-84.5 53t-116.5 43.5q-214 65 -301.5 148.5t-87.5 240.5q0 170 107.5 276.5t291.5 106.5q147 0 238.5 -48.5t146.5 -138.5l-114 -77q-42 71 -108.5 105t-168.5 34q-123 0 -190.5 -72.5 t-67.5 -185.5q0 -39 10 -71t32.5 -57.5t47 -44.5t66 -38t76.5 -31.5t90 -30.5q188 -60 268 -148t80 -253q0 -182 -109.5 -288.5t-306.5 -106.5q-156 0 -263 63t-163 176zM150 1739l49 53l258 -166l254 164l53 -53l-258 -234h-86z" />
<glyph unicode="&#x161;" horiz-adv-x="815" d="M55 186l107 60q70 -144 246 -144q95 0 151.5 45t56.5 134q0 44 -14 74t-47.5 50.5t-64 31.5t-87.5 26q-79 20 -133.5 41.5t-99.5 53.5t-66.5 78t-21.5 107q0 129 87 205t237 76q248 0 323 -186l-111 -56q-58 125 -215 125q-95 0 -144.5 -46t-49.5 -118q0 -29 12.5 -52.5 t30 -38.5t51 -29t60.5 -22.5t73 -20.5q13 -3 19 -5q152 -36 221 -100.5t69 -195.5q0 -134 -89.5 -213.5t-254.5 -79.5q-253 0 -346 200zM74 1411l59 51l250 -200l248 200l57 -55l-256 -274h-86z" />
<glyph unicode="&#x162;" horiz-adv-x="821" d="M6 1305v120h807v-120h-336v-1305h-131v1305h-340zM328 -483l55 180h-45v168h156v-166l-91 -182h-75z" />
<glyph unicode="&#x163;" horiz-adv-x="499" d="M35 905v107h121v266h129v-266h155v-107h-155v-645q0 -73 25.5 -109t92.5 -36h56v-115h-84q-108 0 -163.5 60.5t-55.5 166.5v678h-121zM162 -483l55 180h-45v168h156v-166l-90 -182h-76z" />
<glyph unicode="&#x164;" horiz-adv-x="821" d="M6 1305v120h807v-120h-336v-1305h-131v1305h-340zM111 1739l49 53l258 -166l254 164l53 -53l-258 -234h-86z" />
<glyph unicode="&#x165;" horiz-adv-x="557" d="M35 905v107h121v266h129v-266h155v-107h-155v-645q0 -73 25.5 -109t92.5 -36h56v-115h-84q-108 0 -163.5 60.5t-55.5 166.5v678h-121zM410 1174l55 180h-45v168h155v-166l-90 -182h-75z" />
<glyph unicode="&#x166;" horiz-adv-x="821" d="M6 1305v120h807v-120h-336v-502h262v-109h-262v-694h-131v694h-256v109h256v502h-340z" />
<glyph unicode="&#x167;" horiz-adv-x="499" d="M35 905v107h121v266h129v-266h155v-107h-155v-200h147v-109h-147v-336q0 -73 25.5 -109t92.5 -36h56v-115h-84q-108 0 -163.5 60.5t-55.5 166.5v369h-117v109h117v200h-121z" />
<glyph unicode="&#x168;" horiz-adv-x="1044" d="M113 399v1026h129v-1026q0 -122 79 -204t201 -82t200.5 76t78.5 208v1028h133v-1028q0 -188 -116.5 -298.5t-295.5 -110.5q-184 0 -296.5 113t-112.5 298zM211 1591q35 67 84.5 107.5t101.5 40.5q44 0 127 -42t121 -42q56 0 113 84l73 -45q-72 -150 -182 -150 q-45 0 -129 41t-119 41q-56 0 -116 -76z" />
<glyph unicode="&#x169;" horiz-adv-x="901" d="M102 295v717h129v-674q0 -104 57 -165.5t156 -61.5q96 0 157 67.5t61 173.5v660h126v-1012h-126v123h-7q-41 -68 -109 -101.5t-147 -33.5q-135 0 -216 83.5t-81 223.5zM119 1243q35 67 84.5 107.5t101.5 40.5q44 0 127 -42t121 -42q56 0 113 84l73 -45 q-72 -150 -182 -150q-45 0 -129 41t-119 41q-56 0 -116 -76z" />
<glyph unicode="&#x16a;" horiz-adv-x="1044" d="M113 399v1026h129v-1026q0 -122 79 -204t201 -82t200.5 76t78.5 208v1028h133v-1028q0 -188 -116.5 -298.5t-295.5 -110.5q-184 0 -296.5 113t-112.5 298zM283 1559v118h489v-118h-489z" />
<glyph unicode="&#x16b;" horiz-adv-x="901" d="M102 295v717h129v-674q0 -104 57 -165.5t156 -61.5q96 0 157 67.5t61 173.5v660h126v-1012h-126v123h-7q-41 -68 -109 -101.5t-147 -33.5q-135 0 -216 83.5t-81 223.5zM201 1204v121h489v-121h-489z" />
<glyph unicode="&#x16c;" horiz-adv-x="1044" d="M113 399v1026h129v-1026q0 -122 79 -204t201 -82t200.5 76t78.5 208v1028h133v-1028q0 -188 -116.5 -298.5t-295.5 -110.5q-184 0 -296.5 113t-112.5 298zM260 1714h109q6 -55 51 -98t106 -43q65 0 111 42.5t51 98.5h107q-5 -43 -21 -82.5t-46 -77.5t-82 -61t-120 -23 q-67 0 -119.5 23t-82.5 60.5t-46 78t-18 82.5z" />
<glyph unicode="&#x16d;" horiz-adv-x="901" d="M102 295v717h129v-674q0 -104 57 -165.5t156 -61.5q96 0 157 67.5t61 173.5v660h126v-1012h-126v123h-7q-41 -68 -109 -101.5t-147 -33.5q-135 0 -216 83.5t-81 223.5zM190 1407h109q6 -55 51.5 -98t106.5 -43q65 0 110.5 42.5t50.5 98.5h107q-5 -43 -21 -82.5 t-45.5 -77.5t-81.5 -61t-120 -23q-67 0 -119.5 23t-83 60.5t-46.5 78t-18 82.5z" />
<glyph unicode="&#x16e;" horiz-adv-x="1044" d="M113 399v1026h129v-1026q0 -122 79 -204t201 -82t200.5 76t78.5 208v1028h133v-1028q0 -188 -116.5 -298.5t-295.5 -110.5q-184 0 -296.5 113t-112.5 298zM348 1632q0 72 51.5 124t124.5 52q69 0 119.5 -52t50.5 -124q0 -69 -50.5 -119.5t-119.5 -50.5q-73 0 -124.5 50.5 t-51.5 119.5zM418 1632q0 -40 31 -69t75 -29q41 0 72 29t31 69q0 44 -30.5 74.5t-72.5 30.5q-44 0 -75 -30.5t-31 -74.5z" />
<glyph unicode="&#x16f;" horiz-adv-x="901" d="M102 295v717h129v-674q0 -104 57 -165.5t156 -61.5q96 0 157 67.5t61 173.5v660h126v-1012h-126v123h-7q-41 -68 -109 -101.5t-147 -33.5q-135 0 -216 83.5t-81 223.5zM283 1300q0 72 51.5 124.5t124.5 52.5q69 0 119.5 -52.5t50.5 -124.5q0 -69 -50.5 -119.5 t-119.5 -50.5q-73 0 -124.5 50.5t-51.5 119.5zM352 1300q0 -40 31.5 -69t75.5 -29q41 0 71.5 29t30.5 69q0 44 -30 74.5t-72 30.5q-44 0 -75.5 -30.5t-31.5 -74.5z" />
<glyph unicode="&#x170;" horiz-adv-x="1044" d="M113 399v1026h129v-1026q0 -122 79 -204t201 -82t200.5 76t78.5 208v1028h133v-1028q0 -188 -116.5 -298.5t-295.5 -110.5q-184 0 -296.5 113t-112.5 298zM283 1554l282 228l92 -99l-321 -192zM584 1554l282 228l90 -99l-321 -192z" />
<glyph unicode="&#x171;" horiz-adv-x="901" d="M102 295v717h129v-674q0 -104 57 -165.5t156 -61.5q96 0 157 67.5t61 173.5v660h126v-1012h-126v123h-7q-41 -68 -109 -101.5t-147 -33.5q-135 0 -216 83.5t-81 223.5zM270 1171l146 332l127 -43l-197 -321zM498 1171l147 332l125 -43l-197 -321z" />
<glyph unicode="&#x172;" horiz-adv-x="1044" d="M113 399v1026h129v-1026q0 -122 79 -204t201 -82t200.5 76t78.5 208v1028h133v-1028q0 -173 -98 -280t-256 -125q-60 -88 -60 -154q0 -48 27 -73t74 -25q51 0 112 31l35 -82q-82 -47 -172 -47q-80 0 -131 51t-51 123q0 83 65 174q-166 14 -266 124.5t-100 284.5z" />
<glyph unicode="&#x173;" horiz-adv-x="901" d="M102 295v717h129v-674q0 -104 57 -165.5t156 -61.5q96 0 157 67.5t61 173.5v660h126v-1012h-32q-66 -91 -66 -162q0 -48 27 -73t74 -25q51 0 112 31l35 -82q-82 -47 -172 -47q-80 0 -131 51t-51 123q0 89 78 190v117h-7q-41 -68 -109 -101.5t-147 -33.5q-135 0 -216 83.5 t-81 223.5z" />
<glyph unicode="&#x174;" horiz-adv-x="1431" d="M35 1425h135l123 -641l94 -522h6l107 471l159 692h113l164 -704l102 -459h6l89 486l124 677h138l-289 -1425h-123l-160 688q-19 78 -52.5 235.5t-53.5 235.5h-6q-47 -202 -99 -444q-114 -494 -163 -715h-125q-240 1188 -289 1425zM406 1554l270 234h86l258 -232l-51 -55 l-256 164l-256 -164z" />
<glyph unicode="&#x175;" horiz-adv-x="1280" d="M16 1010h136l135 -529q17 -68 42 -172l25 -104h8l70 262q14 54 71.5 266t74.5 277h124q83 -300 142 -535q46 -184 71 -276h7l69 270q9 35 66.5 270.5t66.5 270.5h136l-277 -1010h-125l-141 510q-37 150 -78 285h-2l-82 -303l-135 -492h-127zM332 1186l270 274h86 l258 -270l-59 -55l-248 200l-248 -202z" />
<glyph unicode="&#x176;" horiz-adv-x="876" d="M14 1425h138q31 -76 89 -214t78 -187q22 -51 61 -150.5t52 -130.5l139 328l148 354h135l-356 -831v-594h-127v594zM131 1554l270 234h86l258 -232l-51 -55l-256 164l-256 -164z" />
<glyph unicode="&#x177;" horiz-adv-x="768" d="M6 1010h137q24 -80 69 -225.5t62 -200.5q12 -40 56 -191.5t57 -191.5h4q27 98 125 428t113 381h133l-375 -1225q-61 -201 -242 -201h-47v111h41q56 0 89.5 38t54.5 115l49 164q-58 173 -165.5 506.5t-160.5 491.5zM80 1186l270 274h86l258 -270l-59 -55l-248 200 l-248 -202z" />
<glyph unicode="&#x178;" horiz-adv-x="876" d="M14 1425h138q31 -76 89 -214t78 -187q22 -51 61 -150.5t52 -130.5l139 328l148 354h135l-356 -831v-594h-127v594zM207 1532v137h133v-137h-133zM545 1532v137h131v-137h-131z" />
<glyph unicode="&#x179;" horiz-adv-x="829" d="M51 0v121l586 1184h-557v120h698v-114l-585 -1186h579v-125h-721zM326 1552l284 230l90 -99l-319 -194z" />
<glyph unicode="&#x17a;" horiz-adv-x="739" d="M55 0v113l486 784h-453v113h598v-109l-485 -782h481v-119h-627zM322 1171l147 332l127 -43l-197 -321z" />
<glyph unicode="&#x17b;" horiz-adv-x="829" d="M51 0v121l586 1184h-557v120h698v-114l-585 -1186h579v-125h-721zM373 1567v139h131v-139h-131z" />
<glyph unicode="&#x17c;" horiz-adv-x="739" d="M55 0v113l486 784h-453v113h598v-109l-485 -782h481v-119h-627zM338 1219v139h131v-139h-131z" />
<glyph unicode="&#x17d;" horiz-adv-x="829" d="M51 0v121l586 1184h-557v120h698v-114l-585 -1186h579v-125h-721zM121 1739l49 53l258 -166l254 164l53 -53l-258 -234h-86z" />
<glyph unicode="&#x17e;" horiz-adv-x="739" d="M55 0v113l486 784h-453v113h598v-109l-485 -782h481v-119h-627zM68 1411l59 51l250 -200l248 200l57 -55l-256 -274h-86z" />
<glyph unicode="&#x192;" d="M-12 -158l35 103q59 -19 104 -19q81 0 124 68t64 217q1 17 33 260t35 264h-164v111h180l27 205q11 81 31.5 144.5t56.5 119.5t95 86.5t139 30.5q74 0 135 -23q-4 -21 -14.5 -59t-14.5 -56q-55 19 -111 19q-161 0 -192 -258q-28 -206 -29 -209h201v-111h-213 q-5 -33 -35 -260t-35 -260q-25 -201 -93.5 -301t-207.5 -100q-81 0 -151 28z" />
<glyph unicode="&#x1a0;" horiz-adv-x="1042" d="M90 424v600q0 80 25 152t73.5 131t130 94t185.5 35q183 0 297 -117q66 6 93.5 50.5t27.5 141.5v72h118v-72q0 -125 -40 -197t-130 -95q43 -87 43 -195v-616q0 -188 -113 -304t-296 -116q-103 0 -183.5 34t-130 93.5t-75 138t-25.5 170.5zM221 422q0 -139 73.5 -226 t211.5 -87q117 0 194.5 82t77.5 206v625q0 50 -15.5 99t-47 92.5t-86.5 70.5t-125 27q-93 0 -159 -44t-95 -108t-29 -137v-600z" />
<glyph unicode="&#x1a1;" horiz-adv-x="940" d="M82 500q0 223 39 325q38 96 121.5 147.5t201.5 51.5q161 0 254 -106q73 1 103 46t30 146v70h119v-74q0 -131 -45.5 -204t-146.5 -91q35 -112 35 -307q0 -82 -10 -175t-27 -143q-36 -104 -122.5 -152t-205.5 -48q-191 0 -274 139q-72 101 -72 375zM209 485q0 -213 49 -286 q56 -97 178 -97q71 0 125 35.5t78 104.5q25 66 25 272q0 190 -31 266q-24 62 -74.5 94.5t-118.5 32.5q-66 0 -117.5 -30t-78.5 -89q-35 -66 -35 -303z" />
<glyph unicode="&#x1af;" horiz-adv-x="1128" d="M113 399v1026h129v-1026q0 -122 79 -204t201 -82t200.5 76t78.5 208v1028h133v-106q67 6 95 50.5t28 143.5v70h117v-76q0 -145 -56.5 -219t-183.5 -80v-811q0 -188 -116.5 -298.5t-295.5 -110.5q-184 0 -296.5 113t-112.5 298z" />
<glyph unicode="&#x1b0;" horiz-adv-x="1009" d="M102 295v717h129v-674q0 -104 57 -165.5t156 -61.5q96 0 157 67.5t61 173.5v660h126v-94q67 4 95 49t28 143v70h119v-74q0 -145 -57.5 -220t-184.5 -81v-805h-126v123h-7q-41 -68 -109 -101.5t-147 -33.5q-135 0 -216 83.5t-81 223.5z" />
<glyph unicode="&#x1fc;" horiz-adv-x="1611" d="M10 0q121 237 731 1425h805v-122h-608v-519h524v-118h-524v-541h608v-125h-739v389h-459l-201 -389h-137zM408 508h399v772l-8 2q-262 -516 -391 -774zM971 1552l284 230l91 -99l-320 -194z" />
<glyph unicode="&#x1fd;" horiz-adv-x="1413" d="M68 276q0 146 88 229t256 83h219v139q0 84 -51.5 130t-153.5 46q-155 0 -213 -100q-36 22 -98 65q45 75 127 115.5t182 40.5q225 0 299 -137q82 137 266 137q73 0 131.5 -20.5t98.5 -57.5t67 -90t39 -116t12 -138v-127h-573q0 -51 3.5 -93.5t12.5 -87t26.5 -78t43 -60.5 t65 -41.5t89.5 -14.5q63 0 114.5 32t81.5 85l103 -57q-40 -85 -117 -128.5t-176 -43.5q-234 0 -314 166q-130 -166 -334 -166q-140 0 -217 80t-77 208zM190 285q0 -82 54 -130.5t157 -48.5q106 0 168 55t62 150v164h-230q-92 0 -151.5 -44.5t-59.5 -145.5zM655 1171l148 332 l127 -43l-197 -321zM768 582h442q0 70 -11.5 126.5t-36 101t-68 69t-103.5 24.5q-50 0 -88.5 -16.5t-63 -44.5t-40.5 -69.5t-23 -87.5t-8 -103z" />
<glyph unicode="&#x1fe;" horiz-adv-x="1005" d="M80 29l76 135q-66 109 -66 260v600q0 80 25 152t73.5 131t130 94t185.5 35q177 0 287 -107l61 109l66 -39l-74 -133q69 -107 69 -242v-616q0 -188 -113 -304t-296 -116q-192 0 -301 112l-62 -110q-47 28 -61 39zM221 422q0 -62 15 -111q67 123 232 425.5t255 465.5 q-77 109 -219 109q-93 0 -159 -44t-95 -108t-29 -137v-600zM270 225q76 -116 236 -116q117 0 194.5 82t77.5 206v625q0 50 -14 96q-94 -172 -268.5 -486.5t-225.5 -406.5zM362 1552l285 230l90 -99l-319 -194z" />
<glyph unicode="&#x1ff;" horiz-adv-x="878" d="M82 43l63 94q-63 102 -63 363q0 223 39 325q38 96 121.5 147.5t201.5 51.5q146 0 236 -90l61 90l66 -45l-76 -111q62 -102 62 -364q0 -82 -10 -175t-27 -143q-36 -104 -122.5 -152t-205.5 -48q-149 0 -235 86l-50 -74zM209 485q0 -144 20 -223l379 563q-60 82 -168 82 q-66 0 -117.5 -30t-78.5 -89q-35 -66 -35 -303zM268 182q55 -80 168 -80q71 0 125 35.5t78 104.5q25 66 25 272q0 141 -19 225zM362 1171l148 332l127 -43l-197 -321z" />
<glyph unicode="&#x218;" horiz-adv-x="964" d="M53 225l117 68q103 -180 311 -180q138 0 206.5 72t68.5 196q0 64 -18 110t-58 78.5t-84.5 53t-116.5 43.5q-214 65 -301.5 148.5t-87.5 240.5q0 170 107.5 276.5t291.5 106.5q147 0 238.5 -48.5t146.5 -138.5l-114 -77q-42 71 -108.5 105t-168.5 34q-123 0 -190.5 -72.5 t-67.5 -185.5q0 -39 10 -71t32.5 -57.5t47 -44.5t66 -38t76.5 -31.5t90 -30.5q188 -60 268 -148t80 -253q0 -182 -109.5 -288.5t-306.5 -106.5q-156 0 -263 63t-163 176zM381 -483l55 180h-45v168h156v-166l-90 -182h-76z" />
<glyph unicode="&#x219;" horiz-adv-x="815" d="M55 186l107 60q70 -144 246 -144q95 0 151.5 45t56.5 134q0 44 -14 74t-47.5 50.5t-64 31.5t-87.5 26q-79 20 -133.5 41.5t-99.5 53.5t-66.5 78t-21.5 107q0 129 87 205t237 76q248 0 323 -186l-111 -56q-58 125 -215 125q-95 0 -144.5 -46t-49.5 -118q0 -29 12.5 -52.5 t30 -38.5t51 -29t60.5 -22.5t73 -20.5q13 -3 19 -5q152 -36 221 -100.5t69 -195.5q0 -134 -89.5 -213.5t-254.5 -79.5q-253 0 -346 200zM301 -483l55 180h-45v168h156v-166l-90 -182h-76z" />
<glyph unicode="&#x259;" horiz-adv-x="845" d="M70 412v129h573q0 87 -11 151t-37.5 115.5t-74.5 77.5t-117 26q-62 0 -117.5 -37t-82.5 -90l-109 54q39 86 126 137t188 51q197 0 280.5 -127.5t83.5 -396.5q0 -512 -354 -512q-73 0 -131.5 20.5t-98.5 57.5t-67 90t-39 116t-12 138zM199 432q0 -323 217 -323 q62 0 106.5 24.5t68.5 70.5t35 101.5t13 128.5h-440v-2z" />
<glyph unicode="&#x2b9;" horiz-adv-x="450" d="M88 872l197 541l157 -41l-266 -526z" />
<glyph unicode="&#x2c6;" horiz-adv-x="946" d="M172 1186l270 274h86l258 -270l-59 -55l-248 200l-248 -202z" />
<glyph unicode="&#x2c7;" horiz-adv-x="858" d="M129 1411l59 51l250 -200l248 200l57 -55l-256 -274h-86z" />
<glyph unicode="&#x2d8;" horiz-adv-x="915" d="M203 1407h108q6 -55 51.5 -98t106.5 -43q65 0 111 42.5t51 98.5h106q-5 -43 -21 -82.5t-45.5 -77.5t-81.5 -61t-120 -23q-67 0 -119.5 23t-82.5 60.5t-46 78t-18 82.5z" />
<glyph unicode="&#x2d9;" horiz-adv-x="856" d="M389 1219v139h131v-139h-131z" />
<glyph unicode="&#x2da;" horiz-adv-x="856" d="M283 1300q0 72 51.5 124.5t124.5 52.5q69 0 119.5 -52.5t50.5 -124.5q0 -69 -50.5 -119.5t-119.5 -50.5q-73 0 -124.5 50.5t-51.5 119.5zM352 1300q0 -40 31.5 -69t75.5 -29q41 0 71.5 29t30.5 69q0 44 -30 74.5t-72 30.5q-44 0 -75.5 -30.5t-31.5 -74.5z" />
<glyph unicode="&#x2db;" horiz-adv-x="657" d="M211 -188q0 90 82 196l94 -2l2 -2q-72 -101 -72 -170q0 -48 27 -73t74 -25q51 0 112 31l35 -82q-82 -47 -172 -47q-80 0 -131 51t-51 123z" />
<glyph unicode="&#x2dc;" d="M123 1243q35 67 84.5 107.5t101.5 40.5q44 0 127 -42t121 -42q56 0 113 84l73 -45q-72 -150 -182 -150q-45 0 -129 41t-119 41q-56 0 -116 -76z" />
<glyph unicode="&#x2dd;" horiz-adv-x="856" d="M256 1171l145 332l127 -43l-196 -321zM483 1171l148 332l125 -43l-197 -321z" />
<glyph unicode="&#x384;" horiz-adv-x="860" d="M401 1171l146 332l125 -43l-197 -321z" />
<glyph unicode="&#x385;" horiz-adv-x="858" d="M162 1212v142h129v-142h-129zM324 1171l145 332l129 -43l-197 -321zM582 1212v142h129v-142h-129z" />
<glyph unicode="&#x386;" horiz-adv-x="1001" d="M-35 1145l146 332l125 -43l-197 -322zM20 0l416 1425h129l416 -1425h-137l-96 342h-496l-96 -342h-136zM281 461h436l-125 440l-88 332h-8q-46 -188 -88 -332q-105 -366 -127 -440z" />
<glyph unicode="&#x387;" horiz-adv-x="380" d="M111 616v168h153v-168h-153z" />
<glyph unicode="&#x388;" horiz-adv-x="919" d="M-201 1145l146 332l125 -43l-197 -322zM133 0v1425h741v-122h-610v-519h524v-118h-524v-539h610v-127h-741z" />
<glyph unicode="&#x389;" horiz-adv-x="1077" d="M-207 1145l146 332l124 -43l-196 -322zM133 0v1425h131v-641h545v641h135v-1425h-135v666h-545v-666h-131z" />
<glyph unicode="&#x38a;" horiz-adv-x="421" d="M-207 1145l146 332l124 -43l-196 -322zM143 0v1425h133v-1425h-133z" />
<glyph unicode="&#x38c;" horiz-adv-x="1005" d="M-174 1145l145 332l125 -43l-196 -322zM90 424v600q0 80 25 152t73.5 131t130 94t185.5 35q191 0 300 -119.5t109 -292.5v-616q0 -188 -113 -304t-296 -116q-103 0 -183.5 34t-130 93.5t-75 138t-25.5 170.5zM221 422q0 -139 73.5 -226t211.5 -87q117 0 194.5 82 t77.5 206v625q0 50 -15.5 99t-47 92.5t-86.5 70.5t-125 27q-93 0 -159 -44t-95 -108t-29 -137v-600z" />
<glyph unicode="&#x38e;" horiz-adv-x="876" d="M-276 1145l145 332l125 -43l-197 -322zM14 1425h138q31 -76 89 -214t78 -187q22 -51 61 -150.5t52 -130.5l139 328l148 354h135l-356 -831v-594h-127v594z" />
<glyph unicode="&#x38f;" horiz-adv-x="1005" d="M-188 1145l145 332l125 -43l-197 -322zM66 0v121h163v2q-78 49 -108.5 136.5t-30.5 217.5v541q0 185 114 301.5t298 116.5q177 0 293 -114t116 -304v-541q0 -127 -29.5 -213.5t-107.5 -142.5h162v-121h-332v145q82 29 129 105.5t47 177.5v588q0 132 -76 212.5t-202 80.5 q-129 0 -205 -82t-76 -211v-592q0 -98 47 -173.5t129 -107.5v-143h-331z" />
<glyph unicode="&#x390;" horiz-adv-x="415" d="M-70 1212v142h129v-142h-129zM92 1171l146 332l129 -43l-197 -321zM125 184v824h127v-807q0 -56 16.5 -74.5t61.5 -20.5h4q0 -19 -1 -55t-1 -53q-32 -4 -49 -4q-78 0 -118 45.5t-40 144.5zM350 1212v142h129v-142h-129z" />
<glyph unicode="&#x391;" horiz-adv-x="1001" d="M20 0l416 1425h129l416 -1425h-137l-96 342h-496l-96 -342h-136zM281 461h436l-125 440l-88 332h-8q-46 -188 -88 -332q-105 -366 -127 -440z" />
<glyph unicode="&#x392;" horiz-adv-x="1028" d="M133 0v1425h410q188 0 283.5 -97.5t95.5 -268.5q0 -70 -16 -125t-59.5 -104.5t-115.5 -81.5v-7q75 -19 124.5 -71.5t70 -119.5t20.5 -147q0 -195 -102 -299t-275 -104h-436zM264 127h287q139 0 200.5 78t61.5 209q0 123 -64 195.5t-194 72.5h-291v-555zM264 799h271 q127 0 191.5 68t64.5 188q0 118 -67 185t-198 67h-262v-508z" />
<glyph unicode="&#x393;" horiz-adv-x="890" d="M133 0v1425h729v-122h-596v-1303h-133z" />
<glyph unicode="&#x394;" horiz-adv-x="1001" d="M20 0q68 238 416 1425h127q68 -237 416 -1425h-959zM186 117h623q-21 77 -90.5 326t-102.5 370q-16 60 -43.5 156.5t-48 167.5t-24.5 88h-4q-41 -132 -105 -383z" />
<glyph unicode="&#x395;" horiz-adv-x="919" d="M133 0v1425h741v-122h-610v-519h524v-118h-524v-539h610v-127h-741z" />
<glyph unicode="&#x396;" horiz-adv-x="829" d="M51 0v121l586 1184h-557v120h698v-114l-585 -1186h579v-125h-721z" />
<glyph unicode="&#x397;" horiz-adv-x="1077" d="M133 0v1425h131v-641h545v641h135v-1425h-135v666h-545v-666h-131z" />
<glyph unicode="&#x398;" horiz-adv-x="1005" d="M90 424v600q0 80 25 152t73.5 131t130 94t185.5 35q191 0 300 -119.5t109 -292.5v-616q0 -188 -113 -304t-296 -116q-103 0 -183.5 34t-130 93.5t-75 138t-25.5 170.5zM221 422q0 -139 73.5 -226t211.5 -87q117 0 194.5 82t77.5 206v625q0 50 -15.5 99t-47 92.5 t-86.5 70.5t-125 27q-93 0 -159 -44t-95 -108t-29 -137v-600zM287 668v118h432v-118h-432z" />
<glyph unicode="&#x399;" horiz-adv-x="421" d="M143 0v1425h133v-1425h-133z" />
<glyph unicode="&#x39a;" horiz-adv-x="1042" d="M131 0v1425h133v-819h4q100 155 287.5 435.5t255.5 383.5h145q-153 -232 -368 -553l428 -872h-146l-364 750q-20 -27 -123 -180t-119 -175v-395h-133z" />
<glyph unicode="&#x39b;" horiz-adv-x="1001" d="M20 0q68 238 416 1425h127q68 -237 416 -1425h-135l-90 324q-15 54 -176 612l-78 276h-4q-29 -104 -90 -317l-152 -535q-64 -238 -100 -360h-134z" />
<glyph unicode="&#x39c;" horiz-adv-x="1325" d="M133 0v1425h133q16 -40 64.5 -151t103.5 -236t66 -151l166 -398h4l170 402l231 534h131v-1425h-131v1102l-6 -2l-162 -389l-190 -432h-95q-17 41 -99.5 229.5t-90.5 206.5l-158 383l-8 -2v-1096h-129z" />
<glyph unicode="&#x39d;" horiz-adv-x="1136" d="M131 0v1425h129q9 -16 186.5 -348t219.5 -405l202 -383l9 2v1134h131v-1425h-129l-410 762q-61 111 -201 377h-4v-1139h-133z" />
<glyph unicode="&#x39e;" horiz-adv-x="933" d="M94 0v127h748v-127h-748zM94 1303v122h748v-122h-748zM178 664v120h580v-120h-580z" />
<glyph unicode="&#x39f;" horiz-adv-x="1005" d="M90 424v600q0 80 25 152t73.5 131t130 94t185.5 35q191 0 300 -119.5t109 -292.5v-616q0 -188 -113 -304t-296 -116q-103 0 -183.5 34t-130 93.5t-75 138t-25.5 170.5zM221 422q0 -139 73.5 -226t211.5 -87q117 0 194.5 82t77.5 206v625q0 50 -15.5 99t-47 92.5 t-86.5 70.5t-125 27q-93 0 -159 -44t-95 -108t-29 -137v-600z" />
<glyph unicode="&#x3a0;" horiz-adv-x="1067" d="M133 0v1425h803v-1425h-135v1309h-537v-1309h-131z" />
<glyph unicode="&#x3a1;" horiz-adv-x="978" d="M133 0v1425h402q197 0 302 -105t105 -312q0 -85 -22.5 -158t-68 -132.5t-124.5 -93.5t-184 -34h-277v-590h-133zM266 715h266q75 0 130 23t86.5 65t46 93t14.5 114q0 140 -70 216.5t-209 76.5h-264v-588z" />
<glyph unicode="&#x3a3;" horiz-adv-x="817" d="M51 0v115l293 620l-293 580v110h705v-120h-561l294 -570l-294 -614h581v-121h-725z" />
<glyph unicode="&#x3a4;" horiz-adv-x="821" d="M6 1305v120h807v-120h-336v-1305h-131v1305h-340z" />
<glyph unicode="&#x3a5;" horiz-adv-x="876" d="M14 1425h138q31 -76 89 -214t78 -187q22 -51 61 -150.5t52 -130.5l139 328l148 354h135l-356 -831v-594h-127v594z" />
<glyph unicode="&#x3a6;" horiz-adv-x="1247" d="M90 735q0 284 109 441t358 174v75h129v-75q128 -6 221.5 -54.5t148 -132.5t80 -190t25.5 -238q0 -582 -475 -618v-117h-129v117q-467 5 -467 618zM219 737q3 -258 80 -374t256 -125v989q-95 -3 -161.5 -38.5t-103.5 -102t-53.5 -151t-17.5 -198.5zM690 238 q177 10 256.5 128.5t79.5 368.5q0 234 -79.5 360t-256.5 132v-989z" />
<glyph unicode="&#x3a7;" horiz-adv-x="894" d="M12 0l365 735l-342 690h143l271 -569l266 569h145l-344 -690l367 -735h-146l-288 606l-291 -606h-146z" />
<glyph unicode="&#x3a8;" horiz-adv-x="1232" d="M111 711v714h133v-698q0 -137 84 -217.5t223 -83.5v999h133v-999q138 2 222.5 78.5t84.5 210.5v710h133v-725q0 -178 -122.5 -287.5t-317.5 -115.5v-297h-133v297q-195 5 -317.5 118.5t-122.5 295.5z" />
<glyph unicode="&#x3a9;" horiz-adv-x="1005" d="M66 0v121h163v2q-78 49 -108.5 136.5t-30.5 217.5v541q0 185 114 301.5t298 116.5q177 0 293 -114t116 -304v-541q0 -127 -29.5 -213.5t-107.5 -142.5h162v-121h-332v145q82 29 129 105.5t47 177.5v588q0 132 -76 212.5t-202 80.5q-129 0 -205 -82t-76 -211v-592 q0 -98 47 -173.5t129 -107.5v-143h-331z" />
<glyph unicode="&#x3aa;" horiz-adv-x="421" d="M-23 1532v137h134v-137h-134zM143 0v1425h133v-1425h-133zM315 1532v137h131v-137h-131z" />
<glyph unicode="&#x3ab;" horiz-adv-x="876" d="M14 1425h138q31 -76 89 -214t78 -187q22 -51 61 -150.5t52 -130.5l139 328l148 354h135l-356 -831v-594h-127v594zM201 1532v137h133v-137h-133zM539 1532v137h131v-137h-131z" />
<glyph unicode="&#x3ac;" horiz-adv-x="897" d="M90 477q0 71 4.5 129t15.5 123.5t34 115t57 91.5t87.5 64t121.5 22q159 0 243 -129q1 0 2 1t2 1v115h127v-1010h-127v127q-1 0 -2 1t-2 1q-91 -139 -250 -139q-65 0 -116 18t-84.5 53t-56.5 77.5t-34.5 100.5t-16.5 114t-5 124zM221 481q0 -67 5.5 -119.5t19.5 -101 t37.5 -80t61.5 -50.5t89 -19q223 0 223 381q0 51 -1.5 87.5t-6.5 82.5t-13.5 78.5t-25 65.5t-39 53t-56 33t-75.5 13q-49 0 -86.5 -18t-60.5 -52.5t-38 -72t-22 -91.5t-9 -94.5t-3 -95.5zM377 1171l145 332l125 -43l-196 -321z" />
<glyph unicode="&#x3ad;" horiz-adv-x="774" d="M90 289q0 72 38 139.5t120 97.5v2q-148 46 -148 213q0 122 86.5 202.5t243.5 80.5q114 0 194.5 -48t116.5 -134q-51 -29 -104 -64q-25 56 -80.5 89.5t-124.5 33.5q-93 0 -148 -42t-55 -122q0 -73 49.5 -111t135.5 -38h127v-113h-135q-75 0 -132 -49.5t-57 -136.5 q0 -88 61.5 -134t161.5 -46q65 0 118.5 32.5t76.5 85.5q88 -47 108 -59q-35 -84 -116.5 -131t-190.5 -47q-167 0 -256.5 77t-89.5 222zM346 1171l146 332l124 -43l-196 -321z" />
<glyph unicode="&#x3ae;" horiz-adv-x="899" d="M104 0v1012h129v-125h5q42 67 110.5 102t147.5 35q135 0 215 -84t80 -225v-715h-129v672q0 105 -54.5 164t-154.5 59q-99 0 -159.5 -66t-60.5 -170v-659h-129zM330 1171l145 332l125 -43l-197 -321z" />
<glyph unicode="&#x3af;" horiz-adv-x="415" d="M125 184v824h127v-807q0 -56 16.5 -74.5t61.5 -20.5h4q0 -19 -1 -55t-1 -53q-32 -4 -49 -4q-78 0 -118 45.5t-40 144.5zM139 1171l146 332l125 -43l-197 -321z" />
<glyph unicode="&#x3b0;" horiz-adv-x="903" d="M106 346v664h125v-652q0 -256 220 -256q115 0 168 70.5t53 228.5v609h123v-535q0 -196 -23 -272q-29 -102 -115 -158.5t-213 -56.5q-121 0 -201.5 51.5t-113.5 142.5q-23 61 -23 164zM174 1212v142h129v-142h-129zM336 1171l145 332l129 -43l-196 -321zM594 1212v142h129 v-142h-129z" />
<glyph unicode="&#x3b1;" horiz-adv-x="897" d="M90 477q0 71 4.5 129t15.5 123.5t34 115t57 91.5t87.5 64t121.5 22q159 0 243 -129q1 0 2 1t2 1v115h127v-1010h-127v127q-1 0 -2 1t-2 1q-91 -139 -250 -139q-65 0 -116 18t-84.5 53t-56.5 77.5t-34.5 100.5t-16.5 114t-5 124zM221 481q0 -67 5.5 -119.5t19.5 -101 t37.5 -80t61.5 -50.5t89 -19q223 0 223 381q0 51 -1.5 87.5t-6.5 82.5t-13.5 78.5t-25 65.5t-39 53t-56 33t-75.5 13q-49 0 -86.5 -18t-60.5 -52.5t-38 -72t-22 -91.5t-9 -94.5t-3 -95.5z" />
<glyph unicode="&#x3b2;" horiz-adv-x="892" d="M109 -293v1348q0 90 4 133q11 137 96.5 217t228.5 80q159 0 240.5 -96.5t81.5 -253.5q0 -216 -144 -287v-2q105 -28 146 -117t41 -260q0 -85 -8.5 -153t-30.5 -131t-57.5 -105t-92.5 -67t-133 -25q-165 0 -243 125h-2q0 -67 -1.5 -203t-1.5 -203h-124zM233 481 q0 -120 13 -196q16 -80 66 -130.5t134 -50.5q57 0 98.5 21t65.5 53.5t38.5 83t19 99.5t4.5 112q-1 74 -10.5 127.5t-31.5 97t-62.5 65t-98.5 21.5h-113v111h93q182 0 182 231q0 108 -47.5 176t-149.5 68q-92 0 -138.5 -53.5t-55.5 -134.5q-7 -58 -7 -95v-606z" />
<glyph unicode="&#x3b3;" horiz-adv-x="784" d="M6 1008q32 12 78 12q59 0 89.5 -39.5t55.5 -122.5q89 -296 172 -606h11q19 67 53.5 188.5t46.5 163.5q14 44 58 188t69 220h135q-165 -503 -307 -975v-438h-127v426q-137 492 -236 794q-17 53 -29.5 65.5t-47.5 12.5h-11z" />
<glyph unicode="&#x3b4;" horiz-adv-x="860" d="M80 487q0 195 47 297q61 128 192 172q-155 98 -155 248q0 133 91.5 207t246.5 74q114 0 229 -41q-15 -56 -33 -111q-106 37 -196 37q-91 0 -148 -40t-57 -116q0 -72 52.5 -122.5t160.5 -100.5q158 -72 213 -153q68 -91 68 -349q0 -75 -2 -118.5t-14 -105.5t-36 -109 q-42 -84 -125 -126t-184 -42q-201 0 -285 125q-42 72 -53.5 151t-11.5 223zM207 475q0 -171 31 -248q47 -127 198 -127q165 0 211 162q19 72 19 213q0 68 -1 99t-10 84.5t-28 89.5q-55 99 -185 137q-147 -29 -200 -146q-35 -71 -35 -264z" />
<glyph unicode="&#x3b5;" horiz-adv-x="774" d="M90 289q0 72 38 139.5t120 97.5v2q-148 46 -148 213q0 122 86.5 202.5t243.5 80.5q114 0 194.5 -48t116.5 -134q-51 -29 -104 -64q-25 56 -80.5 89.5t-124.5 33.5q-93 0 -148 -42t-55 -122q0 -73 49.5 -111t135.5 -38h127v-113h-135q-75 0 -132 -49.5t-57 -136.5 q0 -88 61.5 -134t161.5 -46q65 0 118.5 32.5t76.5 85.5q88 -47 108 -59q-35 -84 -116.5 -131t-190.5 -47q-167 0 -256.5 77t-89.5 222z" />
<glyph unicode="&#x3b6;" horiz-adv-x="712" d="M70 401q0 179 144.5 428t414.5 490h-486v119h658v-115q-277 -239 -437.5 -485t-160.5 -435q0 -90 47 -142t149 -95q206 -91 237 -107q75 -40 92 -83q9 -22 9 -52q0 -105 -153 -282l-92 65q100 138 100 195q0 26 -24 44.5t-76 41.5q-13 5 -40 16q-44 18 -65 26.5t-59 25 t-57 27.5t-48.5 28.5t-45 33t-36.5 37t-31 43.5t-21 49.5t-15 59t-4 67.5z" />
<glyph unicode="&#x3b7;" horiz-adv-x="899" d="M104 0v1012h129v-125h5q42 67 110.5 102t147.5 35q135 0 215 -84t80 -225v-715h-129v672q0 105 -54.5 164t-154.5 59q-99 0 -159.5 -66t-60.5 -170v-659h-129z" />
<glyph unicode="&#x3b8;" horiz-adv-x="862" d="M82 498v469q0 248 53 348q81 174 303 174q207 0 295 -162q51 -109 51 -373v-471q0 -206 -34 -297q-67 -200 -324 -200q-208 0 -289 161q-55 99 -55 351zM209 479q0 -186 37 -264q52 -113 190 -113t191 129q30 59 30 265v223h-448v-240zM209 825h448v138q0 201 -30 284 q-52 125 -191 125q-130 0 -184 -110q-40 -76 -43 -312v-125z" />
<glyph unicode="&#x3b9;" horiz-adv-x="415" d="M125 184v824h127v-807q0 -56 16.5 -74.5t61.5 -20.5h4q0 -19 -1 -55t-1 -53q-32 -4 -49 -4q-78 0 -118 45.5t-40 144.5z" />
<glyph unicode="&#x3ba;" horiz-adv-x="866" d="M115 0v1012h127v-545h2q42 55 209.5 280t197.5 265h148l-285 -381l344 -631h-141l-285 528q-18 -23 -95 -128.5t-95 -129.5v-270h-127z" />
<glyph unicode="&#x3bb;" horiz-adv-x="798" d="M8 0q62 178 175 509.5t161 471.5l-74 279q-16 59 -38.5 82.5t-73.5 23.5q-23 0 -35 -2l-8 113q48 10 82 10q123 0 170 -119q6 -14 14.5 -44t11.5 -40q138 -493 309 -1089q16 -56 32 -73.5t57 -17.5q0 -38 4 -104q-30 -6 -64 -6q-80 0 -115 72q-13 25 -30 81 q-76 250 -113 390q-7 25 -30 109t-37 130h-5q-117 -363 -118 -366l-142 -410h-133z" />
<glyph unicode="&#x3bc;" horiz-adv-x="915" d="M117 -414v1424h129v-633q0 -121 52.5 -191.5t160.5 -70.5q113 0 166 83t53 218v594h125v-1010h-125v121h-6q-41 -66 -109 -98.5t-147 -32.5q-105 0 -168 57q0 -40 -1 -230t-1 -231h-129z" />
<glyph unicode="&#x3bd;" horiz-adv-x="782" d="M14 1010h133l140 -465l100 -359h6l103 361q60 202 133 463h137l-313 -1010h-127q-48 159 -153.5 496t-158.5 514z" />
<glyph unicode="&#x3be;" horiz-adv-x="722" d="M72 420q0 299 207 385q-185 57 -185 311q0 167 91 268t266 101q94 0 177.5 -38t127.5 -116q-89 -72 -92 -74q-91 107 -224 107q-98 0 -156.5 -65.5t-58.5 -182.5q0 -115 65.5 -184.5t194.5 -69.5h162v-110h-196q-122 0 -185 -93t-63 -235q0 -121 50.5 -187.5 t154.5 -103.5q178 -64 250.5 -111t72.5 -116q0 -91 -125 -264q-18 9 -50.5 27t-47.5 26q82 137 82 176q0 21 -20 41t-57 38.5t-72.5 32.5t-82.5 31.5t-71 28.5q-110 49 -162.5 137t-52.5 240z" />
<glyph unicode="&#x3bf;" horiz-adv-x="878" d="M82 500q0 223 39 325q38 96 121.5 147.5t201.5 51.5q191 0 281 -143q68 -96 68 -377q0 -82 -10 -175t-27 -143q-36 -104 -122.5 -152t-205.5 -48q-191 0 -274 139q-72 101 -72 375zM209 485q0 -213 49 -286q56 -97 178 -97q71 0 125 35.5t78 104.5q25 66 25 272 q0 190 -31 266q-24 62 -74.5 94.5t-118.5 32.5q-66 0 -117.5 -30t-78.5 -89q-35 -66 -35 -303z" />
<glyph unicode="&#x3c0;" horiz-adv-x="923" d="M119 0v1012h686v-1012h-129v899h-428v-899h-129z" />
<glyph unicode="&#x3c1;" horiz-adv-x="884" d="M94 -406v904q0 222 37 323q37 97 118 149t197 52q104 0 183 -44t116 -120q52 -106 52 -371q0 -232 -66 -348q-83 -151 -274 -151q-159 0 -234 112q0 -2 -2 -2v-504h-127zM219 485q0 -185 27 -252q55 -133 194 -133q71 0 126 38t79 108q25 71 25 235q0 229 -31 299 q-24 62 -75 94.5t-120 32.5q-132 0 -190 -119q-35 -71 -35 -303z" />
<glyph unicode="&#x3c2;" horiz-adv-x="765" d="M92 514q5 262 92 385t279 123q111 0 195 -50t114 -145l-106 -57q-27 64 -83.5 97.5t-125.5 33.5q-122 0 -179 -92.5t-57 -316.5q0 -133 30.5 -198.5t115.5 -115.5q39 -20 94 -46.5t84.5 -41t65.5 -36t53.5 -39t30 -42.5t12.5 -55q0 -96 -125 -258q-82 50 -99 59 q80 121 80 170q0 57 -102 99q-82 31 -135 57t-97.5 59t-68.5 67.5t-40.5 86t-22 111t-5.5 145.5z" />
<glyph unicode="&#x3c3;" horiz-adv-x="888" d="M80 498q0 232 57 340q36 84 115 128t180 44h420v-109h-186q93 -64 108 -203q12 -78 12 -211t-20 -239q-28 -136 -117.5 -198t-222.5 -62q-261 0 -324 237q-22 93 -22 273zM205 485q0 -10 1 -29q2 -72 4 -107.5t11 -80t25 -71.5q45 -95 188 -95q61 0 111.5 30.5t77.5 80.5 q36 69 36 287q0 202 -50.5 294.5t-174.5 92.5q-132 0 -186 -111q-40 -76 -43 -291z" />
<glyph unicode="&#x3c4;" horiz-adv-x="565" d="M23 897v115h526v-115h-211v-637q0 -72 26 -106.5t93 -34.5h63v-119h-92q-108 0 -163.5 60.5t-55.5 166.5v670h-186z" />
<glyph unicode="&#x3c5;" horiz-adv-x="903" d="M106 346v664h125v-652q0 -256 220 -256q115 0 168 70.5t53 228.5v609h123v-535q0 -196 -23 -272q-29 -102 -115 -158.5t-213 -56.5q-121 0 -201.5 51.5t-113.5 142.5q-23 61 -23 164z" />
<glyph unicode="&#x3c6;" horiz-adv-x="1062" d="M82 498q0 128 10.5 215t42.5 143q60 102 172 141l41 -110q-92 -37 -121 -139q-20 -76 -20 -277q0 -164 26 -227q54 -138 232 -144v922h141q247 0 330 -176q28 -59 37.5 -143.5t9.5 -210.5q0 -155 -18 -238q-24 -128 -122.5 -195.5t-248.5 -70.5v-391h-129v391 q-144 6 -232.5 57.5t-126.5 163.5q-24 76 -24 289zM594 102q204 10 248 166q14 53 14 228q0 205 -20 264q-23 69 -86 106t-156 39v-803z" />
<glyph unicode="&#x3c7;" horiz-adv-x="780" d="M27 0l290 520l-276 492h145l205 -400l203 400h145l-278 -494l293 -518h-144l-219 420l-221 -420h-143z" />
<glyph unicode="&#x3c8;" horiz-adv-x="1103" d="M109 322v688h127v-670q0 -99 67.5 -163t183.5 -68v921h129v-921q113 5 183.5 67t70.5 166v668h129v-680q0 -154 -107.5 -245t-275.5 -97v-402h-129v402q-166 6 -272 96.5t-106 237.5z" />
<glyph unicode="&#x3c9;" horiz-adv-x="1314" d="M76 500q0 255 65.5 378.5t237.5 141.5q8 -84 10 -119q-102 -15 -143 -106.5t-41 -309.5q0 -199 44 -289t157 -90q46 0 80 16t53.5 40.5t30.5 62.5t14.5 73t3.5 81v346h129v-356q0 -265 194 -265q111 0 157 91.5t46 285.5q0 219 -40 312t-142 108l12 119q73 -7 125.5 -34 t86 -69t53 -108t27 -140t7.5 -175q0 -119 -15 -206.5t-51 -157.5t-102.5 -106t-163.5 -36q-76 0 -146.5 35.5t-107.5 109.5h-4q-83 -145 -247 -145q-81 0 -140 25t-95.5 67.5t-58 110t-29 140t-7.5 169.5z" />
<glyph unicode="&#x3ca;" horiz-adv-x="415" d="M-45 1219v139h133v-139h-133zM125 184v824h127v-807q0 -56 16.5 -74.5t61.5 -20.5h4q0 -19 -1 -55t-1 -53q-32 -4 -49 -4q-78 0 -118 45.5t-40 144.5zM299 1219v139h129v-139h-129z" />
<glyph unicode="&#x3cb;" horiz-adv-x="903" d="M106 346v664h125v-652q0 -256 220 -256q115 0 168 70.5t53 228.5v609h123v-535q0 -196 -23 -272q-29 -102 -115 -158.5t-213 -56.5q-121 0 -201.5 51.5t-113.5 142.5q-23 61 -23 164zM209 1219v139h133v-139h-133zM553 1219v139h129v-139h-129z" />
<glyph unicode="&#x3cc;" horiz-adv-x="878" d="M82 500q0 223 39 325q38 96 121.5 147.5t201.5 51.5q191 0 281 -143q68 -96 68 -377q0 -82 -10 -175t-27 -143q-36 -104 -122.5 -152t-205.5 -48q-191 0 -274 139q-72 101 -72 375zM209 485q0 -213 49 -286q56 -97 178 -97q71 0 125 35.5t78 104.5q25 66 25 272 q0 190 -31 266q-24 62 -74.5 94.5t-118.5 32.5q-66 0 -117.5 -30t-78.5 -89q-35 -66 -35 -303zM367 1171l145 332l125 -43l-197 -321z" />
<glyph unicode="&#x3cd;" horiz-adv-x="903" d="M106 346v664h125v-652q0 -256 220 -256q115 0 168 70.5t53 228.5v609h123v-535q0 -196 -23 -272q-29 -102 -115 -158.5t-213 -56.5q-121 0 -201.5 51.5t-113.5 142.5q-23 61 -23 164zM377 1171l145 332l125 -43l-196 -321z" />
<glyph unicode="&#x3ce;" horiz-adv-x="1314" d="M76 500q0 255 65.5 378.5t237.5 141.5q8 -84 10 -119q-102 -15 -143 -106.5t-41 -309.5q0 -199 44 -289t157 -90q46 0 80 16t53.5 40.5t30.5 62.5t14.5 73t3.5 81v346h129v-356q0 -265 194 -265q111 0 157 91.5t46 285.5q0 219 -40 312t-142 108l12 119q73 -7 125.5 -34 t86 -69t53 -108t27 -140t7.5 -175q0 -119 -15 -206.5t-51 -157.5t-102.5 -106t-163.5 -36q-76 0 -146.5 35.5t-107.5 109.5h-4q-83 -145 -247 -145q-81 0 -140 25t-95.5 67.5t-58 110t-29 140t-7.5 169.5zM582 1171l145 332l125 -43l-197 -321z" />
<glyph unicode="&#x401;" horiz-adv-x="919" d="M133 0v1425h741v-122h-610v-519h524v-118h-524v-539h610v-127h-741zM260 1532v137h133v-137h-133zM598 1532v137h131v-137h-131z" />
<glyph unicode="&#x402;" horiz-adv-x="1210" d="M10 1307v116h891v-116h-432v-463h4q72 57 153 89t154 32q179 0 260.5 -117.5t81.5 -372.5q0 -259 -101 -387t-323 -115v107q161 -1 227 95.5t66 293.5q0 71 -5.5 124.5t-21 102t-41 79t-67 48t-98.5 17.5q-84 0 -159 -35t-130 -94v-711h-131v1307h-328z" />
<glyph unicode="&#x403;" horiz-adv-x="890" d="M133 0v1425h729v-122h-596v-1303h-133zM346 1552l283 232l92 -98l-322 -197z" />
<glyph unicode="&#x404;" horiz-adv-x="946" d="M102 408v612q0 185 109 300.5t301 115.5q142 0 245.5 -69.5t139.5 -195.5l-125 -49q-23 89 -91.5 139t-168.5 50q-132 0 -205.5 -82.5t-73.5 -208.5v-238h469v-123h-469v-258q0 -124 74.5 -207t204.5 -83q99 0 168 50.5t94 143.5l125 -47q-36 -129 -140 -199.5 t-247 -70.5q-195 0 -302.5 108.5t-107.5 311.5z" />
<glyph unicode="&#x405;" horiz-adv-x="964" d="M53 225l117 68q103 -180 311 -180q138 0 206.5 72t68.5 196q0 64 -18 110t-58 78.5t-84.5 53t-116.5 43.5q-214 65 -301.5 148.5t-87.5 240.5q0 170 107.5 276.5t291.5 106.5q147 0 238.5 -48.5t146.5 -138.5l-114 -77q-42 71 -108.5 105t-168.5 34q-123 0 -190.5 -72.5 t-67.5 -185.5q0 -39 10 -71t32.5 -57.5t47 -44.5t66 -38t76.5 -31.5t90 -30.5q188 -60 268 -148t80 -253q0 -182 -109.5 -288.5t-306.5 -106.5q-156 0 -263 63t-163 176z" />
<glyph unicode="&#x406;" horiz-adv-x="421" d="M143 0v1425h133v-1425h-133z" />
<glyph unicode="&#x407;" horiz-adv-x="421" d="M-25 1585v139h134v-139h-134zM143 0v1425h133v-1425h-133zM319 1585v139h130v-139h-130z" />
<glyph unicode="&#x408;" horiz-adv-x="811" d="M10 104l94 89q84 -80 181 -80q115 0 183.5 60.5t68.5 197.5v1054h135v-1065q0 -95 -29.5 -168t-82.5 -117t-121 -65.5t-150 -21.5q-84 0 -158.5 30t-120.5 86z" />
<glyph unicode="&#x409;" horiz-adv-x="1587" d="M14 72q42 23 67 41t54.5 48.5t46 68.5t31.5 94.5t21 135.5t6 183v782h620v-618h277q105 0 184 -31t125.5 -86t69 -124t22.5 -152q0 -199 -106.5 -306.5t-303.5 -107.5h-401v1307h-362v-641q0 -176 -18 -296.5t-58 -199.5t-93 -124t-135 -79zM860 123h264q141 0 210 75.5 t69 211.5q0 125 -67 200.5t-210 75.5h-266v-563z" />
<glyph unicode="&#x40a;" horiz-adv-x="1597" d="M131 0v1425h133v-626h477v626h136v-626h260q211 0 313 -102.5t102 -286.5q0 -199 -105 -304.5t-302 -105.5h-404v676h-477v-676h-133zM877 123h264q140 0 208 73t68 210q0 122 -68.5 195t-213.5 73h-258v-551z" />
<glyph unicode="&#x40b;" horiz-adv-x="1220" d="M14 1309v116h904v-116h-441v-451l4 -4q134 109 303 109q161 0 245.5 -88.5t84.5 -243.5l2 -631h-133v567q0 129 -51 201t-176 72q-82 0 -155 -35t-124 -94v-711h-133v1309h-330z" />
<glyph unicode="&#x40c;" horiz-adv-x="1003" d="M129 0v1423h133v-632h191q194 0 254 215l118 417h125l-110 -413q-62 -228 -195 -269q85 -25 132.5 -94.5t76.5 -185.5l121 -461h-137l-113 444q-18 70 -44.5 116.5t-61.5 70t-70 32.5t-80 9h-207v-672h-133zM406 1552l284 230l90 -99l-319 -194z" />
<glyph unicode="&#x40e;" horiz-adv-x="915" d="M31 1423h135q86 -266 297 -901h6q29 87 143 454.5t140 446.5h133q-103 -313 -365 -1120q-31 -98 -64.5 -161.5t-71.5 -95.5t-74.5 -43.5t-86.5 -12.5h-88v114h74q111 0 166 162q20 69 22 76q-60 180 -182.5 540.5t-183.5 540.5zM201 1688h108q6 -55 51.5 -98.5 t106.5 -43.5q65 0 111 43t51 99h106q-5 -43 -21 -82.5t-45.5 -77.5t-81.5 -61t-120 -23q-67 0 -119.5 23t-82.5 60.5t-46 78t-18 82.5z" />
<glyph unicode="&#x40f;" horiz-adv-x="1062" d="M133 0v1425h131v-1300h535v1300h135v-1425h-334l2 -313h-141l2 313h-330z" />
<glyph unicode="&#x410;" horiz-adv-x="1001" d="M20 0l416 1425h129l416 -1425h-137l-96 342h-496l-96 -342h-136zM281 461h436l-125 440l-88 332h-8q-46 -188 -88 -332q-105 -366 -127 -440z" />
<glyph unicode="&#x411;" horiz-adv-x="985" d="M115 0v1425h710v-122h-579v-496h270q207 0 307.5 -108t100.5 -287q0 -199 -106 -305.5t-304 -106.5h-399zM246 125h266q140 0 208 73.5t68 211.5q0 123 -67.5 198.5t-210.5 75.5h-264v-559z" />
<glyph unicode="&#x412;" horiz-adv-x="1028" d="M133 0v1425h410q188 0 283.5 -97.5t95.5 -268.5q0 -70 -16 -125t-59.5 -104.5t-115.5 -81.5v-7q75 -19 124.5 -71.5t70 -119.5t20.5 -147q0 -195 -102 -299t-275 -104h-436zM264 127h287q139 0 200.5 78t61.5 209q0 123 -64 195.5t-194 72.5h-291v-555zM264 799h271 q127 0 191.5 68t64.5 188q0 118 -67 185t-198 67h-262v-508z" />
<glyph unicode="&#x413;" horiz-adv-x="890" d="M133 0v1425h729v-122h-596v-1303h-133z" />
<glyph unicode="&#x414;" horiz-adv-x="1181" d="M25 104l79 13q90 65 124.5 209t45.5 487l19 612h741v-1310h96v-404h-124v289h-856v-289h-125v393zM270 113h631v1196h-487l-19 -539q-10 -266 -36 -417.5t-89 -239.5z" />
<glyph unicode="&#x415;" horiz-adv-x="919" d="M133 0v1425h741v-122h-610v-519h524v-118h-524v-539h610v-127h-741z" />
<glyph unicode="&#x416;" horiz-adv-x="1564" d="M37 0l119 461q31 116 78 185.5t131 94.5q-67 21 -116.5 92t-76.5 177l-113 413h125l117 -417q60 -215 256 -215h160v636h133v-636h160q197 0 254 215l118 417h123l-108 -413q-29 -107 -79 -177.5t-118 -91.5q87 -25 134.5 -94.5t76.5 -185.5l121 -461h-139l-113 444 q-18 70 -45 117t-61.5 70t-69 32t-78.5 9h-176v-672h-133v672h-176q-45 0 -80 -9t-70 -32.5t-61.5 -70t-44.5 -116.5l-113 -444h-135z" />
<glyph unicode="&#x417;" horiz-adv-x="950" d="M29 289q10 4 61 22t62 21q21 -110 98 -169t184 -59q134 0 208 77.5t75 226.5q0 136 -63 211t-171 75h-133v115h127q106 0 167 72.5t61 193.5q0 117 -70.5 177.5t-183.5 60.5q-104 0 -180.5 -59.5t-98.5 -157.5l-125 43q30 139 141.5 218t264.5 79q186 0 284.5 -92 t98.5 -265q0 -42 -8.5 -86t-26.5 -91.5t-53.5 -86t-83.5 -57.5v-6q186 -70 186 -344q0 -197 -109.5 -308.5t-308.5 -111.5q-160 0 -269.5 77.5t-133.5 223.5z" />
<glyph unicode="&#x418;" horiz-adv-x="1122" d="M129 0v1425h129v-1175l8 -2l606 1177h127v-1425h-131v1178h-6l-606 -1178h-127z" />
<glyph unicode="&#x419;" horiz-adv-x="1122" d="M129 0v1425h129v-1175l8 -2l606 1177h127v-1425h-131v1178h-6l-606 -1178h-127zM299 1765h111q6 -55 50.5 -98t106.5 -43q66 0 110.5 42t49.5 99h107q-5 -43 -21 -83t-46 -77.5t-81.5 -60t-118.5 -22.5q-68 0 -120.5 23t-83 60t-46.5 77.5t-18 82.5z" />
<glyph unicode="&#x41a;" horiz-adv-x="1003" d="M129 0v1423h133v-632h191q194 0 254 215l118 417h125l-110 -413q-62 -228 -195 -269q85 -25 132.5 -94.5t76.5 -185.5l121 -461h-137l-113 444q-18 70 -44.5 116.5t-61.5 70t-70 32.5t-80 9h-207v-672h-133z" />
<glyph unicode="&#x41b;" horiz-adv-x="1095" d="M2 70q38 22 61 37.5t51 41t44 52.5t33 68t25.5 92.5t14 121.5t5.5 158v784h722v-1425h-131v1305h-467v-639q0 -179 -17.5 -300t-58 -199.5t-95 -122t-140.5 -75.5q-38 78 -47 101z" />
<glyph unicode="&#x41c;" horiz-adv-x="1325" d="M133 0v1425h133q16 -40 64.5 -151t103.5 -236t66 -151l166 -398h4l170 402l231 534h131v-1425h-131v1102l-6 -2l-162 -389l-190 -432h-95q-17 41 -99.5 229.5t-90.5 206.5l-158 383l-8 -2v-1096h-129z" />
<glyph unicode="&#x41d;" horiz-adv-x="1077" d="M133 0v1425h131v-641h545v641h135v-1425h-135v666h-545v-666h-131z" />
<glyph unicode="&#x41e;" horiz-adv-x="1005" d="M90 424v600q0 80 25 152t73.5 131t130 94t185.5 35q191 0 300 -119.5t109 -292.5v-616q0 -188 -113 -304t-296 -116q-103 0 -183.5 34t-130 93.5t-75 138t-25.5 170.5zM221 422q0 -139 73.5 -226t211.5 -87q117 0 194.5 82t77.5 206v625q0 50 -15.5 99t-47 92.5 t-86.5 70.5t-125 27q-93 0 -159 -44t-95 -108t-29 -137v-600z" />
<glyph unicode="&#x41f;" horiz-adv-x="1067" d="M133 0v1425h803v-1425h-135v1309h-537v-1309h-131z" />
<glyph unicode="&#x420;" horiz-adv-x="978" d="M133 0v1425h402q197 0 302 -105t105 -312q0 -85 -22.5 -158t-68 -132.5t-124.5 -93.5t-184 -34h-277v-590h-133zM266 715h266q75 0 130 23t86.5 65t46 93t14.5 114q0 140 -70 216.5t-209 76.5h-264v-588z" />
<glyph unicode="&#x421;" horiz-adv-x="948" d="M102 403v619q0 183 110.5 298.5t299.5 115.5q143 0 247.5 -72t139.5 -201l-127 -47q-20 91 -89 143t-171 52q-128 0 -203.5 -82t-75.5 -205v-625q0 -124 76 -206t203 -82q101 0 170 52t92 148l125 -45q-31 -133 -136.5 -205.5t-250.5 -72.5q-187 0 -298.5 114.5 t-111.5 300.5z" />
<glyph unicode="&#x422;" horiz-adv-x="821" d="M6 1305v120h807v-120h-336v-1305h-131v1305h-340z" />
<glyph unicode="&#x423;" horiz-adv-x="915" d="M31 1423h135q86 -266 297 -901h6q29 87 143 454.5t140 446.5h133q-103 -313 -365 -1120q-31 -98 -64.5 -161.5t-71.5 -95.5t-74.5 -43.5t-86.5 -12.5h-88v114h74q111 0 166 162q20 69 22 76q-60 180 -182.5 540.5t-183.5 540.5z" />
<glyph unicode="&#x424;" horiz-adv-x="1247" d="M90 735q0 284 109 441t358 174v75h129v-75q128 -6 221.5 -54.5t148 -132.5t80 -190t25.5 -238q0 -582 -475 -618v-117h-129v117q-467 5 -467 618zM219 737q3 -258 80 -374t256 -125v989q-95 -3 -161.5 -38.5t-103.5 -102t-53.5 -151t-17.5 -198.5zM690 238 q177 10 256.5 128.5t79.5 368.5q0 234 -79.5 360t-256.5 132v-989z" />
<glyph unicode="&#x425;" horiz-adv-x="894" d="M12 0l365 735l-342 690h143l271 -569l266 569h145l-344 -690l367 -735h-146l-288 606l-291 -606h-146z" />
<glyph unicode="&#x426;" horiz-adv-x="1087" d="M133 0v1425h133v-1302h541v1302h133v-1304h100v-410h-125v289h-782z" />
<glyph unicode="&#x427;" horiz-adv-x="1021" d="M92 1026v399h129v-389q0 -181 61.5 -259.5t211.5 -78.5q50 0 126 20t138 58v649h133v-1425h-133l-2 659q-143 -73 -291 -73q-186 0 -279.5 104.5t-93.5 335.5z" />
<glyph unicode="&#x428;" horiz-adv-x="1564" d="M129 0v1425h131v-1300h453v1300h133v-1300h459v1300h133v-1425h-1309z" />
<glyph unicode="&#x429;" horiz-adv-x="1589" d="M127 0v1425h133v-1300h451v1300h135v-1300h457v1300h133v-1302h104v-412h-125v289h-1288z" />
<glyph unicode="&#x42a;" horiz-adv-x="1247" d="M23 1303v122h499v-616h277q104 0 182.5 -30t125.5 -84.5t70 -125t23 -157.5q0 -201 -105.5 -306.5t-301.5 -105.5h-402v1303h-368zM522 123h269q138 0 207 74.5t69 212.5q0 128 -69.5 201t-215.5 73h-260v-561z" />
<glyph unicode="&#x42b;" horiz-adv-x="1339" d="M139 0v1425h131v-618h271q106 0 185 -29.5t126.5 -84t70.5 -124.5t23 -157q0 -199 -105 -305.5t-302 -106.5h-400zM270 123h267q138 0 207 74.5t69 212.5q0 121 -68.5 197.5t-209.5 76.5h-265v-561zM1075 0v1425h133v-1425h-133z" />
<glyph unicode="&#x42c;" horiz-adv-x="972" d="M113 0v1425h133v-616h268q207 0 308.5 -109t101.5 -288q0 -199 -106 -305.5t-304 -106.5h-401zM246 123h264q276 0 276 287q0 127 -69.5 200.5t-210.5 73.5h-260v-561z" />
<glyph unicode="&#x42d;" horiz-adv-x="952" d="M43 268l127 45q25 -99 91 -151.5t165 -52.5q74 0 129.5 26t87.5 71.5t47 101t15 120.5v240h-435v123h435v202q0 145 -67 233.5t-206 88.5q-98 0 -167.5 -54.5t-94.5 -148.5l-125 45q36 131 138.5 206t252.5 75q109 0 189 -34.5t124.5 -96.5t65.5 -137.5t21 -168.5v-579 q0 -199 -105.5 -317.5t-304.5 -118.5q-149 0 -249 73.5t-134 208.5z" />
<glyph unicode="&#x42e;" horiz-adv-x="1316" d="M123 0v1425h133v-643h182v252q0 80 23.5 150.5t69.5 127.5t123.5 90.5t176.5 33.5q128 0 218.5 -55t132 -144t41.5 -203v-643q0 -191 -108 -297t-284 -106q-134 0 -224 56t-129.5 148t-39.5 216v258h-182v-666h-133zM567 1030l2 -620q0 -139 67 -220t198 -81 q112 0 182.5 72t70.5 200v649q0 51 -14 98.5t-42.5 89.5t-80 67.5t-119.5 25.5t-120.5 -24t-83 -65t-45.5 -89.5t-15 -102.5z" />
<glyph unicode="&#x42f;" horiz-adv-x="1046" d="M55 0l105 436q26 102 63 162t107 90q-217 62 -217 334q0 185 101.5 294t287.5 109h411v-1425h-131v651h-233q-199 0 -256 -231l-100 -420h-138zM244 1022q0 -129 74.5 -191.5t205.5 -62.5h258v539h-258q-135 0 -207.5 -75.5t-72.5 -209.5z" />
<glyph unicode="&#x430;" horiz-adv-x="856" d="M70 279q0 138 83.5 223.5t252.5 85.5h225v139q0 83 -51.5 129.5t-151.5 46.5q-156 0 -215 -100q-17 9 -53 33l-45 30q43 75 124.5 116.5t188.5 41.5q334 0 334 -299v-725h-131v84l-6 2q-73 -98 -260 -98q-142 0 -218.5 81t-76.5 210zM190 287q0 -82 54.5 -131.5 t156.5 -49.5q99 0 164.5 46t65.5 143v180h-230q-96 0 -153.5 -47t-57.5 -141z" />
<glyph unicode="&#x431;" horiz-adv-x="876" d="M82 524q4 247 16 332q11 147 48.5 247t98.5 161.5t156 103.5q50 23 154.5 62t149.5 57l36 -96q-56 -26 -131.5 -54.5t-126.5 -51t-94 -52.5q-92 -62 -129 -151.5t-47 -233.5q4 0 4 -2q45 67 114 102t138 35q204 0 279 -162q47 -104 47 -348q0 -195 -56 -307 q-42 -93 -124 -136.5t-183 -43.5q-210 0 -291 155q-59 109 -59 383zM211 465q0 -176 33 -248q53 -115 196 -115q64 0 114 29.5t77 87.5q37 70 37 260q0 185 -27 262q-24 62 -69.5 93.5t-122.5 31.5q-141 0 -197 -125q-41 -82 -41 -276z" />
<glyph unicode="&#x432;" horiz-adv-x="856" d="M106 0v1010h375q142 0 216.5 -72.5t74.5 -196.5q0 -152 -127 -213h2q76 -27 110 -90.5t34 -142.5q0 -147 -89 -221t-229 -74h-367zM233 117h218q213 0 213 182q0 79 -48.5 123.5t-150.5 44.5h-232v-350zM233 578h205q93 0 150 39.5t57 121.5q0 73 -54.5 114.5 t-148.5 41.5h-209v-317z" />
<glyph unicode="&#x433;" horiz-adv-x="743" d="M106 0v1012h617v-113h-490v-899h-127z" />
<glyph unicode="&#x434;" horiz-adv-x="997" d="M29 100l75 13q64 46 88 134t39 320l19 443h612v-897h84v-377h-123v264h-671v-264h-123v364zM260 113h475v786h-368q-5 -139 -8 -208t-10.5 -181t-18 -174.5t-28.5 -126t-42 -96.5z" />
<glyph unicode="&#x435;" horiz-adv-x="851" d="M76 512q0 512 354 512q178 0 263 -114.5t85 -309.5v-127h-575q0 -88 10.5 -152t36.5 -115.5t74.5 -77.5t119.5 -26q63 0 117 36.5t80 90.5l109 -55q-38 -87 -118.5 -136.5t-180.5 -49.5q-209 0 -292 124.5t-83 399.5zM207 578h442v4q0 76 -9 130.5t-32 99.5t-67 68 t-109 23q-63 0 -107.5 -24t-69 -70t-35.5 -101.5t-13 -129.5z" />
<glyph unicode="&#x436;" horiz-adv-x="1294" d="M31 0l92 330q24 85 57 133.5t96 62.5q-52 14 -85.5 63t-57.5 130l-84 291h123l86 -299q17 -60 51.5 -94.5t67.5 -44t76 -9.5h129v447h127v-447h129q69 0 119 31t75 117q6 24 42.5 150t43.5 149h123q-77 -270 -84 -291q-24 -81 -57.5 -130t-85.5 -63q63 -14 96 -62.5 t57 -133.5l95 -330h-129l-80 297q-25 93 -71.5 126.5t-123.5 33.5h-149v-457h-127v457h-148q-76 0 -123 -33.5t-73 -126.5l-80 -297h-127z" />
<glyph unicode="&#x437;" horiz-adv-x="786" d="M25 168l102 55q23 -58 84.5 -89.5t142.5 -31.5q97 0 158 49.5t61 143.5q0 87 -49 132.5t-129 45.5h-121v107h123q76 0 121 42.5t45 120.5q0 76 -51.5 118t-138.5 42q-80 0 -139 -30t-84 -89l-99 58q34 86 121 133t197 47q158 0 240.5 -71.5t82.5 -198.5q0 -69 -32 -132.5 t-101 -91.5q81 -34 112 -92.5t31 -142.5q0 -145 -94 -225t-252 -80q-120 0 -208 44.5t-123 135.5z" />
<glyph unicode="&#x438;" horiz-adv-x="978" d="M115 0v1008h131v-789h2l211 338q46 73 145 234t135 217h123v-1008h-131v774h-6l-205 -323l-282 -451h-123z" />
<glyph unicode="&#x439;" horiz-adv-x="978" d="M115 0v1008h131v-789h2l211 338q46 73 145 234t135 217h123v-1008h-131v774h-6l-205 -323l-282 -451h-123zM213 1413h111q8 -56 53 -99.5t108 -43.5q68 0 112.5 42.5t49.5 100.5h107q-5 -43 -21.5 -83t-46.5 -77.5t-82.5 -60.5t-120.5 -23q-67 0 -120 23t-83.5 60.5 t-47 78t-19.5 82.5z" />
<glyph unicode="&#x43a;" horiz-adv-x="837" d="M98 0v1012h127v-449h152q44 0 77 9.5t66.5 44.5t50.5 96l86 299h123l-84 -293q-49 -166 -143 -191q64 -16 97.5 -64.5t56.5 -133.5l94 -330h-129l-82 297q-26 93 -72.5 126.5t-122.5 33.5h-170v-457h-127z" />
<glyph unicode="&#x43b;" horiz-adv-x="901" d="M10 70q58 32 89 60t54.5 82t31.5 133.5t8 211.5v453h598v-1010h-129v899h-349v-410q0 -163 -28 -266.5t-82.5 -161.5t-147.5 -92q-5 12 -21.5 48t-23.5 53z" />
<glyph unicode="&#x43c;" horiz-adv-x="1105" d="M106 0v1010h125q61 -123 187 -365l141 -280l154 307q78 155 172 338h123v-1010h-129v741l-99 -198q-136 -262 -180 -353h-86q-11 21 -137 267l-139 278h-2v-735h-130z" />
<glyph unicode="&#x43d;" horiz-adv-x="894" d="M106 0v1012h130v-443h423v443h132v-1012h-132v461h-423v-461h-130z" />
<glyph unicode="&#x43e;" horiz-adv-x="878" d="M82 500q0 223 39 325q38 96 121.5 147.5t201.5 51.5q191 0 281 -143q68 -96 68 -377q0 -82 -10 -175t-27 -143q-36 -104 -122.5 -152t-205.5 -48q-191 0 -274 139q-72 101 -72 375zM209 485q0 -213 49 -286q56 -97 178 -97q71 0 125 35.5t78 104.5q25 66 25 272 q0 190 -31 266q-24 62 -74.5 94.5t-118.5 32.5q-66 0 -117.5 -30t-78.5 -89q-35 -66 -35 -303z" />
<glyph unicode="&#x43f;" horiz-adv-x="923" d="M119 0v1012h686v-1012h-129v899h-428v-899h-129z" />
<glyph unicode="&#x440;" horiz-adv-x="874" d="M92 -412v1422h127v-115l4 -2q83 131 248 131q58 0 105 -15t79.5 -39.5t56 -63.5t37.5 -80.5t22 -97t10.5 -105.5t2.5 -113q0 -71 -4.5 -128.5t-16.5 -120t-35.5 -109t-58.5 -84.5t-89 -58t-123 -20q-142 0 -234 119h-4v-521h-127zM219 508q0 -44 1 -74.5t5.5 -75 t12.5 -75.5t24 -65.5t38 -55t55.5 -35t76.5 -14.5q58 0 100 22.5t65.5 57t37 89.5t17 105t3.5 119q0 73 -4 125t-17 106.5t-36.5 88.5t-64 55.5t-97.5 21.5q-44 0 -79 -14t-57.5 -34t-38.5 -55t-24 -64.5t-12 -75.5t-5 -75.5t-1 -76.5z" />
<glyph unicode="&#x441;" horiz-adv-x="776" d="M66 520q0 89 12 163t39.5 138t70 108.5t106.5 69.5t146 25q107 0 183.5 -48t115.5 -134l-108 -64q-22 58 -72 91.5t-117 33.5q-62 0 -107.5 -21.5t-72 -55.5t-42 -86.5t-20.5 -103.5t-5 -118q0 -68 5 -122t20.5 -110t41.5 -94t71 -62t105 -24q67 0 117.5 33t73.5 86 q53 -30 108 -57q-37 -85 -115.5 -132.5t-185.5 -47.5q-89 0 -155 26.5t-106.5 71.5t-65.5 114.5t-34 145.5t-9 174z" />
<glyph unicode="&#x442;" horiz-adv-x="684" d="M2 899v111h680v-111h-276v-899h-130v899h-274z" />
<glyph unicode="&#x443;" horiz-adv-x="768" d="M6 1010h137q24 -80 69 -225.5t62 -200.5q12 -40 56 -191.5t57 -191.5h4q27 98 125 428t113 381h133l-375 -1225q-61 -201 -242 -201h-47v111h41q56 0 89.5 38t54.5 115l49 164q-58 173 -165.5 506.5t-160.5 491.5z" />
<glyph unicode="&#x444;" horiz-adv-x="1058" d="M76 500q0 205 45 317q41 99 129.5 152t212.5 55v422h125q0 -69 1 -210t1 -212q122 -3 206.5 -50t125.5 -128q53 -108 53 -348q0 -256 -68 -361q-91 -141 -317 -151q0 -64 -1 -194t-1 -195h-125v389q-120 9 -196.5 38t-121.5 105q-69 112 -69 371zM203 485q0 -203 41 -276 q59 -104 217 -111q0 134 1 402.5t1 402.5q-76 -2 -136.5 -33t-88.5 -88q-35 -71 -35 -297zM588 98q85 3 146.5 37t86.5 98q29 57 29 248q0 218 -35 297q-53 118 -227 125v-805z" />
<glyph unicode="&#x445;" horiz-adv-x="780" d="M27 0l290 520l-276 492h145l205 -400l203 400h145l-278 -494l293 -518h-144l-219 420l-221 -420h-143z" />
<glyph unicode="&#x446;" horiz-adv-x="927" d="M106 0v1010h130v-893h428v893h127v-893h96v-381h-121v264h-660z" />
<glyph unicode="&#x447;" horiz-adv-x="839" d="M61 666v346h127v-322q0 -100 46 -147t141 -47q53 0 119.5 20.5t119.5 56.5v439h127v-1012h-129v455q-60 -36 -133.5 -57t-134.5 -21q-136 0 -209.5 71t-73.5 218z" />
<glyph unicode="&#x448;" horiz-adv-x="1359" d="M111 0v1012h127v-893h374v893h129v-893h383v893h127v-1012h-1140z" />
<glyph unicode="&#x449;" horiz-adv-x="1396" d="M109 0v1010h124v-893h379v893h127v-893h383v893h125v-893h96v-369h-118v252h-1116z" />
<glyph unicode="&#x44a;" horiz-adv-x="1046" d="M20 899v113h433v-412h221q91 0 157.5 -23t104 -64t55 -92t17.5 -114q0 -146 -81 -226.5t-253 -80.5h-352v899h-302zM453 117h221q100 0 151.5 51t51.5 137q0 79 -50 127.5t-159 48.5l-215 2v-366z" />
<glyph unicode="&#x44b;" horiz-adv-x="1130" d="M104 0v1012h129v-412h218q175 0 256 -81t81 -212q0 -146 -82.5 -226.5t-256.5 -80.5h-345zM233 117h211q108 0 160.5 51t52.5 137q0 78 -52 127t-161 49l-211 2v-366zM889 0v1012h129v-1012h-129z" />
<glyph unicode="&#x44c;" horiz-adv-x="815" d="M98 0v1012h129v-412h217q175 0 255.5 -81t80.5 -212q0 -145 -82.5 -226t-255.5 -81h-344zM225 119h213q109 0 161 50t52 136q0 79 -52.5 129.5t-162.5 50.5l-211 -2v-364z" />
<glyph unicode="&#x44d;" horiz-adv-x="776" d="M23 168l110 57q23 -51 75.5 -85t119.5 -34q56 0 98.5 20.5t68 53.5t42.5 82t23.5 97t8.5 108h-372v104h372q-2 73 -13.5 128t-37.5 103.5t-75 74.5t-119 26q-63 0 -115.5 -34t-75.5 -91l-108 64q38 85 120 133.5t185 48.5q102 0 175.5 -38.5t115.5 -109.5t61 -160 t18 -200q-1 -95 -11 -169t-35.5 -143.5t-66.5 -115t-107.5 -73t-155.5 -27.5q-106 0 -184 47t-117 133z" />
<glyph unicode="&#x44e;" horiz-adv-x="1146" d="M117 0v1008h131v-441h129q0 97 8 160q15 134 106 214.5t230 80.5q160 0 250 -100q57 -60 73 -166q13 -86 13 -170v-84q0 -64 -4 -170q-3 -105 -45 -185q-80 -159 -291 -159q-144 0 -228 72t-104 210q-1 13 -4.5 63.5t-3.5 78.5v47h-129v-459h-131zM500 422q0 -97 12 -156 q14 -74 67.5 -119t139.5 -45q71 0 123 38.5t71 105.5q17 58 17 186v84v35.5v39t-0.5 35t-2 38.5t-3.5 34.5t-5.5 36t-8.5 31t-11 31.5q-49 108 -180 108q-62 0 -110.5 -28t-76.5 -78q-26 -48 -32 -176v-201z" />
<glyph unicode="&#x44f;" horiz-adv-x="872" d="M53 0l74 301q33 141 123 176q-164 52 -164 238q0 133 81 215t230 82h371v-1012h-129v442h-209q-70 -2 -113 -35.5t-65 -121.5l-70 -285h-129zM213 713q0 -162 205 -162h221v346h-225q-97 0 -149 -48.5t-52 -135.5z" />
<glyph unicode="&#x451;" horiz-adv-x="851" d="M76 512q0 512 354 512q178 0 263 -114.5t85 -309.5v-127h-575q0 -88 10.5 -152t36.5 -115.5t74.5 -77.5t119.5 -26q63 0 117 36.5t80 90.5l109 -55q-38 -87 -118.5 -136.5t-180.5 -49.5q-209 0 -292 124.5t-83 399.5zM199 1233v139h133v-139h-133zM207 578h442v4 q0 76 -9 130.5t-32 99.5t-67 68t-109 23q-63 0 -107.5 -24t-69 -70t-35.5 -101.5t-13 -129.5zM543 1233v139h129v-139h-129z" />
<glyph unicode="&#x452;" horiz-adv-x="935" d="M8 1182v102h111v201h125v-201h407v-102h-407v-316h6q42 70 110 108t154 38q102 0 175.5 -48t105.5 -135q39 -93 39 -333q0 -202 -41 -310q-77 -202 -322 -202q-25 0 -39 2v108q74 -6 136 23.5t94 87.5q45 85 45 270q0 191 -25 273q-20 68 -72 104.5t-131 36.5 t-133.5 -43.5t-77 -106.5t-22.5 -139l-2 -600h-125v1182h-111z" />
<glyph unicode="&#x453;" horiz-adv-x="727" d="M94 0v1010h617v-113h-488v-897h-129zM303 1169l146 334l129 -45l-197 -319z" />
<glyph unicode="&#x454;" horiz-adv-x="774" d="M66 520q0 504 374 504q106 0 183 -48t114 -134q-40 -26 -106 -64q-24 58 -74 91.5t-115 33.5q-57 0 -100.5 -18t-70 -47t-43.5 -73.5t-24 -90t-9 -103.5h374v-104h-374q2 -60 8.5 -108.5t23.5 -97.5t43 -81.5t68.5 -53t99.5 -20.5q66 0 116.5 33t72.5 86q65 -35 110 -57 q-37 -85 -115.5 -132.5t-185.5 -47.5q-89 0 -155 26.5t-106.5 71.5t-65.5 114.5t-34 145.5t-9 174z" />
<glyph unicode="&#x455;" horiz-adv-x="815" d="M55 186l107 60q70 -144 246 -144q95 0 151.5 45t56.5 134q0 44 -14 74t-47.5 50.5t-64 31.5t-87.5 26q-79 20 -133.5 41.5t-99.5 53.5t-66.5 78t-21.5 107q0 129 87 205t237 76q248 0 323 -186l-111 -56q-58 125 -215 125q-95 0 -144.5 -46t-49.5 -118q0 -29 12.5 -52.5 t30 -38.5t51 -29t60.5 -22.5t73 -20.5q13 -3 19 -5q152 -36 221 -100.5t69 -195.5q0 -134 -89.5 -213.5t-254.5 -79.5q-253 0 -346 200z" />
<glyph unicode="&#x456;" horiz-adv-x="382" d="M125 1272v135h133v-135h-133zM127 0v1012h129v-1012h-129z" />
<glyph unicode="&#x457;" horiz-adv-x="382" d="M-45 1219v139h133v-139h-133zM127 0v1012h129v-1012h-129zM299 1219v139h129v-139h-129z" />
<glyph unicode="&#x458;" horiz-adv-x="403" d="M-20 -303h40q119 3 119 162v1153h131v-1180q0 -112 -59 -182t-172 -70h-59v117zM139 1272v133h133v-133h-133z" />
<glyph unicode="&#x459;" horiz-adv-x="1323" d="M18 72q73 39 109 80.5t56 125.5t20 232v502h524v-408h215q91 0 158 -23.5t105.5 -65.5t56.5 -93.5t18 -114.5q0 -147 -83 -227t-257 -80h-344v899h-272v-407q0 -164 -28 -267.5t-82 -161.5t-148 -94zM727 119h209q110 0 162.5 49.5t52.5 136.5q0 78 -53 128t-162 50h-209 v-364z" />
<glyph unicode="&#x45a;" horiz-adv-x="1343" d="M113 0v1012h127v-414h370v414h129v-414h217q175 0 256.5 -81t81.5 -210q0 -147 -83 -227t-257 -80h-344v477h-370v-477h-127zM739 119h211q108 0 160.5 50t52.5 136q0 76 -52 124t-161 48h-211v-358z" />
<glyph unicode="&#x45b;" horiz-adv-x="897" d="M-2 1194v100h104v193h129v-193h398v-100h-398v-303h5q41 66 109.5 99.5t148.5 33.5q134 0 214 -83.5t80 -225.5v-715h-129v672q0 107 -51 166t-153 59q-99 0 -162.5 -66.5t-63.5 -171.5v-659h-127v1194h-104z" />
<glyph unicode="&#x45c;" horiz-adv-x="837" d="M98 0v1012h127v-449h152q44 0 77 9.5t66.5 44.5t50.5 96l86 299h123l-84 -293q-49 -166 -143 -191q64 -16 97.5 -64.5t56.5 -133.5l94 -330h-129l-82 297q-26 93 -72.5 126.5t-122.5 33.5h-170v-457h-127zM346 1171l148 332l127 -43l-197 -321z" />
<glyph unicode="&#x45e;" horiz-adv-x="768" d="M6 1010h137q24 -80 69 -225.5t62 -200.5q12 -40 56 -191.5t57 -191.5h4q27 98 125 428t113 381h133l-375 -1225q-61 -201 -242 -201h-47v111h41q56 0 89.5 38t54.5 115l49 164q-58 173 -165.5 506.5t-160.5 491.5zM127 1407h109q6 -55 51 -98t106 -43q65 0 111 42.5 t51 98.5h107q-5 -43 -21 -82.5t-46 -77.5t-82 -61t-120 -23q-67 0 -119.5 23t-82.5 60.5t-46 78t-18 82.5z" />
<glyph unicode="&#x45f;" horiz-adv-x="903" d="M111 0v1012h127v-893h428v893h129v-1012h-277v-274h-133v274h-274z" />
<glyph unicode="&#x490;" horiz-adv-x="890" d="M133 0v1425h606v238h123v-360h-596v-1303h-133z" />
<glyph unicode="&#x491;" horiz-adv-x="743" d="M106 0v1012h496v217h121v-332h-487v-897h-130z" />
<glyph unicode="&#x4d9;" horiz-adv-x="845" d="M70 412v129h573q0 87 -11 151t-37.5 115.5t-74.5 77.5t-117 26q-62 0 -117.5 -37t-82.5 -90l-109 54q39 86 126 137t188 51q197 0 280.5 -127.5t83.5 -396.5q0 -512 -354 -512q-73 0 -131.5 20.5t-98.5 57.5t-67 90t-39 116t-12 138zM199 432q0 -323 217 -323 q62 0 106.5 24.5t68.5 70.5t35 101.5t13 128.5h-440v-2z" />
<glyph unicode="&#x1e80;" horiz-adv-x="1431" d="M35 1425h135l123 -641l94 -522h6l107 471l159 692h113l164 -704l102 -459h6l89 486l124 677h138l-289 -1425h-123l-160 688q-19 78 -52.5 235.5t-53.5 235.5h-6q-47 -202 -99 -444q-114 -494 -163 -715h-125q-240 1188 -289 1425zM504 1737l96 100l289 -235l-60 -66z" />
<glyph unicode="&#x1e81;" horiz-adv-x="1280" d="M16 1010h136l135 -529q17 -68 42 -172l25 -104h8l70 262q14 54 71.5 266t74.5 277h124q83 -300 142 -535q46 -184 71 -276h7l69 270q9 35 66.5 270.5t66.5 270.5h136l-277 -1010h-125l-141 510q-37 150 -78 285h-2l-82 -303l-135 -492h-127zM444 1460l129 43l146 -332 l-78 -32z" />
<glyph unicode="&#x1e82;" horiz-adv-x="1431" d="M35 1425h135l123 -641l94 -522h6l107 471l159 692h113l164 -704l102 -459h6l89 486l124 677h138l-289 -1425h-123l-160 688q-19 78 -52.5 235.5t-53.5 235.5h-6q-47 -202 -99 -444q-114 -494 -163 -715h-125q-240 1188 -289 1425zM604 1552l285 230l90 -99l-320 -194z " />
<glyph unicode="&#x1e83;" horiz-adv-x="1280" d="M16 1010h136l135 -529q17 -68 42 -172l25 -104h8l70 262q14 54 71.5 266t74.5 277h124q83 -300 142 -535q46 -184 71 -276h7l69 270q9 35 66.5 270.5t66.5 270.5h136l-277 -1010h-125l-141 510q-37 150 -78 285h-2l-82 -303l-135 -492h-127zM590 1171l147 332l127 -43 l-196 -321z" />
<glyph unicode="&#x1e84;" horiz-adv-x="1431" d="M35 1425h135l123 -641l94 -522h6l107 471l159 692h113l164 -704l102 -459h6l89 486l124 677h138l-289 -1425h-123l-160 688q-19 78 -52.5 235.5t-53.5 235.5h-6q-47 -202 -99 -444q-114 -494 -163 -715h-125q-240 1188 -289 1425zM471 1532v137h133v-137h-133zM809 1532 v137h131v-137h-131z" />
<glyph unicode="&#x1e85;" horiz-adv-x="1280" d="M16 1010h136l135 -529q17 -68 42 -172l25 -104h8l70 262q14 54 71.5 266t74.5 277h124q83 -300 142 -535q46 -184 71 -276h7l69 270q9 35 66.5 270.5t66.5 270.5h136l-277 -1010h-125l-141 510q-37 150 -78 285h-2l-82 -303l-135 -492h-127zM403 1221v139h134v-139h-134z M748 1221v139h129v-139h-129z" />
<glyph unicode="&#x1ef2;" horiz-adv-x="876" d="M14 1425h138q31 -76 89 -214t78 -187q22 -51 61 -150.5t52 -130.5l139 328l148 354h135l-356 -831v-594h-127v594zM172 1706l96 100l289 -235l-59 -66z" />
<glyph unicode="&#x1ef3;" horiz-adv-x="768" d="M6 1010h137q24 -80 69 -225.5t62 -200.5q12 -40 56 -191.5t57 -191.5h4q27 98 125 428t113 381h133l-375 -1225q-61 -201 -242 -201h-47v111h41q56 0 89.5 38t54.5 115l49 164q-58 173 -165.5 506.5t-160.5 491.5zM172 1460l129 43l145 -332l-77 -32z" />
<glyph unicode="&#x2000;" horiz-adv-x="918" />
<glyph unicode="&#x2001;" horiz-adv-x="1837" />
<glyph unicode="&#x2002;" horiz-adv-x="918" />
<glyph unicode="&#x2003;" horiz-adv-x="1837" />
<glyph unicode="&#x2004;" horiz-adv-x="612" />
<glyph unicode="&#x2005;" horiz-adv-x="459" />
<glyph unicode="&#x2006;" horiz-adv-x="306" />
<glyph unicode="&#x2007;" horiz-adv-x="306" />
<glyph unicode="&#x2008;" horiz-adv-x="229" />
<glyph unicode="&#x2009;" horiz-adv-x="367" />
<glyph unicode="&#x200a;" horiz-adv-x="102" />
<glyph unicode="&#x2010;" horiz-adv-x="733" d="M104 481v115h535v-115h-535z" />
<glyph unicode="&#x2011;" horiz-adv-x="733" d="M104 481v115h535v-115h-535z" />
<glyph unicode="&#x2012;" horiz-adv-x="733" d="M104 481v115h535v-115h-535z" />
<glyph unicode="&#x2013;" horiz-adv-x="1021" d="M41 483v121h940v-121h-940z" />
<glyph unicode="&#x2014;" horiz-adv-x="2045" d="M41 483v121h1964v-121h-1964z" />
<glyph unicode="&#x2015;" horiz-adv-x="2045" d="M41 483v123h1964v-123h-1964z" />
<glyph unicode="&#x2018;" horiz-adv-x="407" d="M123 1081v168l90 215h78l-51 -215h39v-168h-156z" />
<glyph unicode="&#x2019;" horiz-adv-x="407" d="M121 1081l51 215h-39v168h156v-168q-20 -39 -51.5 -117.5t-40.5 -97.5h-76z" />
<glyph unicode="&#x201a;" horiz-adv-x="387" d="M100 -219l54 213h-41v170h155v-164l-92 -219h-76z" />
<glyph unicode="&#x201c;" horiz-adv-x="555" d="M78 1081v168l92 215h76l-53 -215h40v-168h-155zM309 1081v168l90 215h78l-51 -215h39v-168h-156z" />
<glyph unicode="&#x201d;" horiz-adv-x="555" d="M84 1081l53 215h-41v170h156v-170l-90 -215h-78zM317 1081l52 215h-41v170h155v-170l-90 -215h-76z" />
<glyph unicode="&#x201e;" horiz-adv-x="665" d="M106 -219l54 213h-41v170h155v-164l-92 -219h-76zM381 -219l51 213h-41v170h156v-164l-90 -219h-76z" />
<glyph unicode="&#x2020;" horiz-adv-x="823" d="M33 825v113h315v487h125v-487h315v-113h-315v-1228h-125v1228h-315z" />
<glyph unicode="&#x2021;" horiz-adv-x="823" d="M33 276v113h315v436h-315v113h315v487h125v-487h315v-113h-315v-436h315v-113h-315v-679h-125v679h-315z" />
<glyph unicode="&#x2022;" horiz-adv-x="761" d="M166 561q0 91 63 155t154 64t155 -64t64 -155q0 -92 -64 -156.5t-155 -64.5t-154 64.5t-63 156.5z" />
<glyph unicode="&#x2026;" horiz-adv-x="1298" d="M123 0v166h153v-166h-153zM557 0v166h154v-166h-154zM997 0v166h156v-166h-156z" />
<glyph unicode="&#x202f;" horiz-adv-x="367" />
<glyph unicode="&#x2030;" horiz-adv-x="1781" d="M70 772v451q0 95 64.5 152t160.5 57t159.5 -57t63.5 -152v-451q0 -95 -64.5 -152t-158.5 -57q-96 0 -160.5 57t-64.5 152zM172 774q0 -54 33.5 -86.5t89.5 -32.5q53 0 86 32.5t33 86.5v447q0 51 -33.5 83.5t-85.5 32.5q-55 0 -89 -32.5t-34 -83.5v-447zM203 -35l755 1497 h97l-758 -1497h-94zM745 197v460q0 93 65.5 148t160.5 55q93 0 158 -55t65 -148v-460q0 -95 -64.5 -150t-158.5 -55q-95 0 -160.5 55t-65.5 150zM848 197q0 -52 33.5 -81.5t89.5 -29.5q53 0 86 29.5t33 81.5v458q0 51 -33 81t-86 30q-56 0 -89.5 -30t-33.5 -81v-458z M1266 197v460q0 93 65 148t160 55q93 0 158 -55t65 -148v-460q0 -95 -64.5 -150t-158.5 -55q-95 0 -160 55t-65 150zM1368 197q0 -52 33.5 -81.5t89.5 -29.5q53 0 86 29.5t33 81.5v458q0 51 -33 81t-86 30q-56 0 -89.5 -30t-33.5 -81v-458z" />
<glyph unicode="&#x2039;" horiz-adv-x="548" d="M96 469l234 373h127l-232 -373l232 -375h-127z" />
<glyph unicode="&#x203a;" horiz-adv-x="534" d="M96 94l230 375l-230 373h127l236 -373l-236 -375h-127z" />
<glyph unicode="&#x205f;" horiz-adv-x="459" />
<glyph unicode="&#x20ac;" d="M29 565v88h80v131h-80v86h80v158q0 183 102 295.5t278 112.5q133 0 231.5 -70t131.5 -195l-125 -36q-27 84 -88.5 133t-149.5 49q-122 0 -186.5 -81.5t-64.5 -205.5v-160h395v-86h-395v-131h395v-88h-395v-180q0 -120 66.5 -199.5t184.5 -79.5q178 0 244 187l121 -37 q-36 -129 -133.5 -198.5t-231.5 -69.5q-176 0 -278 112t-102 299v166h-80z" />
<glyph unicode="&#x2122;" horiz-adv-x="1499" d="M72 1329v96h522v-96h-209v-706h-102v706h-211zM694 623v800h99q3 -7 114 -252t131 -282q17 35 123.5 272t118.5 262h96v-800h-100v546l-201 -419h-82l-198 421h-2v-548h-99z" />
<glyph unicode="&#xe000;" horiz-adv-x="1013" d="M0 0v1014h1014v-1014h-1014z" />
</font>
</defs>
</svg>
